<?xml version="1.0" standalone="no"?>
<!DOCTYPE svg PUBLIC "-//W3C//DTD SVG 1.1//EN" "http://www.w3.org/Graphics/SVG/1.1/DTD/svg11.dtd" >
<svg xmlns="http://www.w3.org/2000/svg" xmlns:xlink="http://www.w3.org/1999/xlink" version="1.1">
<metadata>
Created by FontForge 20170731 at Mon Oct 12 02:47:17 2020
 By Aleksey,,,
(c) 1987, 1991, 1992, 1993, 2002 Adobe Systems Incorporated. All rights reserved.
</metadata>
<defs>
<font id="FuturaStd-CondensedExtraBd" horiz-adv-x="1236" >
  <font-face 
    font-family="Futura Std Condensed ExtBd"
    font-weight="750"
    font-stretch="condensed"
    units-per-em="2048"
    panose-1="2 11 8 6 2 2 4 3 2 4"
    ascent="1690"
    descent="-358"
    x-height="1081"
    cap-height="1544"
    bbox="-391 -506 2300 2046"
    underline-thickness="102"
    underline-position="-307"
    unicode-range="U+0020-FB02"
  />
<missing-glyph horiz-adv-x="1024" 
d="M0 0v1434h1024v-1434h-1024zM512 809l348 522h-696zM573 717l349 -522v1044zM164 102h696l-348 523zM102 1239v-1044l349 522z" />
    <glyph glyph-name="f_i" unicode="fi" horiz-adv-x="1402" 
d="M580 0h-402v760h-117v321h117v125q0 216 88.5 332.5t261.5 116.5q94 0 195 -29v-371q-51 37 -82 37q-15 0 -26 -3.5t-17.5 -14t-10 -18.5t-5.5 -29t-2 -32.5v-41.5v-20v-52h143v-321h-143v-760zM1294 0h-401v1081h401v-1081zM1096 1186q-97 0 -166.5 68.5t-69.5 166.5
q0 95 68.5 164.5t163.5 69.5q98 0 167.5 -67.5t69.5 -164.5t-67.5 -167t-165.5 -70z" />
    <glyph glyph-name="f_l" unicode="fl" horiz-adv-x="1402" 
d="M1294 0h-401v1632h401v-1632zM580 0h-402v760h-117v321h117v125q0 216 88.5 332.5t261.5 116.5q94 0 195 -29v-371q-51 37 -82 37q-39 0 -50 -36.5t-11 -122.5v-52h143v-321h-143v-760z" />
    <glyph glyph-name=".notdef" horiz-adv-x="1024" 
d="M0 0v1434h1024v-1434h-1024zM512 809l348 522h-696zM573 717l349 -522v1044zM164 102h696l-348 523zM102 1239v-1044l349 522z" />
    <glyph glyph-name=".null" horiz-adv-x="0" 
 />
    <glyph glyph-name="nonmarkingreturn" horiz-adv-x="682" 
 />
    <glyph glyph-name="space" unicode=" " horiz-adv-x="618" 
 />
    <glyph glyph-name="exclam" unicode="!" horiz-adv-x="622" 
d="M307 -23q-98 0 -165.5 69.5t-67.5 168.5q0 94 67 162.5t158 68.5q101 0 172.5 -68t71.5 -169q0 -96 -69.5 -164t-166.5 -68zM520 553h-407v1079h407v-1079z" />
    <glyph glyph-name="quotedbl" unicode="&#x22;" horiz-adv-x="1126" 
d="M965 803h-285l-62 741h408zM446 803h-284l-62 741h408z" />
    <glyph glyph-name="numbersign" unicode="#" 
d="M1059 688v-233h-207l-61 -455h-179l60 455h-174l-62 -455h-184l61 455h-188v233h221l29 195h-193v233h221l58 420h178l-55 -420h176l55 420h184l-57 -420h170v-233h-203l-24 -195h174zM729 883h-176l-25 -195h177z" />
    <glyph glyph-name="dollar" unicode="$" 
d="M551 1559v210h186v-198q132 -12 248 -82v-463q-128 168 -254 168q-41 0 -71.5 -25t-30.5 -67q0 -21 8.5 -41t28 -40t32 -31t39 -30.5t31.5 -23.5q67 -53 107.5 -92.5t77.5 -92t53 -114t16 -139.5q0 -164 -77 -296t-220 -192v-227h-188v190q-184 3 -322 68v483
q44 -72 118 -123t150 -51q52 0 86.5 27t34.5 82q0 13 -3.5 26t-7.5 23t-14.5 22.5t-15 18.5t-20.5 19.5t-19 16.5t-21.5 16.5t-19.5 14.5q-67 54 -107.5 93t-81.5 93.5t-60 116.5t-19 138q0 176 88 311t248 191z" />
    <glyph glyph-name="percent" unicode="%" horiz-adv-x="1628" 
d="M406 1571q107 0 184.5 -53t114 -137.5t36.5 -188.5t-36.5 -188.5t-114 -137.5t-184.5 -53t-184.5 53t-114.5 137.5t-37 188.5t37 188.5t114.5 137.5t184.5 53zM406 1343q-64 0 -64 -151q0 -152 64 -152q63 0 63 152q0 151 -63 151zM1223 731q107 0 184.5 -53
t114.5 -137.5t37 -188.5t-37 -188.5t-114.5 -137.5t-184.5 -53t-184.5 53t-114.5 137.5t-37 188.5t37 188.5t114.5 137.5t184.5 53zM1223 504q-64 0 -64 -152q0 -151 64 -151q63 0 63 151q0 152 -63 152zM346 -53l-162 114l1094 1547l166 -117z" />
    <glyph glyph-name="ampersand" unicode="&#x26;" horiz-adv-x="1499" 
d="M711 1290q-59 0 -89 -36t-30 -78q0 -45 22 -91.5t80 -111.5q70 67 101.5 112t31.5 89q0 43 -31.5 79.5t-84.5 36.5zM1008 0l-60 84q-179 -111 -358 -111q-129 0 -241 63.5t-178.5 174t-66.5 240.5q0 131 72 236t195 173q-121 149 -121 307q0 115 62 209t161.5 144.5
t212.5 50.5q198 0 331.5 -117t133.5 -299q0 -122 -77.5 -227t-199.5 -174l152 -199l156 176l213 -282l-172 -160l225 -289h-440zM737 358l-166 236q-106 -59 -106 -137q0 -82 43.5 -119t112.5 -37q41 0 116 57z" />
    <glyph glyph-name="quotesingle" unicode="'" horiz-adv-x="608" 
d="M446 803h-284l-62 741h408z" />
    <glyph glyph-name="parenleft" unicode="(" horiz-adv-x="655" 
d="M78 651q0 488 248 920l272 -127q-92 -175 -142 -386.5t-50 -408.5q0 -195 50 -406t142 -384l-272 -125q-248 432 -248 917z" />
    <glyph glyph-name="parenright" unicode=")" horiz-adv-x="655" 
d="M330 1571q248 -432 248 -920q0 -485 -248 -917l-273 125q92 174 142.5 384.5t50.5 405.5q0 197 -50.5 408t-142.5 387z" />
    <glyph glyph-name="asterisk" unicode="*" horiz-adv-x="864" 
d="M537 870l-119 166l-127 -151l-146 114l127 158l-194 74l67 174l185 -70v209h188v-223l213 72l55 -181l-208 -69l114 -168z" />
    <glyph glyph-name="plus" unicode="+" horiz-adv-x="1024" 
d="M395 641v379h236v-379h342v-235h-342v-394h-236v394h-342v235h342z" />
    <glyph glyph-name="comma" unicode="," horiz-adv-x="618" 
d="M584 416l-271 -744h-327l188 744h410z" />
    <glyph glyph-name="hyphen" unicode="-" horiz-adv-x="657" 
d="M580 489h-502v332h502v-332z" />
    <glyph glyph-name="period" unicode="." horiz-adv-x="618" 
d="M309 -23q-98 0 -165.5 69.5t-67.5 168.5q0 94 67 162.5t158 68.5q101 0 172.5 -68t71.5 -169q0 -96 -69.5 -164t-166.5 -68z" />
    <glyph glyph-name="slash" unicode="/" horiz-adv-x="1353" 
d="M418 -246h-258l776 1878h258z" />
    <glyph glyph-name="zero" unicode="0" 
d="M618 1571q104 0 189.5 -35t144 -96.5t101 -139t66.5 -170t35 -180t11 -178.5t-11 -178.5t-35 -180t-66.5 -170t-101 -139t-144 -96.5t-189.5 -35t-189.5 35t-143.5 96.5t-101 139t-66.5 170t-34.5 180t-11 178.5t11 178.5t34.5 180t66.5 170t101 139t143.5 96.5t189.5 35
zM618 1214q-31 0 -54 -19.5t-37.5 -57t-23.5 -78t-13 -96.5t-5.5 -97t-1.5 -94t1.5 -94t5.5 -97t13 -96.5t23.5 -78t37.5 -57t54 -19.5t54.5 20t37.5 57t23.5 78t13.5 96t5.5 96.5t1.5 94.5t-1.5 94.5t-5.5 96.5t-13.5 96t-23.5 78t-37.5 57t-54.5 20z" />
    <glyph glyph-name="one" unicode="1" 
d="M885 0h-418v1188h-166v356h584v-1544z" />
    <glyph glyph-name="two" unicode="2" 
d="M152 981l-2 55q0 234 144.5 384.5t377.5 150.5q216 0 351.5 -144.5t135.5 -361.5q0 -350 -403 -719l4 -4q18 1 93 7.5t116 6.5h172v-356h-1065l407 543q121 162 164 233q105 175 105 314q0 53 -24 95t-73 42q-32 0 -53.5 -19.5t-30.5 -52.5t-12.5 -60t-3.5 -57v-57h-403z
" />
    <glyph glyph-name="three" unicode="3" 
d="M508 455l2 -27q4 -60 32 -89.5t68 -29.5q58 0 86.5 39.5t28.5 100.5q0 88 -53 128.5t-131 40.5h-58v326h52q87 0 128.5 35.5t41.5 122.5q0 30 -7 58t-27.5 51.5t-52.5 23.5q-83 0 -83 -119v-10l-404 -2q13 212 151.5 339.5t352.5 127.5q129 0 237.5 -57t174 -161.5
t65.5 -234.5q0 -101 -49 -186.5t-137 -132.5q104 -54 156.5 -149t52.5 -216q0 -108 -44.5 -197t-118.5 -145.5t-169 -87.5t-199 -31q-221 0 -366 132.5t-138 349.5h408z" />
    <glyph glyph-name="four" unicode="4" 
d="M639 645v264q0 30 2.5 61.5t7 74.5t6.5 61l-4 4l-248 -465h236zM625 313h-562v326l465 905h512v-899h134v-332h-134v-313h-415v313z" />
    <glyph glyph-name="five" unicode="5" 
d="M111 94l49 365q183 -111 327 -111q87 0 152.5 46t65.5 130q0 48 -21.5 83t-57.5 54t-77 28t-86 9q-143 0 -277 -55l119 901h770v-356h-440l-33 -180q40 4 60 4q127 0 234 -64t167.5 -173t60.5 -236q0 -162 -77.5 -292t-210.5 -202t-295 -72q-109 0 -222.5 32t-207.5 89z
" />
    <glyph glyph-name="six" unicode="6" 
d="M938 1544l-324 -557l4 -4q67 43 144 43q89 0 163 -45.5t120 -118t71 -157t25 -168.5q0 -248 -147 -406t-392 -158q-159 0 -276 77t-174.5 203t-57.5 282q0 86 24 187t68.5 209t82 186.5t91.5 180.5l129 246h449zM623 305q118 0 118 223q0 33 -5 63.5t-17 62.5t-36.5 51.5
t-59.5 19.5t-60 -20t-36.5 -53.5t-16 -64.5t-4.5 -65q0 -217 117 -217z" />
    <glyph glyph-name="seven" unicode="7" 
d="M541 0h-449l572 1188h-525v356h1098z" />
    <glyph glyph-name="eight" unicode="8" 
d="M618 303q56 0 80.5 52.5t24.5 129.5q0 25 -5.5 50.5t-17.5 50t-33 40t-49 15.5q-36 0 -61 -27.5t-34 -60.5t-9 -68q0 -77 24 -129.5t80 -52.5zM618 1241q-48 0 -69 -39.5t-21 -89.5q0 -34 6.5 -63t28 -53.5t55.5 -24.5t56 24.5t28.5 54t6.5 62.5q0 31 -7 58t-28.5 49
t-55.5 22zM618 -27q-101 0 -196 32.5t-168.5 91t-117.5 146t-44 189.5q0 136 67 232t193 139v4q-115 33 -173 117.5t-58 208.5q0 99 40 182t108.5 138.5t158.5 86.5t190 31q134 0 246.5 -52t182 -153.5t69.5 -232.5q0 -124 -58 -208.5t-173 -117.5v-4q126 -43 193 -139
t67 -232q0 -135 -76 -242t-195 -162t-256 -55z" />
    <glyph glyph-name="nine" unicode="9" 
d="M299 0l324 557l-5 4q-72 -43 -143 -43q-72 0 -135 30t-107.5 80t-76 114t-47 132t-15.5 134q0 248 147 405.5t394 157.5q159 0 275.5 -76.5t173.5 -202t57 -282.5q0 -86 -23.5 -187t-68.5 -209.5t-82 -186t-90 -179.5l-132 -248h-446zM612 1241q-116 0 -116 -225
q0 -32 5 -62.5t17 -63t36.5 -52t59.5 -19.5t59 20t35 54t15 64.5t4 64.5q0 219 -115 219z" />
    <glyph glyph-name="colon" unicode=":" horiz-adv-x="618" 
d="M309 594q-98 0 -165.5 69t-67.5 168q0 94 67 163t158 69q101 0 172.5 -68t71.5 -170q0 -96 -69.5 -163.5t-166.5 -67.5zM309 -23q-98 0 -165.5 69.5t-67.5 168.5q0 94 67 162.5t158 68.5q101 0 172.5 -68t71.5 -169q0 -96 -69.5 -164t-166.5 -68z" />
    <glyph glyph-name="semicolon" unicode=";" horiz-adv-x="618" 
d="M584 416l-271 -744h-327l188 744h410zM393 594q-99 0 -167 70.5t-68 169.5q0 92 67.5 160.5t159.5 68.5q101 0 171.5 -68t70.5 -168q0 -98 -68.5 -165.5t-165.5 -67.5z" />
    <glyph glyph-name="less" unicode="&#x3c;" horiz-adv-x="1024" 
d="M297 524l674 -331v-228l-920 461v203l920 465v-228z" />
    <glyph glyph-name="equal" unicode="=" horiz-adv-x="1024" 
d="M973 842v-236h-920v236h920zM973 442v-235h-920v235h920z" />
    <glyph glyph-name="greater" unicode="&#x3e;" horiz-adv-x="1024" 
d="M53 193l674 331l-674 342v228l920 -465v-203l-920 -461v228z" />
    <glyph glyph-name="question" unicode="?" horiz-adv-x="1116" 
d="M743 559h-397v379l72 -2q110 0 164.5 45t54.5 154q0 27 -3 52t-11.5 55t-28 48.5t-47.5 18.5q-88 0 -88 -176h-402v30q-4 217 133.5 353.5t352.5 136.5q221 0 363.5 -141.5t142.5 -362.5q0 -75 -18.5 -143.5t-54.5 -127t-96 -100.5t-137 -59v-160zM551 -23
q-98 0 -166 69.5t-68 168.5q0 94 67.5 162.5t158.5 68.5q101 0 172 -68t71 -169q0 -96 -69 -164t-166 -68z" />
    <glyph glyph-name="at" unicode="@" horiz-adv-x="1699" 
d="M1030 762q8 99 -34 165t-134 66q-94 0 -162.5 -85t-68.5 -197q0 -88 45 -142.5t121 -54.5q96 0 160.5 76.5t72.5 171.5zM1100 1059l22 108h201l-109 -626q-8 -45 27 -45q39 0 91 49.5t93 139.5t41 185q0 254 -160.5 403.5t-422.5 149.5q-187 0 -335 -83t-230 -230.5
t-82 -331.5q0 -193 90.5 -344t245.5 -232t346 -81q209 0 419 190h197q-117 -160 -279 -249t-354 -89q-169 0 -321.5 61.5t-263 167.5t-175.5 256t-65 320q0 167 63.5 314.5t172.5 252.5t259 165.5t318 60.5q137 0 269 -46.5t236 -128t168 -204t64 -264.5q0 -133 -49 -249
t-126.5 -191.5t-171 -118.5t-185.5 -43q-41 0 -69 34t-17 84l-4 5q-132 -123 -252 -123q-161 0 -253.5 100t-92.5 264q0 129 52.5 240.5t153 181.5t228.5 70q175 0 260 -123z" />
    <glyph glyph-name="A" unicode="A" horiz-adv-x="1239" 
d="M1225 0h-432l-31 199h-281l-35 -199h-430l371 1544h510zM537 526h176l-45 359q-4 33 -31 291h-4q-29 -228 -39 -291z" />
    <glyph glyph-name="B" unicode="B" horiz-adv-x="1249" 
d="M123 0v1544h491q78 0 150.5 -13.5t143 -46t123 -81t84.5 -125.5t32 -174q0 -133 -79.5 -221t-209.5 -88v-4q153 -12 233 -103t80 -248q0 -61 -14.5 -119t-50 -117.5t-89.5 -103.5t-140 -72t-193 -28h-561zM541 334h34q75 0 125 37.5t50 111.5t-50 111t-127 37h-32v-297z
M541 944h24q72 0 119 32.5t47 102.5q0 66 -40.5 98.5t-108.5 32.5h-41v-266z" />
    <glyph glyph-name="C" unicode="C" horiz-adv-x="1093" 
d="M969 1534v-442q-49 47 -91.5 68.5t-103.5 21.5q-62 0 -111 -26.5t-78 -68t-48 -98t-26 -109.5t-7 -108q0 -74 12 -141t40 -130.5t82 -101t128 -37.5q66 0 115 24t106 75l-24 -432q-127 -56 -252 -56q-130 0 -243.5 50t-201 145.5t-138 248.5t-50.5 345q0 143 27 262.5
t71.5 201t105 145t122 100.5t129.5 60.5t121 31.5t102 8q120 0 213 -37z" />
    <glyph glyph-name="D" unicode="D" horiz-adv-x="1267" 
d="M123 0v1544h336q351 0 541 -205t190 -561q0 -116 -16 -214.5t-43 -171.5t-67 -132.5t-83 -99.5t-96.5 -70t-102 -47t-104.5 -27t-99.5 -13t-91.5 -3h-364zM541 1159v-786q46 0 82.5 18.5t60 50.5t40 69.5t25 83t12 84.5t3.5 79q0 73 -9 135.5t-31 126.5t-69 101.5
t-114 37.5z" />
    <glyph glyph-name="E" unicode="E" horiz-adv-x="1021" 
d="M123 0v1544h776v-364h-358v-215h321v-365h-321v-235h358v-365h-776z" />
    <glyph glyph-name="F" unicode="F" horiz-adv-x="985" 
d="M541 0h-418v1544h737v-364h-319v-224h299v-364h-299v-592z" />
    <glyph glyph-name="G" unicode="G" horiz-adv-x="1298" 
d="M653 893h582l2 -66q0 -89 -5.5 -167.5t-21 -167.5t-40.5 -161.5t-68 -141t-100 -114.5t-139 -74t-183 -28q-95 0 -176.5 23.5t-142 65t-109 100t-81 127t-53.5 148t-30.5 160.5t-9.5 167q0 121 18 231.5t62.5 217.5t111 185t171 125.5t235.5 47.5q182 0 319 -104
t207 -277l-403 -150q-4 55 -36 106.5t-83 51.5q-43 0 -75.5 -23.5t-50.5 -61.5t-30 -86t-15 -97.5t-5 -95.5t0 -80v-27q0 -9 1.5 -47.5t3 -60t6 -61t11 -64.5t18.5 -56t27.5 -49t39.5 -30.5t53 -12.5q39 0 69 21.5t45.5 56t22.5 71t6 72.5h-154v326z" />
    <glyph glyph-name="H" unicode="H" horiz-adv-x="1282" 
d="M1157 0h-418v627h-198v-627h-418v1544h418v-553h198v553h418v-1544z" />
    <glyph glyph-name="I" unicode="I" horiz-adv-x="663" 
d="M541 0h-418v1544h418v-1544z" />
    <glyph glyph-name="J" unicode="J" horiz-adv-x="880" 
d="M49 23v432q66 -90 170 -90q34 0 57.5 14.5t35.5 34.5t19 52.5t8 55.5t1 58v964h418v-1046q0 -53 -2.5 -95t-12.5 -99t-27 -100t-49.5 -88.5t-77 -75t-112 -48.5t-151.5 -19q-132 0 -277 50z" />
    <glyph glyph-name="K" unicode="K" horiz-adv-x="1298" 
d="M772 1544h440l-333 -745l372 -799h-448l-260 709h-2v-709h-418v1544h418v-657h2z" />
    <glyph glyph-name="L" unicode="L" horiz-adv-x="901" 
d="M854 0h-731v1544h418v-1179h313v-365z" />
    <glyph glyph-name="M" unicode="M" horiz-adv-x="1689" 
d="M1659 0h-434l-39 971h-4q-52 -329 -54 -338l-118 -633h-340l-146 971h-4q-1 -38 -1 -107.5t-1 -126.5t-4 -108l-35 -629h-448l180 1544h520l119 -821h4q26 205 41 287l100 534h514z" />
    <glyph glyph-name="N" unicode="N" horiz-adv-x="1335" 
d="M123 0v1544h397l334 -930l4 4q-5 58 -18.5 167.5t-21 198t-7.5 167.5v393h401v-1544h-401l-311 891l-4 -4q3 -44 11 -135.5t12.5 -162.5t4.5 -136v-453h-401z" />
    <glyph glyph-name="O" unicode="O" horiz-adv-x="1333" 
d="M76 772q0 97 14.5 190.5t44 184t78 166.5t112 134t151 91t190.5 33q123 0 223.5 -47t167.5 -125.5t112.5 -183t65.5 -215.5t20 -228t-20 -228t-65.5 -215.5t-112.5 -183t-167.5 -125.5t-223.5 -47q-103 0 -190.5 33t-151 91t-112 134t-78 166.5t-44 184t-14.5 190.5z
M502 772q0 -28 0.5 -53.5t4.5 -69t10 -79.5t18.5 -76.5t29 -68t43 -45.5t58.5 -18t58.5 18.5t43 45.5t29 67.5t18.5 76t9.5 79.5t4 69.5t0.5 53.5t-0.5 53.5t-4 69.5t-9.5 79.5t-18.5 76t-29 67.5t-43 45.5t-58.5 18.5t-58.5 -18t-43 -45.5t-29 -68t-18.5 -76.5t-10 -79.5
t-4.5 -69t-0.5 -53.5z" />
    <glyph glyph-name="P" unicode="P" horiz-adv-x="1196" 
d="M541 0h-418v1544h381q114 0 207.5 -15t176.5 -52.5t139.5 -96.5t89 -150t32.5 -210q0 -118 -29 -208t-80.5 -149t-128.5 -95.5t-167.5 -50.5t-202.5 -11v-506zM727 1026q0 78 -41.5 132t-114.5 54l-30 -2v-356q87 -5 136.5 40.5t49.5 131.5z" />
    <glyph glyph-name="Q" unicode="Q" horiz-adv-x="1333" 
d="M1266 -31l-336 -184l-144 207q-24 -8 -59 -15q-40 -4 -61 -4q-103 0 -190.5 33t-151 91t-112 134t-78 166.5t-44 184t-14.5 190.5t14.5 190.5t44 184t78 166.5t112 134t151 91t190.5 33q123 0 223.5 -47t167.5 -125.5t112.5 -183t65.5 -215.5t20 -228q-7 -381 -172 -590z
M666 1182q-32 0 -58.5 -18t-43 -45.5t-29 -68t-18.5 -76.5t-10 -79.5t-4.5 -69t-0.5 -53.5t0.5 -53.5t4.5 -69t10 -79.5t18.5 -76.5t29 -68t43 -45.5t58.5 -18t58.5 18.5t43 45.5t29 67.5t18.5 76t9.5 79.5t4 69.5t0.5 53.5t-0.5 53.5t-4 69.5t-9.5 79.5t-18.5 76t-29 67.5
t-43 45.5t-58.5 18.5z" />
    <glyph glyph-name="R" unicode="R" 
d="M1223 0h-453l-231 643l-4 -4q1 -25 2.5 -71.5t2.5 -84t1 -71.5v-412h-418v1544h403q114 0 204.5 -14t171 -49.5t134 -93t84.5 -147.5t31 -210q0 -134 -60 -236.5t-180 -150.5zM541 831l26 -2q79 0 124.5 58.5t45.5 138.5q0 98 -53 144.5t-143 41.5v-381z" />
    <glyph glyph-name="S" unicode="S" horiz-adv-x="966" 
d="M84 37v483q47 -71 118.5 -121.5t145.5 -50.5q47 0 85 27.5t38 75.5t-33 86q-21 27 -69 59q-147 113 -207 197q-84 119 -84 270q0 58 14 122t49.5 134t87.5 125t135 91t185 36q151 0 297 -78v-469q-41 65 -110 115.5t-136 50.5q-40 0 -74 -26t-34 -68q0 -43 40 -86
q15 -16 76 -64q147 -102 205 -188q76 -109 76 -269q0 -218 -138.5 -367t-353.5 -149q-160 0 -313 64z" />
    <glyph glyph-name="T" unicode="T" horiz-adv-x="978" 
d="M694 0h-418v1167h-229v377h887v-377h-240v-1167z" />
    <glyph glyph-name="U" unicode="U" horiz-adv-x="1273" 
d="M743 1544h418v-1009q0 -47 -3.5 -90t-16 -102t-34 -107.5t-61.5 -99t-93.5 -85t-134.5 -56.5t-181 -22t-181 22t-134.5 56.5t-93.5 85t-61.5 99t-34 107.5t-16 102t-3.5 90v1009h417v-971q0 -97 11 -135q21 -76 96 -76q78 0 96 74q10 36 10 135v973z" />
    <glyph glyph-name="V" unicode="V" horiz-adv-x="1200" 
d="M780 0h-426l-354 1544h438l99 -635q10 -71 24.5 -199t20.5 -173h4q7 45 20.5 173t26.5 199l115 635h452z" />
    <glyph glyph-name="W" unicode="W" horiz-adv-x="1744" 
d="M1434 0h-404l-112 627q-14 75 -28.5 204t-15.5 136h-4q-3 -35 -8 -101.5t-10.5 -124.5t-13.5 -114l-88 -627h-406l-344 1544h412l92 -622q11 -79 43 -342h4q4 39 9.5 108t11 126t14.5 108l108 622h359l106 -622q11 -67 27.5 -191t19.5 -145h4q4 35 14.5 151.5t20.5 184.5
l92 622h408z" />
    <glyph glyph-name="X" unicode="X" horiz-adv-x="1259" 
d="M1229 0h-463l-86 240q-8 29 -24.5 87t-24.5 87h-4q-8 -29 -24.5 -87t-24.5 -87l-93 -240h-454l375 801l-355 743h465l68 -186q12 -34 28 -100.5t19 -77.5h4q4 18 12.5 55.5t15.5 67t15 55.5l55 186h469l-352 -743z" />
    <glyph glyph-name="Y" unicode="Y" horiz-adv-x="1189" 
d="M815 0h-418v655l-381 889h435l143 -477h4l145 477h433l-361 -889v-655z" />
    <glyph glyph-name="Z" unicode="Z" horiz-adv-x="1208" 
d="M1110 0h-1063l422 981q24 57 119 211q-246 -12 -264 -12h-185v364h1022l-456 -1057q-11 -26 -34 -72.5t-32 -68.5q26 2 72.5 7t86 8.5t74.5 3.5h238v-365z" />
    <glyph glyph-name="bracketleft" unicode="[" horiz-adv-x="614" 
d="M594 14v-254h-528v1784h528v-256h-227v-1274h227z" />
    <glyph glyph-name="backslash" unicode="\" horiz-adv-x="512" 
d="M772 -246h-258l-774 1878h258z" />
    <glyph glyph-name="bracketright" unicode="]" horiz-adv-x="614" 
d="M549 -240h-529v254h228v1274h-228v256h529v-1784z" />
    <glyph glyph-name="asciicircum" unicode="^" horiz-adv-x="1024" 
d="M240 676l-209 96l360 772h242l360 -772l-209 -96l-274 571z" />
    <glyph glyph-name="underscore" unicode="_" horiz-adv-x="1024" 
d="M0 -154h1024v-102h-1024v102z" />
    <glyph glyph-name="grave" unicode="`" horiz-adv-x="778" 
d="M553 1223h-223l-205 344h319z" />
    <glyph glyph-name="a" unicode="a" horiz-adv-x="1165" 
d="M557 309q67 0 86 99q12 55 12 147t-8 131q-19 88 -78 88q-62 0 -84 -108q-10 -57 -10 -160q0 -71 12 -123q18 -74 70 -74zM1057 1081v-1081h-402l19 178l-4 4q-41 -92 -112 -148.5t-165 -56.5q-80 0 -141.5 40t-96.5 100.5t-57 141.5t-29.5 150.5t-7.5 141.5
q0 58 6.5 115.5t20.5 122t40 119.5t62 100t90.5 70.5t120.5 25.5q168 0 261 -193l4 4l-17 166h408z" />
    <glyph glyph-name="b" unicode="b" horiz-adv-x="1165" 
d="M592 322q32 0 53.5 25.5t30 66.5t11.5 71t3 62q0 223 -106 223q-29 0 -48 -25.5t-27 -66t-10.5 -70t-2.5 -59.5q0 -227 96 -227zM109 0v1632h401v-555l-6 -147l4 -4q77 178 250 178q84 0 148 -39t100.5 -98t59.5 -139.5t30.5 -151.5t7.5 -146q0 -39 -2.5 -78.5t-11 -96
t-23 -106.5t-41 -101.5t-62 -88t-88.5 -59.5t-118 -23q-86 0 -143 43.5t-101 124.5l-4 -4l8 -141h-409z" />
    <glyph glyph-name="c" unicode="c" horiz-adv-x="749" 
d="M655 352v-366q-14 -1 -50.5 -5t-57.5 -4q-113 0 -206.5 48t-153.5 128t-93 181t-33 211q0 149 61.5 276t179.5 205t269 78q26 0 84 -4v-350q-88 -4 -134 -56.5t-46 -140.5q0 -73 41.5 -137t112.5 -64h26z" />
    <glyph glyph-name="d" unicode="d" horiz-adv-x="1165" 
d="M571 322q25 0 43.5 13t28.5 33t16 52t7.5 60.5t1.5 68.5q0 221 -88 221q-105 0 -105 -223q0 -225 96 -225zM647 0l8 141l-4 4q-44 -82 -100.5 -125t-144.5 -43q-81 0 -144 37.5t-100 94t-60.5 133.5t-32 146.5t-8.5 141.5q0 52 3.5 102.5t14 108.5t26.5 108.5t43 98.5
t62 81.5t85.5 54t110.5 20.5q174 0 251 -178l5 4q-1 12 -4 65t-3 82v555h402v-1632h-410z" />
    <glyph glyph-name="e" unicode="e" horiz-adv-x="1114" 
d="M463 674h186q-2 54 -24.5 95.5t-71.5 41.5q-46 0 -69 -43.5t-21 -93.5zM645 367h393q-33 -184 -162.5 -287t-314.5 -103q-243 0 -371.5 148.5t-128.5 394.5q0 117 33.5 221.5t96.5 186t161 129t219 47.5q235 0 365 -176q71 -96 94 -207.5t23 -263.5h-590q0 -166 94 -166
q33 0 57.5 21.5t30.5 54.5z" />
    <glyph glyph-name="f" unicode="f" horiz-adv-x="784" 
d="M580 0h-402v760h-117v321h117v125q0 216 88.5 332.5t261.5 116.5q94 0 195 -29v-371q-51 37 -82 37q-17 0 -29 -7.5t-18 -18.5t-9.5 -34.5t-4 -43t-0.5 -55.5v-52h143v-321h-143v-760z" />
    <glyph glyph-name="g" unicode="g" horiz-adv-x="1163" 
d="M569 315q93 0 93 230q0 50 -3 85.5t-12 72t-28.5 56t-49.5 19.5q-94 0 -94 -227q0 -42 4 -79t13.5 -74.5t29 -60t47.5 -22.5zM1055 1081v-1087q0 -252 -121.5 -376t-374.5 -124q-208 0 -334 95t-147 296h409q0 -36 23 -62t59 -26t55 24t24 60.5t5 100.5v143h-4
q-30 -59 -96 -99t-137 -40q-66 0 -121 25.5t-93 70t-66 99t-44 118t-23.5 122.5t-7.5 116q0 55 7.5 113.5t23 124t43 123t64 104.5t91 74.5t118.5 27.5q81 0 136 -43t105 -121l4 4l-8 137h410z" />
    <glyph glyph-name="h" unicode="h" horiz-adv-x="1177" 
d="M1069 0h-401v547q0 33 -1 52.5t-5 42t-11.5 35t-22 20.5t-34.5 8q-23 0 -39.5 -10.5t-25 -25t-13 -41.5t-5.5 -49.5t-1 -58.5v-520h-401v1632h401l-2 -588q0 -31 -3.5 -87.5t-4.5 -75.5l4 -4q31 94 106 160.5t170 66.5q67 0 118.5 -22.5t83 -59t52 -88.5t28 -105.5
t7.5 -115.5v-713z" />
    <glyph glyph-name="i" unicode="i" horiz-adv-x="618" 
d="M510 0h-401v1081h401v-1081zM311 1186q-97 0 -166 68.5t-69 166.5q0 96 68 165t163 69q98 0 168 -67.5t70 -164.5t-68 -167t-166 -70z" />
    <glyph glyph-name="j" unicode="j" horiz-adv-x="618" 
d="M510 -483h-401v1564h401v-1564zM315 1186q-98 0 -167.5 68.5t-69.5 166.5q0 96 68.5 165t164.5 69t166 -67.5t70 -164.5q0 -98 -67.5 -167.5t-164.5 -69.5z" />
    <glyph glyph-name="k" unicode="k" horiz-adv-x="1179" 
d="M702 0l-188 543h-4v-543h-401v1632h401v-1038h4l188 487h435l-267 -495l293 -586h-461z" />
    <glyph glyph-name="l" unicode="l" horiz-adv-x="618" 
d="M510 0h-401v1632h401v-1632z" />
    <glyph glyph-name="m" unicode="m" horiz-adv-x="1724" 
d="M514 1081l-6 -176l4 -4q34 90 103.5 146.5t162.5 56.5q104 0 175.5 -60.5t107.5 -162.5h4q28 98 95.5 160.5t166.5 62.5q152 0 220.5 -100t68.5 -287v-717h-402v586q0 129 -65 129q-35 0 -52 -18.5t-26 -53.5q-8 -31 -8 -121v-522h-401v598q0 111 -62 111q-64 0 -82 -74
q-8 -33 -8 -121v-514h-401v1081h405z" />
    <glyph glyph-name="n" unicode="n" horiz-adv-x="1177" 
d="M510 1081l-10 -200l4 -4q31 94 106 160.5t170 66.5q67 0 118.5 -22.5t83 -59t52 -88.5t28 -105.5t7.5 -115.5v-713h-401v547q0 40 -2 64.5t-9 48t-22.5 34.5t-40.5 11q-28 0 -45.5 -12t-25.5 -40t-10.5 -56.5t-2.5 -76.5v-520h-401v1081h401z" />
    <glyph glyph-name="o" unicode="o" horiz-adv-x="1130" 
d="M565 1104q126 0 224 -45t158.5 -123.5t91 -178.5t30.5 -216t-31 -216.5t-91 -179t-158 -123.5t-224 -45t-224 45t-158 123.5t-91 179t-31 216.5t30.5 216t91 178.5t158.5 123.5t224 45zM565 803q-110 0 -110 -262t110 -262q111 0 111 262t-111 262z" />
    <glyph glyph-name="p" unicode="p" horiz-adv-x="1161" 
d="M588 315q98 0 98 244q0 34 -4 67.5t-13.5 68.5t-30 57t-48.5 22q-92 0 -92 -223q0 -236 90 -236zM510 1081l-10 -149l4 -4q76 176 244 176q79 0 141.5 -38t101 -97t64 -136.5t35.5 -149.5t10 -142q0 -58 -6.5 -116.5t-20.5 -124t-40 -121.5t-62 -102.5t-90.5 -73
t-120.5 -26.5q-159 0 -256 170l-4 -4q10 -170 10 -200v-426h-401v1564h401z" />
    <glyph glyph-name="q" unicode="q" horiz-adv-x="1161" 
d="M575 315q89 0 89 236q0 223 -93 223q-36 0 -58.5 -35t-30 -80t-7.5 -100q0 -244 100 -244zM662 932l-11 149h402v-1564h-402v426q0 13 11 200l-5 4q-97 -170 -256 -170q-79 0 -141.5 38.5t-99 98t-60.5 137.5t-32 149.5t-7 140.5q0 58 7.5 117.5t23 124.5t43.5 121
t65.5 101.5t92.5 72t121 26.5q167 0 243 -176z" />
    <glyph glyph-name="r" unicode="r" horiz-adv-x="868" 
d="M791 1104v-449q-80 39 -113 39q-43 0 -75 -16.5t-49.5 -40.5t-27.5 -60.5t-13 -68t-3 -70.5v-438h-401v1081h403l-23 -207l5 -4q36 107 113 172.5t184 61.5z" />
    <glyph glyph-name="s" unicode="s" horiz-adv-x="944" 
d="M61 90l148 299q42 -45 96 -79t105 -34q30 0 53.5 14.5t23.5 41.5q0 28 -24.5 47t-79.5 39q-64 22 -111.5 48t-88.5 63.5t-62 90t-21 119.5q0 165 122 265t313 100q81 0 169.5 -24t159.5 -64l-137 -293q-37 34 -52 47t-50 31t-66 18q-24 0 -41.5 -14t-17.5 -39
q0 -19 11.5 -35.5t34 -29.5t37 -19.5t38.5 -15.5q59 -23 102.5 -48t82 -61t58 -86.5t19.5 -114.5q0 -89 -36 -162t-96.5 -119.5t-137.5 -72t-162 -25.5q-104 0 -195.5 28t-194.5 85z" />
    <glyph glyph-name="t" unicode="t" horiz-adv-x="804" 
d="M602 0h-401v760h-115v321h115v318h401v-318h133v-321h-133v-760z" />
    <glyph glyph-name="u" unicode="u" horiz-adv-x="1157" 
d="M98 1081h402v-581q0 -106 14.5 -146.5t63.5 -40.5q51 0 65 40t14 147v581h402v-637q0 -233 -126.5 -350t-354.5 -117q-232 0 -356 122t-124 345v637z" />
    <glyph glyph-name="v" unicode="v" horiz-adv-x="1093" 
d="M750 0h-420l-299 1081h405l78 -454q7 -44 16.5 -127.5t12.5 -108.5h4q5 38 15.5 118t15.5 118l90 454h395z" />
    <glyph glyph-name="w" unicode="w" horiz-adv-x="1642" 
d="M1296 0h-397l-80 647h-4l-121 -647h-393l-270 1081h395l59 -393q33 -236 35 -258h4q9 43 22.5 129t22.5 129l82 393h342l56 -393q24 -172 32 -258h4q9 43 22.5 129t22.5 129l80 393h402z" />
    <glyph glyph-name="x" unicode="x" horiz-adv-x="1210" 
d="M1163 0h-465l-90 256q-7 -16 -36 -88.5t-48 -112.5l-28 -55h-449l328 557l-312 524h459l76 -233h4q4 13 13 41t14 43l59 149h445l-320 -516z" />
    <glyph glyph-name="y" unicode="y" horiz-adv-x="1118" 
d="M584 -483h-416l184 528l-321 1036h403l78 -372q8 -40 23.5 -121t23.5 -121h4q4 25 16.5 110.5t22.5 131.5l84 372h401z" />
    <glyph glyph-name="z" unicode="z" horiz-adv-x="1021" 
d="M911 0h-864l367 766q-153 -6 -156 -6h-154v321h873l-365 -757q90 4 133 4h166v-328z" />
    <glyph glyph-name="braceleft" unicode="{" horiz-adv-x="614" 
d="M610 -240h-225q-58 0 -100.5 17.5t-67 45t-38.5 70.5t-18.5 84.5t-4.5 96.5v250q0 96 -34 149.5t-120 75.5v188q83 13 118.5 76.5t35.5 155.5v297q0 147 62.5 212.5t178.5 65.5h213v-209q-46 0 -77 -16.5t-47 -48t-22.5 -67.5t-6.5 -85v-205q0 -119 -34.5 -181
t-133.5 -85v-4q52 -7 87 -33t52 -67.5t23 -84.5t6 -100v-198q0 -211 153 -211v-189z" />
    <glyph glyph-name="bar" unicode="|" horiz-adv-x="512" 
d="M139 1610h236v-2048h-236v2048z" />
    <glyph glyph-name="braceright" unicode="}" horiz-adv-x="614" 
d="M229 -240h-225v189q154 0 154 211v198q0 57 6 100t23 84.5t52 67.5t87 33v4q-99 23 -133.5 85t-34.5 181v205q0 49 -6.5 85t-22.5 67.5t-47.5 48t-77.5 16.5v209h213q116 0 179 -65.5t63 -212.5v-297q0 -209 153 -232v-188q-86 -22 -119.5 -75t-33.5 -150v-250
q0 -55 -4.5 -96.5t-19 -84.5t-38.5 -70.5t-67 -45t-101 -17.5z" />
    <glyph glyph-name="asciitilde" unicode="~" horiz-adv-x="1024" 
d="M856 735l117 -149q-64 -113 -97 -152q-73 -88 -167 -88q-53 0 -134 34t-151 67.5t-96 33.5q-48 0 -82 -35.5t-76 -132.5l-117 152q25 51 49 90t58 79.5t76.5 62.5t89.5 22q45 0 104 -21t105.5 -46.5t96 -46.5t77.5 -21q40 0 70 31.5t77 119.5z" />
    <glyph glyph-name="uni00A0" unicode="&#xa0;" horiz-adv-x="618" 
 />
    <glyph glyph-name="exclamdown" unicode="&#xa1;" horiz-adv-x="622" 
d="M311 700q-98 0 -165.5 69.5t-67.5 168.5q0 94 67 162.5t158 68.5q101 0 172.5 -68t71.5 -169q0 -96 -69.5 -164t-166.5 -68zM94 596h408v-1079h-408v1079z" />
    <glyph glyph-name="cent" unicode="&#xa2;" 
d="M793 252v-209h-195v254q-140 73 -214.5 211.5t-74.5 302.5t74.5 307.5t214.5 206.5v182h195v-135q6 0 18 1t18 1q30 2 74 -8v-342q-83 1 -130.5 -57t-47.5 -144q0 -72 41.5 -131t110.5 -59h26v-373q-18 -1 -55 -4t-55 -4z" />
    <glyph glyph-name="sterling" unicode="&#xa3;" 
d="M209 -10l-117 190q111 80 182 111q24 40 32.5 74.5t8.5 85.5q0 102 -41 217h-141v215h76l-4 14q-20 64 -27 88.5t-15.5 72.5t-8.5 91q0 125 63 222.5t165.5 148.5t225.5 51q127 0 245.5 -58.5t205.5 -158.5l-223 -221q-72 116 -150 116q-50 0 -82.5 -35.5t-32.5 -87.5
q0 -38 27.5 -122.5t30.5 -120.5h375v-215h-351q4 -77 -22.5 -155.5t-75.5 -143.5q32 -1 63.5 -9t50.5 -15.5t58 -25.5q57 -24 96 -24q63 0 113 74l207 -113q-47 -130 -140 -206.5t-225 -76.5q-71 0 -138 22t-123.5 44t-102.5 22q-59 0 -104 -17t-101 -54z" />
    <glyph glyph-name="currency" unicode="&#xa4;" 
d="M98 281l90 90q-39 71 -57 129.5t-18 132.5q0 144 75 268l-90 88l162 164l90 -90q129 78 264 78q150 0 275 -78l90 90l162 -164l-90 -88q73 -127 73 -266q0 -151 -73 -264l90 -90l-162 -162l-90 90q-134 -80 -264 -80q-151 0 -275 80l-90 -90zM618 383q106 0 179 75.5
t73 176.5t-73 176.5t-179 75.5q-105 0 -178 -75t-73 -177t73 -177t178 -75z" />
    <glyph glyph-name="yen" unicode="&#xa5;" 
d="M838 0h-418v455h-295v168h295v32l-64 152h-231v168h160l-246 569h434l92 -340q18 -68 51 -219h5q4 23 11 69t14.5 82t17.5 68l102 340h432l-231 -569h168v-168h-236l-61 -152v-32h297v-168h-297v-455z" />
    <glyph glyph-name="brokenbar" unicode="&#xa6;" horiz-adv-x="512" 
d="M139 1354h236v-512h-236v512zM139 330h236v-512h-236v512z" />
    <glyph glyph-name="section" unicode="&#xa7;" horiz-adv-x="1144" 
d="M477 807q-97 -65 -71 -168q21 -89 262 -186q97 92 73 182q-26 49 -73 78t-169 84q-14 7 -22 10zM1026 1194v-37h-287l2 33q0 68 -47.5 112t-120.5 44q-63 0 -101 -34.5t-38 -82.5q0 -25 10 -47t23 -36.5t37 -31t39 -24.5t43 -21q17 -9 126.5 -60t164.5 -81
q65 -35 111.5 -93.5t64 -107.5t18.5 -88q3 -77 -33.5 -172.5t-113.5 -163.5q51 -24 100 -95t49 -140q0 -72 -13.5 -130t-48.5 -111.5t-91.5 -90t-147 -58.5t-209.5 -24q-92 -1 -167 16t-123.5 44t-85 65t-55.5 73.5t-30.5 74.5t-14.5 62.5t-3 43.5v30h299q-4 -84 49 -134
t139 -50q67 0 114.5 35t47.5 104q0 50 -45.5 91t-159.5 96q-213 101 -280 145q-176 115 -176 297q0 88 40.5 166.5t118.5 132.5q-4 5 -18.5 22t-21 25.5t-18.5 26.5t-18 34t-13 39t-10 51t-3 60q0 164 125 265.5t348 101.5q186 0 305 -97t119 -280z" />
    <glyph glyph-name="dieresis" unicode="&#xa8;" horiz-adv-x="778" 
d="M168 1227q-70 0 -120 49.5t-50 120.5q0 66 49.5 115t116.5 49q70 0 121 -48.5t51 -119.5q0 -69 -49 -117.5t-119 -48.5zM614 1227q-70 0 -120 49.5t-50 120.5q0 66 49.5 115t116.5 49q70 0 121 -48.5t51 -119.5q0 -69 -49 -117.5t-119 -48.5z" />
    <glyph glyph-name="copyright" unicode="&#xa9;" horiz-adv-x="1699" 
d="M1067 633h188q-15 -142 -121.5 -226.5t-250.5 -84.5q-134 0 -235 61.5t-153.5 165t-52.5 233.5q0 202 119 330.5t318 128.5q147 0 249.5 -80t126.5 -223h-188q-25 135 -193 135q-118 0 -175.5 -78.5t-57.5 -203.5q0 -78 22.5 -144t76 -112t130.5 -46q76 0 134.5 38
t62.5 106zM850 -27q-136 0 -253.5 32.5t-204 90t-153 134t-107.5 167t-62 185t-21 192.5q0 115 28.5 225.5t91.5 215t154 183t227 126t300 47.5q153 0 284 -43t225 -118.5t160.5 -176.5t99 -217.5t32.5 -241.5q0 -165 -58 -311.5t-161 -255t-254 -171.5t-328 -63zM846 1376
q-269 0 -433.5 -166.5t-164.5 -435.5q0 -272 164 -439t434 -167q268 0 437 171t169 443q0 267 -168 430.5t-438 163.5z" />
    <glyph glyph-name="ordfeminine" unicode="&#xaa;" horiz-adv-x="698" 
d="M406 1241q0 53 -7 78q-11 53 -51 53q-49 0 -63 -63q-9 -39 -9 -97q0 -45 9 -73q14 -45 55 -45q46 0 57 59q9 37 9 88zM410 909l8 107l-2 -2l-4 4q-21 -55 -66.5 -89t-107.5 -34q-51 0 -91 24t-62.5 60t-37 84.5t-19.5 90.5t-5 85q0 54 10 106.5t32.5 106t68.5 86.5
t110 33q109 0 166 -115l4 2l-6 47l-2 51h264v-647h-260z" />
    <glyph glyph-name="guillemotleft" unicode="&#xab;" horiz-adv-x="1087" 
d="M428 190l-350 465l350 465l180 -135l-262 -330l262 -329zM829 190l-350 465l350 465l181 -135l-262 -330l262 -329z" />
    <glyph glyph-name="logicalnot" unicode="&#xac;" horiz-adv-x="1024" 
d="M737 248v358h-684v236h920v-594h-236z" />
    <glyph glyph-name="uni00AD" unicode="&#xad;" horiz-adv-x="657" 
d="M580 489h-502v332h502v-332z" />
    <glyph glyph-name="registered" unicode="&#xae;" horiz-adv-x="1699" 
d="M850 1571q153 0 284 -43t225 -118.5t160.5 -176.5t99 -218t32.5 -243q0 -163 -58 -309.5t-161 -254.5t-254 -171.5t-328 -63.5q-163 0 -298.5 47t-226.5 125t-154.5 182t-92.5 216t-29 229q0 95 20.5 188.5t61 183.5t107.5 167t153 135.5t204 91.5t255 33zM846 1376
q-269 0 -433.5 -167t-164.5 -437t164.5 -437t433.5 -167q268 0 437 171.5t169 440.5q0 267 -168 431.5t-438 164.5zM678 678v-342h-199v864h486q143 -5 215.5 -65.5t72.5 -200.5q0 -117 -58 -172.5t-171 -63.5l203 -362h-226l-184 342h-139zM879 1044h-201v-210h244
q133 0 133 98q0 68 -41.5 90t-134.5 22z" />
    <glyph glyph-name="macron" unicode="&#xaf;" horiz-adv-x="778" 
d="M-6 1282v217h790v-217h-790z" />
    <glyph glyph-name="degree" unicode="&#xb0;" horiz-adv-x="819" 
d="M717 1264q0 -127 -90.5 -217.5t-216.5 -90.5q-128 0 -218 90t-90 218q-1 126 89.5 216.5t218.5 90.5q126 0 216.5 -90.5t90.5 -216.5zM500 1264q0 37 -26.5 63.5t-63.5 26.5t-64 -26.5t-27 -63.5t27 -63.5t64 -26.5t63.5 26.5t26.5 63.5z" />
    <glyph glyph-name="plusminus" unicode="&#xb1;" horiz-adv-x="1024" 
d="M395 815v242h236v-242h342v-235h-342v-256h-236v256h-342v235h342zM53 -12v235h920v-235h-920z" />
    <glyph glyph-name="twosuperior" unicode="&#xb2;" horiz-adv-x="741" 
d="M696 631h-692l264 325q43 52 62 76.5t52 73.5t47.5 92t14.5 84q0 31 -15.5 56.5t-47.5 25.5q-66 0 -66 -113v-34h-264v32q0 141 94.5 231.5t245.5 90.5q141 0 229.5 -87t88.5 -218q0 -213 -256 -418l4 -4h239v-213z" />
    <glyph glyph-name="threesuperior" unicode="&#xb3;" horiz-adv-x="741" 
d="M31 905h266v-16q4 -72 65 -72q37 0 55.5 27.5t18.5 62.5q0 108 -139 97h-16v190h32q57 0 84 21t27 73q0 29 -13 52.5t-42 23.5q-21 0 -33.5 -11.5t-16 -23.5t-6.5 -31v-8h-262q9 127 98.5 204t229.5 77q128 0 218.5 -77t90.5 -194q0 -60 -32 -110.5t-89 -77.5
q135 -66 135 -219q0 -86 -49.5 -150t-126.5 -95.5t-168 -31.5q-143 0 -237 79.5t-90 209.5z" />
    <glyph glyph-name="acute" unicode="&#xb4;" horiz-adv-x="778" 
d="M207 1223l110 344h318l-203 -344h-225z" />
    <glyph glyph-name="mu" unicode="&#xb5;" horiz-adv-x="1177" 
d="M668 1081h401v-712q0 -79 -13.5 -144.5t-44 -123.5t-89.5 -91t-142 -33q-95 0 -170 67t-106 161l-4 -4l10 -164v-520h-401v1564h401v-520q0 -33 1 -54.5t5.5 -48.5t13 -43t25 -27t39.5 -11q25 0 41 12t22.5 37.5t8.5 48.5t2 60v546z" />
    <glyph glyph-name="paragraph" unicode="&#xb6;" horiz-adv-x="1126" 
d="M780 -229v1538h-135v-1538h-276v1058q-157 0 -251.5 94t-94.5 257q0 198 111.5 281t330.5 83h668v-235h-76v-1538h-277z" />
    <glyph glyph-name="periodcentered" unicode="&#xb7;" horiz-adv-x="618" 
d="M309 289q-98 0 -165.5 69t-67.5 168q0 94 67 163t158 69q101 0 172.5 -68t71.5 -170q0 -96 -69.5 -163.5t-166.5 -67.5z" />
    <glyph glyph-name="cedilla" unicode="&#xb8;" horiz-adv-x="778" 
d="M295 -70h242q-11 -114 -66.5 -200t-155.5 -121l-73 178q25 21 39 56t14 69v18z" />
    <glyph glyph-name="onesuperior" unicode="&#xb9;" horiz-adv-x="741" 
d="M518 631h-268v710h-113v215h381v-925z" />
    <glyph glyph-name="ordmasculine" unicode="&#xba;" horiz-adv-x="698" 
d="M346 895q-157 0 -241.5 95t-84.5 241q0 147 87.5 243.5t244.5 96.5q158 0 241 -97t83 -247q0 -148 -86 -240t-244 -92zM346 1075q23 0 39.5 18t23.5 46t10 51t3 43t-3 43t-10 51t-23.5 46t-39.5 18q-29 0 -46.5 -33t-21.5 -64.5t-4 -60.5t4 -60.5t21.5 -64.5t46.5 -33z
" />
    <glyph glyph-name="guillemotright" unicode="&#xbb;" horiz-adv-x="1087" 
d="M659 190l-180 136l262 329l-262 330l180 135l351 -465zM256 190l-178 136l262 329l-262 330l178 135l352 -465z" />
    <glyph glyph-name="onequarter" unicode="&#xbc;" horiz-adv-x="1855" 
d="M1382 387l4 158q0 23 3.5 66.5t3.5 52.5l-2 -2l-5 4l-157 -279h153zM1739 188h-86v-188h-271v188h-364v195l301 543h334v-539h86v-199zM414 -53l-160 114l1092 1547l167 -117zM539 631h-269v710h-112v215h381v-925z" />
    <glyph glyph-name="onehalf" unicode="&#xbd;" horiz-adv-x="1855" 
d="M383 -53l-160 114l1092 1547l168 -117zM528 631h-268v710h-113v215h381v-925zM1741 0h-692l264 326q37 44 49.5 59.5t44 59t44.5 70t25.5 64.5t12.5 72q0 31 -16 56.5t-48 25.5q-65 0 -65 -112v-35h-264v32q0 141 94.5 231.5t245.5 90.5q141 0 229 -87t88 -218
q0 -213 -256 -418l4 -4h240v-213z" />
    <glyph glyph-name="threequarters" unicode="&#xbe;" horiz-adv-x="1855" 
d="M1423 387l4 158q0 23 3.5 66.5t3.5 52.5l-2 -2l-5 4l-157 -279h153zM1780 188h-86v-188h-271v188h-364v195l301 543h334v-539h86v-199zM506 -53l-160 114l1092 1547l168 -117zM72 905h266v-16q4 -72 65 -72q37 0 55.5 27.5t18.5 62.5q0 108 -139 97h-16v190h32
q57 0 84 21t27 73q0 29 -13 52.5t-42 23.5q-21 0 -33.5 -11.5t-16 -23.5t-6.5 -31v-8h-262q9 127 98.5 204t229.5 77q128 0 218.5 -77t90.5 -194q0 -60 -32 -110.5t-89 -77.5q135 -66 135 -219q0 -86 -49.5 -150t-126.5 -95.5t-168 -31.5q-143 0 -237 79.5t-90 209.5z" />
    <glyph glyph-name="questiondown" unicode="&#xbf;" horiz-adv-x="1116" 
d="M770 588v-379l-72 2q-110 0 -164.5 -45t-54.5 -154q0 -27 3 -52t11.5 -55t28 -48.5t47.5 -18.5q88 0 88 176h402v-30q4 -217 -133.5 -353.5t-352.5 -136.5q-221 0 -363 141.5t-142 362.5q0 75 18 143t54 127t96 101t137 59v160h397zM555 702q-98 0 -165.5 69.5
t-67.5 168.5q0 94 67 162.5t158 68.5q101 0 172.5 -68t71.5 -169q0 -96 -69.5 -164t-166.5 -68z" />
    <glyph glyph-name="Agrave" unicode="&#xc0;" horiz-adv-x="1239" 
d="M1225 0h-432l-31 199h-281l-35 -199h-430l371 1544h510zM537 526h176l-45 359q-4 33 -31 291h-4q-29 -228 -39 -291zM784 1655h-223l-205 344h320z" />
    <glyph glyph-name="Aacute" unicode="&#xc1;" horiz-adv-x="1239" 
d="M1225 0h-432l-31 199h-281l-35 -199h-430l371 1544h510zM537 526h176l-45 359q-4 33 -31 291h-4q-29 -228 -39 -291zM489 1655l111 344h318l-203 -344h-226z" />
    <glyph glyph-name="Acircumflex" unicode="&#xc2;" horiz-adv-x="1239" 
d="M1225 0h-432l-31 199h-281l-35 -199h-430l371 1544h510zM537 526h176l-45 359q-4 33 -31 291h-4q-29 -228 -39 -291zM639 1853l-102 -182h-246l172 305h358l150 -305h-238z" />
    <glyph glyph-name="Atilde" unicode="&#xc3;" horiz-adv-x="1239" 
d="M1225 0h-432l-31 199h-281l-35 -199h-430l371 1544h510zM537 526h176l-45 359q-4 33 -31 291h-4q-29 -228 -39 -291zM809 1978h207v-34q0 -113 -65.5 -194t-176.5 -81q-54 0 -107 19.5t-95.5 39t-71.5 19.5q-31 0 -46.5 -24.5t-15.5 -57.5h-211q-8 123 55 215t183 92
q24 0 45.5 -3t49 -12t37.5 -13t46 -19q4 -2 19 -8.5t21.5 -9t18 -6.5t21.5 -5.5t20 -1.5q62 0 66 84z" />
    <glyph glyph-name="Adieresis" unicode="&#xc4;" horiz-adv-x="1239" 
d="M1225 0h-432l-31 199h-281l-35 -199h-430l371 1544h510zM537 526h176l-45 359q-4 33 -31 291h-4q-29 -228 -39 -291zM420 1659q-70 0 -120 49.5t-50 120.5q0 66 49.5 115t116.5 49q70 0 121 -48.5t51 -119.5q0 -69 -49 -117.5t-119 -48.5zM866 1659q-70 0 -120 49.5
t-50 120.5q0 66 49.5 115t116.5 49q70 0 121 -48.5t51 -119.5q0 -69 -49 -117.5t-119 -48.5z" />
    <glyph glyph-name="Aring" unicode="&#xc5;" horiz-adv-x="1239" 
d="M1225 0h-432l-31 199h-281l-35 -199h-430l371 1544h510zM537 526h176l-45 359q-4 33 -31 291h-4q-29 -228 -39 -291zM627 2046q96 0 161.5 -64t65.5 -159q0 -93 -65 -158.5t-158 -65.5q-90 0 -156.5 65.5t-66.5 156.5q0 92 64 158.5t155 66.5zM631 1729q40 0 67 28t27 68
q0 38 -27 65t-65 27q-39 0 -67.5 -27t-28.5 -65q0 -40 27 -68t67 -28z" />
    <glyph glyph-name="AE" unicode="&#xc6;" horiz-adv-x="1449" 
d="M532 518h173l-56 434q-5 44 -11.5 115.5t-10.5 103.5h-4q-2 -18 -10 -93.5t-15 -125.5zM776 0l-26 197h-269l-32 -197h-433l357 1544h999v-364h-416l33 -215h350v-365h-286l41 -235h278v-365h-596z" />
    <glyph glyph-name="Ccedilla" unicode="&#xc7;" horiz-adv-x="1093" 
d="M969 1534v-442q-49 47 -91.5 68.5t-103.5 21.5q-62 0 -111 -26.5t-78 -68t-48 -98t-26 -109.5t-7 -108q0 -74 12 -141t40 -130.5t82 -101t128 -37.5q66 0 115 24t106 75l-24 -432q-127 -56 -252 -56q-130 0 -243.5 50t-201 145.5t-138 248.5t-50.5 345q0 143 27 262.5
t71.5 201t105 145t122 100.5t129.5 60.5t121 31.5t102 8q120 0 213 -37zM518 -70h242q-11 -114 -66 -200t-155 -121l-74 178q25 21 39 56t14 69v18z" />
    <glyph glyph-name="Egrave" unicode="&#xc8;" horiz-adv-x="1021" 
d="M123 0v1544h776v-364h-358v-215h321v-365h-321v-235h358v-365h-776zM676 1655h-223l-205 344h319z" />
    <glyph glyph-name="Eacute" unicode="&#xc9;" horiz-adv-x="1021" 
d="M123 0v1544h776v-364h-358v-215h321v-365h-321v-235h358v-365h-776zM360 1655l111 344h317l-202 -344h-226z" />
    <glyph glyph-name="Ecircumflex" unicode="&#xca;" horiz-adv-x="1021" 
d="M123 0v1544h776v-364h-358v-215h321v-365h-321v-235h358v-365h-776zM520 1853l-102 -182h-246l172 305h358l150 -305h-238z" />
    <glyph glyph-name="Edieresis" unicode="&#xcb;" horiz-adv-x="1021" 
d="M123 0v1544h776v-364h-358v-215h321v-365h-321v-235h358v-365h-776zM291 1659q-71 0 -120.5 49.5t-49.5 120.5q0 66 49.5 115t116.5 49q70 0 121 -48.5t51 -119.5q0 -69 -49 -117.5t-119 -48.5zM737 1659q-71 0 -120.5 49.5t-49.5 120.5q0 66 49.5 115t116.5 49
q70 0 121 -48.5t51 -119.5q0 -69 -49 -117.5t-119 -48.5z" />
    <glyph glyph-name="Igrave" unicode="&#xcc;" horiz-adv-x="663" 
d="M541 0h-418v1544h418v-1544zM496 1655h-224l-204 344h319z" />
    <glyph glyph-name="Iacute" unicode="&#xcd;" horiz-adv-x="663" 
d="M541 0h-418v1544h418v-1544zM150 1655l110 344h318l-203 -344h-225z" />
    <glyph glyph-name="Icircumflex" unicode="&#xce;" horiz-adv-x="663" 
d="M541 0h-418v1544h418v-1544zM340 1853l-102 -182h-246l172 305h358l150 -305h-238z" />
    <glyph glyph-name="Idieresis" unicode="&#xcf;" horiz-adv-x="663" 
d="M541 0h-418v1544h418v-1544zM111 1659q-71 0 -120.5 49.5t-49.5 120.5q0 66 49 115t116 49q70 0 121.5 -48.5t51.5 -119.5q0 -69 -49 -117.5t-119 -48.5zM557 1659q-71 0 -120.5 49.5t-49.5 120.5q0 66 49.5 115t116.5 49q70 0 121 -48.5t51 -119.5q0 -69 -49 -117.5
t-119 -48.5z" />
    <glyph glyph-name="Eth" unicode="&#xd0;" horiz-adv-x="1280" 
d="M135 0v600h-123v365h123v579h336q351 0 541 -205t190 -561q0 -148 -26 -267.5t-68 -199t-103 -138.5t-121 -91.5t-134.5 -51.5t-130 -24.5t-119.5 -5.5h-365zM553 1159v-786q46 0 82.5 18.5t60 50.5t40 69.5t25 83t12 84.5t3.5 79q0 48 -4.5 96.5t-19.5 107.5t-38 102
t-65 71t-96 24z" />
    <glyph glyph-name="Ntilde" unicode="&#xd1;" horiz-adv-x="1335" 
d="M123 0v1544h397l334 -930l4 4q-5 58 -18.5 167.5t-21 198t-7.5 167.5v393h401v-1544h-401l-311 891l-4 -4q3 -44 11 -135.5t12.5 -162.5t4.5 -136v-453h-401zM856 1978h207v-34q0 -113 -65.5 -194t-176.5 -81q-54 0 -107 19.5t-95.5 39t-71.5 19.5q-31 0 -46.5 -24.5
t-15.5 -57.5h-211q-8 123 55 215t183 92q24 0 45.5 -3t49 -12t37.5 -13t46 -19q73 -31 101 -31q61 0 65 84z" />
    <glyph glyph-name="Ograve" unicode="&#xd2;" horiz-adv-x="1333" 
d="M76 772q0 97 14.5 190.5t44 184t78 166.5t112 134t151 91t190.5 33q123 0 223.5 -47t167.5 -125.5t112.5 -183t65.5 -215.5t20 -228t-20 -228t-65.5 -215.5t-112.5 -183t-167.5 -125.5t-223.5 -47q-103 0 -190.5 33t-151 91t-112 134t-78 166.5t-44 184t-14.5 190.5z
M502 772q0 -28 0.5 -53.5t4.5 -69t10 -79.5t18.5 -76.5t29 -68t43 -45.5t58.5 -18t58.5 18.5t43 45.5t29 67.5t18.5 76t9.5 79.5t4 69.5t0.5 53.5t-0.5 53.5t-4 69.5t-9.5 79.5t-18.5 76t-29 67.5t-43 45.5t-58.5 18.5t-58.5 -18t-43 -45.5t-29 -68t-18.5 -76.5t-10 -79.5
t-4.5 -69t-0.5 -53.5zM780 1655h-223l-205 344h320z" />
    <glyph glyph-name="Oacute" unicode="&#xd3;" horiz-adv-x="1333" 
d="M76 772q0 97 14.5 190.5t44 184t78 166.5t112 134t151 91t190.5 33q123 0 223.5 -47t167.5 -125.5t112.5 -183t65.5 -215.5t20 -228t-20 -228t-65.5 -215.5t-112.5 -183t-167.5 -125.5t-223.5 -47q-103 0 -190.5 33t-151 91t-112 134t-78 166.5t-44 184t-14.5 190.5z
M502 772q0 -28 0.5 -53.5t4.5 -69t10 -79.5t18.5 -76.5t29 -68t43 -45.5t58.5 -18t58.5 18.5t43 45.5t29 67.5t18.5 76t9.5 79.5t4 69.5t0.5 53.5t-0.5 53.5t-4 69.5t-9.5 79.5t-18.5 76t-29 67.5t-43 45.5t-58.5 18.5t-58.5 -18t-43 -45.5t-29 -68t-18.5 -76.5t-10 -79.5
t-4.5 -69t-0.5 -53.5zM537 1655l110 344h318l-203 -344h-225z" />
    <glyph glyph-name="Ocircumflex" unicode="&#xd4;" horiz-adv-x="1333" 
d="M76 772q0 97 14.5 190.5t44 184t78 166.5t112 134t151 91t190.5 33q123 0 223.5 -47t167.5 -125.5t112.5 -183t65.5 -215.5t20 -228t-20 -228t-65.5 -215.5t-112.5 -183t-167.5 -125.5t-223.5 -47q-103 0 -190.5 33t-151 91t-112 134t-78 166.5t-44 184t-14.5 190.5z
M502 772q0 -28 0.5 -53.5t4.5 -69t10 -79.5t18.5 -76.5t29 -68t43 -45.5t58.5 -18t58.5 18.5t43 45.5t29 67.5t18.5 76t9.5 79.5t4 69.5t0.5 53.5t-0.5 53.5t-4 69.5t-9.5 79.5t-18.5 76t-29 67.5t-43 45.5t-58.5 18.5t-58.5 -18t-43 -45.5t-29 -68t-18.5 -76.5t-10 -79.5
t-4.5 -69t-0.5 -53.5zM676 1853l-103 -182h-245l172 305h358l150 -305h-238z" />
    <glyph glyph-name="Otilde" unicode="&#xd5;" horiz-adv-x="1333" 
d="M76 772q0 97 14.5 190.5t44 184t78 166.5t112 134t151 91t190.5 33q123 0 223.5 -47t167.5 -125.5t112.5 -183t65.5 -215.5t20 -228t-20 -228t-65.5 -215.5t-112.5 -183t-167.5 -125.5t-223.5 -47q-103 0 -190.5 33t-151 91t-112 134t-78 166.5t-44 184t-14.5 190.5z
M502 772q0 -28 0.5 -53.5t4.5 -69t10 -79.5t18.5 -76.5t29 -68t43 -45.5t58.5 -18t58.5 18.5t43 45.5t29 67.5t18.5 76t9.5 79.5t4 69.5t0.5 53.5t-0.5 53.5t-4 69.5t-9.5 79.5t-18.5 76t-29 67.5t-43 45.5t-58.5 18.5t-58.5 -18t-43 -45.5t-29 -68t-18.5 -76.5t-10 -79.5
t-4.5 -69t-0.5 -53.5zM856 1978h207v-34q0 -113 -65.5 -194t-176.5 -81q-54 0 -107 19.5t-95.5 39t-71.5 19.5q-31 0 -46.5 -24.5t-15.5 -57.5h-211q-8 123 55 215t183 92q24 0 45.5 -3t49 -12t37.5 -13t46 -19q73 -31 101 -31q61 0 65 84z" />
    <glyph glyph-name="Odieresis" unicode="&#xd6;" horiz-adv-x="1333" 
d="M76 772q0 97 14.5 190.5t44 184t78 166.5t112 134t151 91t190.5 33q123 0 223.5 -47t167.5 -125.5t112.5 -183t65.5 -215.5t20 -228t-20 -228t-65.5 -215.5t-112.5 -183t-167.5 -125.5t-223.5 -47q-103 0 -190.5 33t-151 91t-112 134t-78 166.5t-44 184t-14.5 190.5z
M502 772q0 -28 0.5 -53.5t4.5 -69t10 -79.5t18.5 -76.5t29 -68t43 -45.5t58.5 -18t58.5 18.5t43 45.5t29 67.5t18.5 76t9.5 79.5t4 69.5t0.5 53.5t-0.5 53.5t-4 69.5t-9.5 79.5t-18.5 76t-29 67.5t-43 45.5t-58.5 18.5t-58.5 -18t-43 -45.5t-29 -68t-18.5 -76.5t-10 -79.5
t-4.5 -69t-0.5 -53.5zM446 1659q-70 0 -120 49.5t-50 120.5q0 66 49.5 115t116.5 49q70 0 121 -48.5t51 -119.5q0 -69 -49 -117.5t-119 -48.5zM893 1659q-71 0 -120.5 49.5t-49.5 120.5q0 66 49.5 115t116.5 49q70 0 121 -48.5t51 -119.5q0 -69 -49 -117.5t-119 -48.5z" />
    <glyph glyph-name="multiply" unicode="&#xd7;" horiz-adv-x="1024" 
d="M346 524l-278 279l168 166l276 -279l279 279l165 -166l-276 -279l276 -278l-165 -166l-279 278l-276 -278l-168 166z" />
    <glyph glyph-name="Oslash" unicode="&#xd8;" horiz-adv-x="1333" 
d="M662 348q45 0 79 34t51.5 81.5t28.5 109.5t14 106t3 83v92h-4l-279 -414q9 -38 39 -65t68 -27zM659 1196q-165 0 -165 -463v-43h4l272 410q-11 42 -41 69t-70 27zM1137 1569l151 -105l-137 -198q104 -218 104 -494q0 -117 -20 -228t-65.5 -215.5t-112.5 -183
t-167.5 -125.5t-223.5 -47q-214 0 -365 138l-108 -158l-150 102l143 213q-110 212 -110 504q0 97 14.5 190.5t44 184t78 166.5t112 134t151 91t190.5 33q209 0 368 -152z" />
    <glyph glyph-name="Ugrave" unicode="&#xd9;" horiz-adv-x="1273" 
d="M743 1544h418v-1009q0 -47 -3.5 -90t-16 -102t-34 -107.5t-61.5 -99t-93.5 -85t-134.5 -56.5t-181 -22t-181 22t-134.5 56.5t-93.5 85t-61.5 99t-34 107.5t-16 102t-3.5 90v1009h417v-971q0 -97 11 -135q21 -76 96 -76q78 0 96 74q10 36 10 135v973zM750 1655h-224
l-204 344h319z" />
    <glyph glyph-name="Uacute" unicode="&#xda;" horiz-adv-x="1273" 
d="M743 1544h418v-1009q0 -47 -3.5 -90t-16 -102t-34 -107.5t-61.5 -99t-93.5 -85t-134.5 -56.5t-181 -22t-181 22t-134.5 56.5t-93.5 85t-61.5 99t-34 107.5t-16 102t-3.5 90v1009h417v-971q0 -97 11 -135q21 -76 96 -76q78 0 96 74q10 36 10 135v973zM506 1655l110 344
h318l-203 -344h-225z" />
    <glyph glyph-name="Ucircumflex" unicode="&#xdb;" horiz-adv-x="1273" 
d="M743 1544h418v-1009q0 -47 -3.5 -90t-16 -102t-34 -107.5t-61.5 -99t-93.5 -85t-134.5 -56.5t-181 -22t-181 22t-134.5 56.5t-93.5 85t-61.5 99t-34 107.5t-16 102t-3.5 90v1009h417v-971q0 -97 11 -135q21 -76 96 -76q78 0 96 74q10 36 10 135v973zM645 1853l-102 -182
h-246l172 305h358l150 -305h-238z" />
    <glyph glyph-name="Udieresis" unicode="&#xdc;" horiz-adv-x="1273" 
d="M743 1544h418v-1009q0 -47 -3.5 -90t-16 -102t-34 -107.5t-61.5 -99t-93.5 -85t-134.5 -56.5t-181 -22t-181 22t-134.5 56.5t-93.5 85t-61.5 99t-34 107.5t-16 102t-3.5 90v1009h417v-971q0 -97 11 -135q21 -76 96 -76q78 0 96 74q10 36 10 135v973zM416 1659
q-70 0 -120 49.5t-50 120.5q0 66 49.5 115t116.5 49q70 0 121 -48.5t51 -119.5q0 -69 -49 -117.5t-119 -48.5zM862 1659q-70 0 -120 49.5t-50 120.5q0 66 49.5 115t116.5 49q70 0 121 -48.5t51 -119.5q0 -69 -49 -117.5t-119 -48.5z" />
    <glyph glyph-name="Yacute" unicode="&#xdd;" horiz-adv-x="1189" 
d="M815 0h-418v655l-381 889h435l143 -477h4l145 477h433l-361 -889v-655zM465 1655l110 344h318l-203 -344h-225z" />
    <glyph glyph-name="Thorn" unicode="&#xde;" horiz-adv-x="1196" 
d="M541 0h-418v1544h418v-205q103 0 189.5 -15t165.5 -52.5t134 -96t87 -150.5t32 -210t-29 -208t-80.5 -149t-128.5 -95.5t-167.5 -50.5t-202.5 -11v-301zM541 1001v-352q87 -5 136.5 40.5t49.5 131.5q0 75 -41.5 129t-114.5 54z" />
    <glyph glyph-name="germandbls" unicode="&#xdf;" horiz-adv-x="1255" 
d="M172 0v760h-111v321h111q0 123 15.5 208.5t68.5 160.5q65 96 173.5 150.5t227.5 54.5q122 0 230.5 -52t178 -150.5t69.5 -221.5q0 -112 -54.5 -203.5t-156.5 -109.5v-5q66 -4 119.5 -41t85 -92.5t48.5 -118.5t17 -126q0 -155 -62 -281.5t-181.5 -202.5t-274.5 -76v344
q104 18 104 211q0 33 -4 66t-14.5 69t-32.5 62t-53 33v321q78 21 78 113q0 41 -23.5 71.5t-64.5 30.5q-26 0 -44.5 -10t-28 -23t-14.5 -37t-5.5 -39.5t-0.5 -41.5v-1145h-401z" />
    <glyph glyph-name="agrave" unicode="&#xe0;" horiz-adv-x="1165" 
d="M557 309q67 0 86 99q12 55 12 147t-8 131q-19 88 -78 88q-62 0 -84 -108q-10 -57 -10 -160q0 -71 12 -123q18 -74 70 -74zM1057 1081v-1081h-402l19 178l-4 4q-41 -92 -112 -148.5t-165 -56.5q-80 0 -141.5 40t-96.5 100.5t-57 141.5t-29.5 150.5t-7.5 141.5
q0 58 6.5 115.5t20.5 122t40 119.5t62 100t90.5 70.5t120.5 25.5q168 0 261 -193l4 4l-17 166h408zM748 1223h-224l-205 344h320z" />
    <glyph glyph-name="aacute" unicode="&#xe1;" horiz-adv-x="1165" 
d="M557 309q67 0 86 99q12 55 12 147t-8 131q-19 88 -78 88q-62 0 -84 -108q-10 -57 -10 -160q0 -71 12 -123q18 -74 70 -74zM1057 1081v-1081h-402l19 178l-4 4q-41 -92 -112 -148.5t-165 -56.5q-80 0 -141.5 40t-96.5 100.5t-57 141.5t-29.5 150.5t-7.5 141.5
q0 58 6.5 115.5t20.5 122t40 119.5t62 100t90.5 70.5t120.5 25.5q168 0 261 -193l4 4l-17 166h408zM453 1223l110 344h318l-203 -344h-225z" />
    <glyph glyph-name="acircumflex" unicode="&#xe2;" horiz-adv-x="1165" 
d="M557 309q67 0 86 99q12 55 12 147t-8 131q-19 88 -78 88q-62 0 -84 -108q-10 -57 -10 -160q0 -71 12 -123q18 -74 70 -74zM1057 1081v-1081h-402l19 178l-4 4q-41 -92 -112 -148.5t-165 -56.5q-80 0 -141.5 40t-96.5 100.5t-57 141.5t-29.5 150.5t-7.5 141.5
q0 58 6.5 115.5t20.5 122t40 119.5t62 100t90.5 70.5t120.5 25.5q168 0 261 -193l4 4l-17 166h408zM592 1421l-103 -182h-245l172 305h358l150 -305h-238z" />
    <glyph glyph-name="atilde" unicode="&#xe3;" horiz-adv-x="1165" 
d="M557 309q67 0 86 99q12 55 12 147t-8 131q-19 88 -78 88q-62 0 -84 -108q-10 -57 -10 -160q0 -71 12 -123q18 -74 70 -74zM1057 1081v-1081h-402l19 178l-4 4q-41 -92 -112 -148.5t-165 -56.5q-80 0 -141.5 40t-96.5 100.5t-57 141.5t-29.5 150.5t-7.5 141.5
q0 58 6.5 115.5t20.5 122t40 119.5t62 100t90.5 70.5t120.5 25.5q168 0 261 -193l4 4l-17 166h408zM772 1546h207v-35q0 -113 -65.5 -193.5t-176.5 -80.5q-54 0 -107 19.5t-95.5 39t-71.5 19.5q-31 0 -46.5 -24.5t-15.5 -57.5h-211q-8 123 55 215t183 92q24 0 45.5 -3
t49 -12t37.5 -13t46 -19q73 -31 101 -31q61 0 65 84z" />
    <glyph glyph-name="adieresis" unicode="&#xe4;" horiz-adv-x="1165" 
d="M557 309q67 0 86 99q12 55 12 147t-8 131q-19 88 -78 88q-62 0 -84 -108q-10 -57 -10 -160q0 -71 12 -123q18 -74 70 -74zM1057 1081v-1081h-402l19 178l-4 4q-41 -92 -112 -148.5t-165 -56.5q-80 0 -141.5 40t-96.5 100.5t-57 141.5t-29.5 150.5t-7.5 141.5
q0 58 6.5 115.5t20.5 122t40 119.5t62 100t90.5 70.5t120.5 25.5q168 0 261 -193l4 4l-17 166h408zM362 1227q-70 0 -119.5 49.5t-49.5 120.5q0 66 49 115t116 49q70 0 121 -48.5t51 -119.5q0 -69 -49 -117.5t-119 -48.5zM809 1227q-71 0 -120.5 49.5t-49.5 120.5
q0 66 49.5 115t116.5 49q70 0 121 -48.5t51 -119.5q0 -69 -49 -117.5t-119 -48.5z" />
    <glyph glyph-name="aring" unicode="&#xe5;" horiz-adv-x="1165" 
d="M557 309q67 0 86 99q12 55 12 147t-8 131q-19 88 -78 88q-62 0 -84 -108q-10 -57 -10 -160q0 -71 12 -123q18 -74 70 -74zM1057 1081v-1081h-402l19 178l-4 4q-41 -92 -112 -148.5t-165 -56.5q-80 0 -141.5 40t-96.5 100.5t-57 141.5t-29.5 150.5t-7.5 141.5
q0 58 6.5 115.5t20.5 122t40 119.5t62 100t90.5 70.5t120.5 25.5q168 0 261 -193l4 4l-17 166h408zM580 1614q96 0 161.5 -64t65.5 -159q0 -93 -65.5 -158.5t-157.5 -65.5q-90 0 -157 65.5t-67 156.5q0 92 64.5 158.5t155.5 66.5zM584 1296q39 0 66.5 28.5t27.5 68.5
q0 38 -27 65t-65 27q-39 0 -68 -27t-29 -65q0 -40 27.5 -68.5t67.5 -28.5z" />
    <glyph glyph-name="ae" unicode="&#xe6;" horiz-adv-x="1699" 
d="M1049 674h186q-2 54 -24.5 95.5t-71.5 41.5q-46 0 -69 -43.5t-21 -93.5zM1638 457h-589v-23q10 -143 94 -143q33 0 57.5 21.5t30.5 54.5h393q-33 -184 -162.5 -287t-314.5 -103q-100 0 -175.5 25t-150.5 86q-162 -111 -350 -111q-108 0 -201 44.5t-151 130.5t-58 196
q0 168 110.5 258t283.5 90q97 0 204 -22q-4 37 -24 64t-50.5 41t-63.5 20t-70 6q-150 0 -271 -62v314q177 47 328 47q213 0 328 -107q143 107 321 107q120 0 214.5 -48t151.5 -130t86 -184t29 -218v-67zM559 252q46 0 74.5 25t28.5 71t-29.5 70t-77.5 24q-44 0 -73 -26
t-29 -70q0 -45 29.5 -69.5t76.5 -24.5z" />
    <glyph glyph-name="ccedilla" unicode="&#xe7;" horiz-adv-x="749" 
d="M655 352v-366q-14 -1 -50.5 -5t-57.5 -4q-113 0 -206.5 48t-153.5 128t-93 181t-33 211q0 149 61.5 276t179.5 205t269 78q26 0 84 -4v-350q-88 -4 -134 -56.5t-46 -140.5q0 -73 41.5 -137t112.5 -64h26zM322 -70h241q-11 -114 -66 -200t-155 -121l-74 178q25 21 39.5 56
t14.5 69v18z" />
    <glyph glyph-name="egrave" unicode="&#xe8;" horiz-adv-x="1114" 
d="M463 674h186q-2 54 -24.5 95.5t-71.5 41.5q-46 0 -69 -43.5t-21 -93.5zM645 367h393q-33 -184 -162.5 -287t-314.5 -103q-243 0 -371.5 148.5t-128.5 394.5q0 117 33.5 221.5t96.5 186t161 129t219 47.5q235 0 365 -176q71 -96 94 -207.5t23 -263.5h-590q0 -166 94 -166
q33 0 57.5 21.5t30.5 54.5zM670 1223h-224l-204 344h319z" />
    <glyph glyph-name="eacute" unicode="&#xe9;" horiz-adv-x="1114" 
d="M463 674h186q-2 54 -24.5 95.5t-71.5 41.5q-46 0 -69 -43.5t-21 -93.5zM645 367h393q-33 -184 -162.5 -287t-314.5 -103q-243 0 -371.5 148.5t-128.5 394.5q0 117 33.5 221.5t96.5 186t161 129t219 47.5q235 0 365 -176q71 -96 94 -207.5t23 -263.5h-590q0 -166 94 -166
q33 0 57.5 21.5t30.5 54.5zM426 1223l111 344h317l-203 -344h-225z" />
    <glyph glyph-name="ecircumflex" unicode="&#xea;" horiz-adv-x="1114" 
d="M463 674h186q-2 54 -24.5 95.5t-71.5 41.5q-46 0 -69 -43.5t-21 -93.5zM645 367h393q-33 -184 -162.5 -287t-314.5 -103q-243 0 -371.5 148.5t-128.5 394.5q0 117 33.5 221.5t96.5 186t161 129t219 47.5q235 0 365 -176q71 -96 94 -207.5t23 -263.5h-590q0 -166 94 -166
q33 0 57.5 21.5t30.5 54.5zM565 1421l-102 -182h-246l172 305h359l149 -305h-238z" />
    <glyph glyph-name="edieresis" unicode="&#xeb;" horiz-adv-x="1114" 
d="M463 674h186q-2 54 -24.5 95.5t-71.5 41.5q-46 0 -69 -43.5t-21 -93.5zM645 367h393q-33 -184 -162.5 -287t-314.5 -103q-243 0 -371.5 148.5t-128.5 394.5q0 117 33.5 221.5t96.5 186t161 129t219 47.5q235 0 365 -176q71 -96 94 -207.5t23 -263.5h-590q0 -166 94 -166
q33 0 57.5 21.5t30.5 54.5zM336 1227q-70 0 -120 49.5t-50 120.5q0 66 49.5 115t116.5 49q70 0 121 -48.5t51 -119.5q0 -69 -49 -117.5t-119 -48.5zM782 1227q-70 0 -120 49.5t-50 120.5q0 66 49.5 115t116.5 49q70 0 121 -48.5t51 -119.5q0 -69 -49 -117.5t-119 -48.5z" />
    <glyph glyph-name="igrave" unicode="&#xec;" horiz-adv-x="618" 
d="M510 0h-401v1081h401v-1081zM442 1223h-223l-205 344h320z" />
    <glyph glyph-name="iacute" unicode="&#xed;" horiz-adv-x="618" 
d="M510 0h-401v1081h401v-1081zM158 1223l110 344h318l-203 -344h-225z" />
    <glyph glyph-name="icircumflex" unicode="&#xee;" horiz-adv-x="618" 
d="M510 0h-401v1081h401v-1081zM317 1421l-102 -182h-246l172 305h359l149 -305h-237z" />
    <glyph glyph-name="idieresis" unicode="&#xef;" horiz-adv-x="618" 
d="M510 0h-401v1081h401v-1081zM88 1227q-70 0 -120 49.5t-50 120.5q0 66 49.5 115t116.5 49q70 0 121 -48.5t51 -119.5q0 -69 -49 -117.5t-119 -48.5zM535 1227q-71 0 -120.5 49.5t-49.5 120.5q0 66 49 115t116 49q70 0 121 -48.5t51 -119.5q0 -69 -48.5 -117.5
t-118.5 -48.5z" />
    <glyph glyph-name="eth" unicode="&#xf0;" horiz-adv-x="1128" 
d="M567 279q34 0 59 30t36 76.5t15.5 85t4.5 70.5q0 282 -117 282q-110 0 -110 -282q0 -33 4 -71t14.5 -84.5t35 -76.5t58.5 -30zM569 1544l156 86l102 -123l-151 -82q93 -105 158 -194.5t124 -201.5t86.5 -237t22.5 -262q-4 -117 -37 -215.5t-94 -175t-158 -119.5t-219 -43
q-121 0 -217 44t-157 121.5t-92.5 178.5t-31.5 218q2 120 32.5 221t89.5 178.5t156 116t222 26.5q-64 108 -147 197l-152 -86l-94 127l143 82q-14 17 -79.5 75.5t-71.5 67.5l268 131q66 -53 141 -131z" />
    <glyph glyph-name="ntilde" unicode="&#xf1;" horiz-adv-x="1177" 
d="M510 1081l-10 -200l4 -4q31 94 106 160.5t170 66.5q67 0 118.5 -22.5t83 -59t52 -88.5t28 -105.5t7.5 -115.5v-713h-401v547q0 40 -2 64.5t-9 48t-22.5 34.5t-40.5 11q-28 0 -45.5 -12t-25.5 -40t-10.5 -56.5t-2.5 -76.5v-520h-401v1081h401zM778 1546h207v-35
q0 -113 -65.5 -193.5t-176.5 -80.5q-54 0 -107 19.5t-95.5 39t-71.5 19.5q-31 0 -46 -24t-15 -58h-211q-8 124 54.5 215.5t182.5 91.5q24 0 45.5 -3t49 -12t37.5 -13t46 -19q73 -31 101 -31q61 0 65 84z" />
    <glyph glyph-name="ograve" unicode="&#xf2;" horiz-adv-x="1130" 
d="M565 1104q126 0 224 -45t158.5 -123.5t91 -178.5t30.5 -216t-31 -216.5t-91 -179t-158 -123.5t-224 -45t-224 45t-158 123.5t-91 179t-31 216.5t30.5 216t91 178.5t158.5 123.5t224 45zM565 803q-110 0 -110 -262t110 -262q111 0 111 262t-111 262zM688 1223h-223
l-205 344h320z" />
    <glyph glyph-name="oacute" unicode="&#xf3;" horiz-adv-x="1130" 
d="M565 1104q126 0 224 -45t158.5 -123.5t91 -178.5t30.5 -216t-31 -216.5t-91 -179t-158 -123.5t-224 -45t-224 45t-158 123.5t-91 179t-31 216.5t30.5 216t91 178.5t158.5 123.5t224 45zM565 803q-110 0 -110 -262t110 -262q111 0 111 262t-111 262zM424 1223l111 344h317
l-203 -344h-225z" />
    <glyph glyph-name="ocircumflex" unicode="&#xf4;" horiz-adv-x="1130" 
d="M565 1104q126 0 224 -45t158.5 -123.5t91 -178.5t30.5 -216t-31 -216.5t-91 -179t-158 -123.5t-224 -45t-224 45t-158 123.5t-91 179t-31 216.5t30.5 216t91 178.5t158.5 123.5t224 45zM565 803q-110 0 -110 -262t110 -262q111 0 111 262t-111 262zM573 1421l-102 -182
h-246l172 305h359l149 -305h-237z" />
    <glyph glyph-name="otilde" unicode="&#xf5;" horiz-adv-x="1130" 
d="M565 1104q126 0 224 -45t158.5 -123.5t91 -178.5t30.5 -216t-31 -216.5t-91 -179t-158 -123.5t-224 -45t-224 45t-158 123.5t-91 179t-31 216.5t30.5 216t91 178.5t158.5 123.5t224 45zM565 803q-110 0 -110 -262t110 -262q111 0 111 262t-111 262zM754 1546h207v-35
q0 -113 -65.5 -193.5t-176.5 -80.5q-54 0 -107 19.5t-96 39t-72 19.5q-31 0 -46 -24t-15 -58h-211q-8 123 55 215t183 92q24 0 45.5 -3t49 -12t37.5 -13t46 -19q4 -2 19 -8.5t21.5 -9t18 -6.5t21.5 -5.5t20 -1.5q62 0 66 84z" />
    <glyph glyph-name="odieresis" unicode="&#xf6;" horiz-adv-x="1130" 
d="M565 1104q126 0 224 -45t158.5 -123.5t91 -178.5t30.5 -216t-31 -216.5t-91 -179t-158 -123.5t-224 -45t-224 45t-158 123.5t-91 179t-31 216.5t30.5 216t91 178.5t158.5 123.5t224 45zM565 803q-110 0 -110 -262t110 -262q111 0 111 262t-111 262zM344 1227
q-70 0 -120 49.5t-50 120.5q0 66 49.5 115t116.5 49q70 0 121 -48.5t51 -119.5q0 -69 -49 -117.5t-119 -48.5zM791 1227q-71 0 -120.5 49.5t-49.5 120.5q0 66 49 115t116 49q70 0 121 -48.5t51 -119.5q0 -69 -48.5 -117.5t-118.5 -48.5z" />
    <glyph glyph-name="divide" unicode="&#xf7;" horiz-adv-x="1024" 
d="M53 406v235h920v-235h-920zM350 1020h326v-236h-326v236zM350 262h326v-235h-326v235z" />
    <glyph glyph-name="oslash" unicode="&#xf8;" horiz-adv-x="1130" 
d="M565 803q-110 0 -110 -262t110 -262q111 0 111 262t-111 262zM1073 1085l-121 -155q117 -147 117 -389q0 -116 -31 -216.5t-91 -179t-158 -123.5t-224 -45q-131 0 -235 52l-113 -152l-151 127l110 143q-57 71 -86 176t-29 218q0 116 30.5 216t91 178.5t158.5 123.5
t224 45q136 0 236 -53l112 157z" />
    <glyph glyph-name="ugrave" unicode="&#xf9;" horiz-adv-x="1157" 
d="M98 1081h402v-581q0 -106 14.5 -146.5t63.5 -40.5q51 0 65 40t14 147v581h402v-637q0 -233 -126.5 -350t-354.5 -117q-232 0 -356 122t-124 345v637zM713 1223h-224l-204 344h319z" />
    <glyph glyph-name="uacute" unicode="&#xfa;" horiz-adv-x="1157" 
d="M98 1081h402v-581q0 -106 14.5 -146.5t63.5 -40.5q51 0 65 40t14 147v581h402v-637q0 -233 -126.5 -350t-354.5 -117q-232 0 -356 122t-124 345v637zM428 1223l111 344h317l-203 -344h-225z" />
    <glyph glyph-name="ucircumflex" unicode="&#xfb;" horiz-adv-x="1157" 
d="M98 1081h402v-581q0 -106 14.5 -146.5t63.5 -40.5q51 0 65 40t14 147v581h402v-637q0 -233 -126.5 -350t-354.5 -117q-232 0 -356 122t-124 345v637zM588 1421l-103 -182h-245l172 305h358l150 -305h-238z" />
    <glyph glyph-name="udieresis" unicode="&#xfc;" horiz-adv-x="1157" 
d="M98 1081h402v-581q0 -106 14.5 -146.5t63.5 -40.5q51 0 65 40t14 147v581h402v-637q0 -233 -126.5 -350t-354.5 -117q-232 0 -356 122t-124 345v637zM358 1227q-70 0 -120 49.5t-50 120.5q0 66 49.5 115t116.5 49q70 0 121 -48.5t51 -119.5q0 -69 -49 -117.5t-119 -48.5z
M805 1227q-71 0 -120.5 49.5t-49.5 120.5q0 66 49.5 115t116.5 49q70 0 121 -48.5t51 -119.5q0 -69 -49 -117.5t-119 -48.5z" />
    <glyph glyph-name="yacute" unicode="&#xfd;" horiz-adv-x="1118" 
d="M584 -483h-416l184 528l-321 1036h403l78 -372q8 -40 23.5 -121t23.5 -121h4q4 25 16.5 110.5t22.5 131.5l84 372h401zM438 1223l111 344h317l-202 -344h-226z" />
    <glyph glyph-name="thorn" unicode="&#xfe;" horiz-adv-x="1161" 
d="M1100 541q0 -58 -6.5 -116.5t-20.5 -124t-40 -121.5t-62 -102.5t-90.5 -73t-120.5 -26.5q-159 0 -256 170l-4 -4l6 -77l4 -123v-426h-401v1978h401v-383q0 -32 -10 -180l4 -4q76 176 244 176q79 0 141.5 -38t101 -97t64 -136.5t35.5 -149.5t10 -142zM588 315
q32 0 53.5 28.5t30 74t11.5 77.5t3 64q0 28 -3.5 59t-12.5 69t-30 62.5t-50 24.5q-30 0 -50.5 -25.5t-28.5 -66.5t-10.5 -70.5t-2.5 -60.5q0 -30 2.5 -61.5t10.5 -75.5t28 -71.5t49 -27.5z" />
    <glyph glyph-name="ydieresis" unicode="&#xff;" horiz-adv-x="1118" 
d="M584 -483h-416l184 528l-321 1036h403l78 -372q8 -40 23.5 -121t23.5 -121h4q4 25 16.5 110.5t22.5 131.5l84 372h401zM338 1227q-70 0 -120 49.5t-50 120.5q0 66 49.5 115t116.5 49q70 0 121 -48.5t51 -119.5q0 -69 -49 -117.5t-119 -48.5zM784 1227q-70 0 -120 49.5
t-50 120.5q0 66 49.5 115t116.5 49q70 0 121 -48.5t51 -119.5q0 -69 -49 -117.5t-119 -48.5z" />
    <glyph glyph-name="dotlessi" unicode="&#x131;" horiz-adv-x="618" 
d="M510 0h-401v1081h401v-1081z" />
    <glyph glyph-name="Lslash" unicode="&#x141;" horiz-adv-x="901" 
d="M854 0h-731v502l-139 -109v303l139 101v747h418v-524l172 139v-307l-172 -129v-358h313v-365z" />
    <glyph glyph-name="lslash" unicode="&#x142;" horiz-adv-x="618" 
d="M510 0h-401v588l-123 -96v303l123 92v745h401v-534l123 98v-291l-123 -106v-799z" />
    <glyph glyph-name="OE" unicode="&#x152;" horiz-adv-x="1689" 
d="M817 782q0 404 -145 404q-103 0 -146 -180q-24 -100 -24 -248q0 -146 24 -238q43 -162 144 -162q29 0 53 19t39 47.5t26 70.5t16.5 79t8.5 82.5t3.5 71t0.5 54.5zM1235 1180v-215h309v-365h-309v-235h346v-365h-739q-68 -16 -109 -20q-65 -7 -108 -7q-101 0 -186 36
t-143.5 98.5t-102 141.5t-68.5 172t-37 183t-12 180q0 106 17.5 211t59.5 210.5t104 185.5t158.5 130t215.5 50q35 0 72 -4t85.5 -12t73.5 -11h715v-364h-342z" />
    <glyph glyph-name="oe" unicode="&#x153;" horiz-adv-x="1705" 
d="M1055 674h186q-2 54 -24.5 95.5t-71.5 41.5q-46 0 -69 -43.5t-21 -93.5zM1645 457h-590v-23q0 -33 7.5 -63t30 -55t56.5 -25q33 0 57.5 21.5t30.5 54.5h393q-33 -183 -161 -286.5t-306 -103.5q-172 0 -315 97q-123 -97 -275 -97q-163 0 -280 74t-174.5 201.5t-57.5 294.5
q0 159 57 284t171.5 199t269.5 74q169 0 309 -98q131 98 306 98q117 0 209 -48t148 -129.5t85 -184t29 -218.5v-67zM567 279q34 0 59 30t36 76.5t15.5 85t4.5 70.5q0 34 -4.5 72t-15.5 84t-36 76t-61 30q-34 0 -57.5 -30t-34 -76.5t-14.5 -84.5t-4 -71t4 -71t14.5 -84.5
t35 -76.5t58.5 -30z" />
    <glyph glyph-name="Scaron" unicode="&#x160;" horiz-adv-x="966" 
d="M84 37v483q47 -71 118.5 -121.5t145.5 -50.5q47 0 85 27.5t38 75.5t-33 86q-21 27 -69 59q-147 113 -207 197q-84 119 -84 270q0 58 14 122t49.5 134t87.5 125t135 91t185 36q151 0 297 -78v-469q-41 65 -110 115.5t-136 50.5q-40 0 -74 -26t-34 -68q0 -43 40 -86
q15 -16 76 -64q147 -102 205 -188q76 -109 76 -269q0 -218 -138.5 -367t-353.5 -149q-160 0 -313 64zM610 1976h238l-150 -305h-358l-172 305h246l102 -182z" />
    <glyph glyph-name="scaron" unicode="&#x161;" horiz-adv-x="944" 
d="M61 90l148 299q42 -45 96 -79t105 -34q30 0 53.5 14.5t23.5 41.5q0 28 -24.5 47t-79.5 39q-64 22 -111.5 48t-88.5 63.5t-62 90t-21 119.5q0 165 122 265t313 100q81 0 169.5 -24t159.5 -64l-137 -293q-37 34 -52 47t-50 31t-66 18q-24 0 -41.5 -14t-17.5 -39
q0 -19 11.5 -35.5t34 -29.5t37 -19.5t38.5 -15.5q59 -23 102.5 -48t82 -61t58 -86.5t19.5 -114.5q0 -89 -36 -162t-96.5 -119.5t-137.5 -72t-162 -25.5q-104 0 -195.5 28t-194.5 85zM575 1544h238l-149 -305h-359l-172 305h246l102 -182z" />
    <glyph glyph-name="Ydieresis" unicode="&#x178;" horiz-adv-x="1189" 
d="M815 0h-418v655l-381 889h435l143 -477h4l145 477h433l-361 -889v-655zM375 1659q-71 0 -120.5 49.5t-49.5 120.5q0 66 49.5 115t116.5 49q70 0 121 -48.5t51 -119.5q0 -69 -49 -117.5t-119 -48.5zM821 1659q-71 0 -120.5 49.5t-49.5 120.5q0 66 49.5 115t116.5 49
q70 0 121 -48.5t51 -119.5q0 -69 -49 -117.5t-119 -48.5z" />
    <glyph glyph-name="Zcaron" unicode="&#x17d;" horiz-adv-x="1208" 
d="M1110 0h-1063l422 981q24 57 119 211q-246 -12 -264 -12h-185v364h1022l-456 -1057q-11 -26 -34 -72.5t-32 -68.5q26 2 72.5 7t86 8.5t74.5 3.5h238v-365zM731 1976h238l-150 -305h-358l-172 305h246l102 -182z" />
    <glyph glyph-name="zcaron" unicode="&#x17e;" horiz-adv-x="1021" 
d="M911 0h-864l367 766q-153 -6 -156 -6h-154v321h873l-365 -757q90 4 133 4h166v-328zM614 1544h238l-150 -305h-358l-172 305h246l102 -182z" />
    <glyph glyph-name="florin" unicode="&#x192;" 
d="M946 762h-123l-123 -719q-27 -158 -134 -254t-265 -96q-76 0 -178 31l51 329q50 -4 72 -4q62 0 82 22t30 85l101 606h-127l53 323h129l33 201q11 67 23 115t31.5 98.5t47.5 84t66.5 61t93 40.5t123.5 13q59 0 155 -21l25 -4l-43 -321q-9 1 -34.5 4.5t-39.5 3.5
q-26 0 -42.5 -7t-26 -24t-13 -30.5t-8.5 -41.5l-28 -172h124z" />
    <glyph glyph-name="circumflex" unicode="&#x2c6;" horiz-adv-x="778" 
d="M397 1421l-102 -182h-246l172 305h359l149 -305h-237z" />
    <glyph glyph-name="caron" unicode="&#x2c7;" horiz-adv-x="778" 
d="M492 1544h237l-149 -305h-359l-172 305h246l102 -182z" />
    <glyph glyph-name="uni02C9" unicode="&#x2c9;" horiz-adv-x="778" 
d="M-6 1282v217h790v-217h-790z" />
    <glyph glyph-name="breve" unicode="&#x2d8;" horiz-adv-x="778" 
d="M18 1552h162q23 -71 75 -98t134 -27q83 0 134.5 26.5t76.5 98.5h160q-9 -155 -112 -250.5t-259 -95.5q-81 0 -155 29.5t-123 87.5q-40 47 -66.5 108.5t-26.5 120.5z" />
    <glyph glyph-name="dotaccent" unicode="&#x2d9;" horiz-adv-x="778" 
d="M391 1227q-71 0 -120.5 49.5t-49.5 120.5q0 66 49 115t115 49q71 0 122.5 -48.5t51.5 -119.5q0 -69 -49 -117.5t-119 -48.5z" />
    <glyph glyph-name="ring" unicode="&#x2da;" horiz-adv-x="778" 
d="M385 1614q96 0 161.5 -64t65.5 -159q0 -93 -65 -158.5t-158 -65.5q-90 0 -156.5 65.5t-66.5 156.5q0 92 64 158.5t155 66.5zM389 1296q39 0 66.5 28.5t27.5 68.5q0 38 -27 65t-65 27q-39 0 -67.5 -27t-28.5 -65q0 -40 27.5 -68.5t66.5 -28.5z" />
    <glyph glyph-name="ogonek" unicode="&#x2db;" horiz-adv-x="778" 
d="M315 0h142q-78 -70 -78 -145q0 -40 26 -61t66 -21q34 0 78 14l-17 -162q-44 -20 -94 -20q-97 0 -170 47.5t-73 138.5q0 56 35.5 113t84.5 96z" />
    <glyph glyph-name="tilde" unicode="&#x2dc;" horiz-adv-x="778" 
d="M578 1546h206v-35q0 -113 -65 -193.5t-176 -80.5q-54 0 -107 19.5t-96 39t-72 19.5q-31 0 -46 -24t-15 -58h-211q-8 124 54.5 215.5t182.5 91.5q32 0 66 -8t52 -14.5t61 -24.5q4 -2 19 -8.5t21.5 -9t18 -6.5t21.5 -5.5t20 -1.5q62 0 66 84z" />
    <glyph glyph-name="hungarumlaut" unicode="&#x2dd;" horiz-adv-x="778" 
d="M0 1223l111 344h317l-203 -344h-225zM412 1223l110 344h318l-203 -344h-225z" />
    <glyph glyph-name="uni03A9" unicode="&#x3a9;" horiz-adv-x="1540" 
d="M340 295v8q-104 102 -175 246.5t-71 322.5q0 106 30 207.5t89 189t140 153.5t189.5 103.5t231.5 37.5q131 0 242.5 -42t188 -111t131 -157.5t79.5 -180.5t25 -181q0 -180 -71 -332.5t-179 -255.5v-8h280v-295h-622v219q96 62 153 193q66 159 66 397q0 200 -78 324
t-217 124q-137 0 -221 -127.5t-84 -336.5q0 -221 62 -370.5t159 -203.5v-219h-625v295h277z" />
    <glyph glyph-name="uni03BC" unicode="&#x3bc;" horiz-adv-x="1177" 
d="M668 1081h401v-712q0 -79 -13.5 -144.5t-44 -123.5t-89.5 -91t-142 -33q-95 0 -170 67t-106 161l-4 -4l10 -164v-520h-401v1564h401v-520q0 -33 1 -54.5t5.5 -48.5t13 -43t25 -27t39.5 -11q25 0 41 12t22.5 37.5t8.5 48.5t2 60v546z" />
    <glyph glyph-name="pi" unicode="&#x3c0;" horiz-adv-x="1378" 
d="M1331 854h-137v-524q0 -194 25 -330h-355q-41 73 -41 319v535h-229q-7 -183 -41 -435.5t-86 -418.5h-356q50 200 85 450.5t35 403.5q-126 0 -194 -16l-35 243q43 38 144 61t251 23h961z" />
    <glyph glyph-name="uni2010" unicode="&#x2010;" horiz-adv-x="657" 
d="M580 489h-502v332h502v-332z" />
    <glyph glyph-name="endash" unicode="&#x2013;" horiz-adv-x="1024" 
d="M1024 489h-1024v332h1024v-332z" />
    <glyph glyph-name="emdash" unicode="&#x2014;" horiz-adv-x="2048" 
d="M1782 489h-1516v332h1516v-332z" />
    <glyph glyph-name="quoteleft" unicode="&#x2018;" horiz-adv-x="753" 
d="M78 803l268 741h330l-189 -741h-409z" />
    <glyph glyph-name="quoteright" unicode="&#x2019;" horiz-adv-x="753" 
d="M676 1544l-270 -741h-328l188 741h410z" />
    <glyph glyph-name="quotesinglbase" unicode="&#x201a;" horiz-adv-x="753" 
d="M676 418l-270 -744h-328l188 744h410z" />
    <glyph glyph-name="quotedblleft" unicode="&#x201c;" horiz-adv-x="1255" 
d="M78 803l268 741h330l-189 -741h-409zM580 803l270 741h328l-189 -741h-409z" />
    <glyph glyph-name="quotedblright" unicode="&#x201d;" horiz-adv-x="1255" 
d="M1178 1544l-269 -741h-329l188 741h410zM676 1544l-270 -741h-328l188 741h410z" />
    <glyph glyph-name="quotedblbase" unicode="&#x201e;" horiz-adv-x="1255" 
d="M1178 418l-269 -744h-329l188 744h410zM676 418l-270 -744h-328l188 744h410z" />
    <glyph glyph-name="dagger" unicode="&#x2020;" horiz-adv-x="1226" 
d="M791 -340h-355v1169h-358v310h358v405h355v-405h358v-310h-358v-1169z" />
    <glyph glyph-name="daggerdbl" unicode="&#x2021;" horiz-adv-x="1226" 
d="M791 -340h-355v610h-358v310h358v270h-358v309h358v385h355v-385h358v-309h-358v-270h358v-310h-358v-610z" />
    <glyph glyph-name="bullet" unicode="&#x2022;" horiz-adv-x="860" 
d="M819 776q0 -161 -115 -276t-276 -115t-273 114.5t-112 276.5q0 159 112 272t273 113t276 -113.5t115 -271.5z" />
    <glyph glyph-name="ellipsis" unicode="&#x2026;" horiz-adv-x="2048" 
d="M340 -23q-98 0 -166 69.5t-68 168.5q0 94 67.5 162.5t158.5 68.5q101 0 172 -68t71 -169q0 -96 -69 -164t-166 -68zM1022 -23q-98 0 -166 69.5t-68 168.5q0 94 67.5 162.5t158.5 68.5q101 0 172 -68t71 -169q0 -96 -69 -164t-166 -68zM1704 -23q-98 0 -166 69.5
t-68 168.5q0 94 67.5 162.5t158.5 68.5q101 0 172 -68t71 -169q0 -96 -69 -164t-166 -68z" />
    <glyph glyph-name="perthousand" unicode="&#x2030;" horiz-adv-x="2369" 
d="M1223 731q107 0 184.5 -53t114.5 -137.5t37 -188.5t-37 -188.5t-114.5 -137.5t-184.5 -53t-184.5 53t-114.5 137.5t-37 188.5t37 188.5t114.5 137.5t184.5 53zM1223 504q-64 0 -64 -152q0 -151 64 -151q63 0 63 151q0 152 -63 152zM1964 731q107 0 184.5 -53
t114.5 -137.5t37 -188.5t-37 -188.5t-114.5 -137.5t-184.5 -53t-184.5 53t-114.5 137.5t-37 188.5t37 188.5t114.5 137.5t184.5 53zM1964 504q-63 0 -63 -152q0 -151 63 -151q64 0 64 151q0 152 -64 152zM406 1571q107 0 184.5 -53t114 -137.5t36.5 -188.5t-36.5 -188.5
t-114 -137.5t-184.5 -53t-184.5 53t-114.5 137.5t-37 188.5t37 188.5t114.5 137.5t184.5 53zM406 1343q-64 0 -64 -151q0 -152 64 -152q63 0 63 152q0 151 -63 151zM346 -53l-162 114l1094 1547l166 -117z" />
    <glyph glyph-name="guilsinglleft" unicode="&#x2039;" horiz-adv-x="686" 
d="M428 190l-350 465l350 465l180 -135l-262 -330l262 -329z" />
    <glyph glyph-name="guilsinglright" unicode="&#x203a;" horiz-adv-x="686" 
d="M258 1120l350 -465l-350 -465l-180 136l262 329l-262 330z" />
    <glyph glyph-name="fraction" unicode="&#x2044;" horiz-adv-x="479" 
d="M-231 -53l-160 114l1091 1547l168 -117z" />
    <glyph glyph-name="Euro" unicode="&#x20ac;" 
d="M1130 1491v-317q-81 92 -260 92q-124 0 -190.5 -62.5t-87.5 -187.5h467l-68 -197h-418q-2 -14 -2 -55q0 -48 2 -66h375l-69 -196h-281q20 -116 86.5 -172t185.5 -56q85 0 153.5 24t106.5 60v-313q-41 -28 -125 -49t-204 -21q-260 0 -406.5 130.5t-187.5 396.5h-174
l67 196h86q0 8 -1 29.5t-1 34.5q0 10 1 29t1 28h-153l67 197h103q21 130 64.5 229t114.5 173t176.5 112.5t242.5 38.5q113 0 200.5 -24t128.5 -54z" />
    <glyph glyph-name="afii61289" unicode="&#x2113;" horiz-adv-x="1183" 
d="M1010 463l141 -154q-168 -329 -496 -329q-99 0 -176 25.5t-126 71t-78.5 103t-41.5 127.5q-2 6 -2 21q-94 -72 -104 -78l-86 188q21 17 62 49t69.5 55.5t54.5 47.5v516q0 282 120.5 434t316.5 152q86 0 152 -32.5t105.5 -90t59.5 -131.5t20 -162q0 -179 -106 -356.5
t-313 -374.5l2 -107q3 -74 46 -120t113 -46q72 0 141.5 54t125.5 137zM582 1108v-238q89 107 141.5 223t52.5 201q0 72 -20.5 107t-69.5 35q-104 0 -104 -328z" />
    <glyph glyph-name="trademark" unicode="&#x2122;" horiz-adv-x="1761" 
d="M1716 1544v-827h-190v647h-4l-230 -647h-127l-229 647h-4v-647h-191v827h301l185 -510h4l184 510h301zM651 1544v-180h-243v-647h-209v647h-234v180h686z" />
    <glyph glyph-name="Omega" unicode="&#x2126;" horiz-adv-x="1540" 
d="M340 295v8q-104 102 -175 246.5t-71 322.5q0 106 30 207.5t89 189t140 153.5t189.5 103.5t231.5 37.5q131 0 242.5 -42t188 -111t131 -157.5t79.5 -180.5t25 -181q0 -180 -71 -332.5t-179 -255.5v-8h280v-295h-622v219q96 62 153 193q66 159 66 397q0 200 -78 324
t-217 124q-137 0 -221 -127.5t-84 -336.5q0 -221 62 -370.5t159 -203.5v-219h-625v295h277z" />
    <glyph glyph-name="estimated" unicode="&#x212e;" horiz-adv-x="1925" 
d="M1849 750h-1437q-11 0 -11 -11v-434q0 -27 19 -49q107 -111 247 -173.5t296 -62.5q168 0 316 70.5t255 194.5h129q-123 -143 -307 -226.5t-395 -83.5q-180 0 -344.5 63t-283 169.5t-189 254t-70.5 308.5q0 217 119 401.5t323 292t445 107.5q181 0 345.5 -63.5t283.5 -171
t189 -255.5t70 -311v-20zM1524 807v436q0 30 -23 53q-108 106 -246 166t-292 60q-153 0 -293.5 -62.5t-247.5 -171.5q-21 -21 -21 -53v-428q0 -5 3.5 -9.5t7.5 -4.5h1101q11 0 11 14z" />
    <glyph glyph-name="partialdiff" unicode="&#x2202;" horiz-adv-x="1314" 
d="M229 1341l-94 277q173 129 432 129q133 0 249 -55.5t204.5 -159t140 -266t51.5 -363.5q0 -428 -175.5 -673.5t-477.5 -245.5q-95 0 -176.5 33.5t-137 88.5t-95 125t-58 142.5t-18.5 142.5q0 265 137 426.5t346 161.5q57 0 109 -16t88 -41t59.5 -48t38.5 -45h2v58
q0 60 -13.5 120t-41.5 117t-67.5 100.5t-95 70t-120.5 26.5q-154 0 -287 -105zM596 289h2q47 0 87.5 37t68 96t45 122.5t24.5 125.5q-12 47 -62.5 94t-125.5 47q-60 0 -106.5 -45.5t-69.5 -115.5t-23 -150q0 -87 45 -149t115 -62z" />
    <glyph glyph-name="uni2206" unicode="&#x2206;" horiz-adv-x="1462" 
d="M49 0v201l471 1366h441l446 -1360v-207h-1358zM430 295h584l-180 500q-16 64 -56.5 204.5t-50.5 180.5h-6q-8 -39 -45.5 -166.5t-52.5 -188.5z" />
    <glyph glyph-name="product" unicode="&#x220f;" horiz-adv-x="1626" 
d="M1573 1208h-211v-1421h-365v1421h-370v-1421h-365v1421h-211v332h1522v-332z" />
    <glyph glyph-name="summation" unicode="&#x2211;" horiz-adv-x="1239" 
d="M1202 -213h-1151v229l486 652l-471 616v256h1099v-309h-612v-8l395 -494l-450 -598v-6h704v-338z" />
    <glyph glyph-name="minus" unicode="&#x2212;" horiz-adv-x="1024" 
d="M53 406v235h920v-235h-920z" />
    <glyph glyph-name="uni2215" unicode="&#x2215;" horiz-adv-x="479" 
d="M-231 -53l-160 114l1091 1547l168 -117z" />
    <glyph glyph-name="uni2219" unicode="&#x2219;" horiz-adv-x="618" 
d="M309 289q-98 0 -165.5 69t-67.5 168q0 94 67 163t158 69q101 0 172.5 -68t71.5 -170q0 -96 -69.5 -163.5t-166.5 -67.5z" />
    <glyph glyph-name="radical" unicode="&#x221a;" horiz-adv-x="1345" 
d="M1376 1860l-499 -2153h-283l-311 922l-162 -66l-55 197l432 178l188 -610q10 -44 27 -117t22 -98l4 -2q24 157 39 237l348 1512h250z" />
    <glyph glyph-name="infinity" unicode="&#x221e;" horiz-adv-x="1716" 
d="M1614 635v-2q0 -93 -31.5 -171.5t-83.5 -129t-117 -78t-135 -27.5q-50 0 -92 9t-92 33.5t-101 74t-102 123.5q-92 -119 -184.5 -179.5t-214.5 -60.5q-70 0 -135 28.5t-115.5 78.5t-80.5 125t-30 162q0 176 108.5 286.5t272.5 110.5q118 0 208.5 -56t178.5 -174l23 27
q23 27 27.5 31.5t28 29.5t33 32t34 28t40.5 28t42.5 21t49.5 19t52 9.5t59 4.5q149 0 253 -106.5t104 -276.5zM483 418h4q40 0 77 14.5t71.5 44.5t61 59t61.5 74q-77 111 -110 145q-75 76 -169 76q-86 0 -136 -58t-52 -155q0 -83 56 -141.5t136 -58.5zM1239 831h-2
q-25 0 -49 -5.5t-48.5 -21.5t-40 -26t-40.5 -37t-33 -35.5t-34.5 -41.5t-28.5 -35q92 -125 150.5 -168t135.5 -43t124.5 64.5t47.5 135.5q0 91 -49.5 152t-132.5 61z" />
    <glyph glyph-name="integral" unicode="&#x222b;" horiz-adv-x="935" 
d="M877 1898l-31 -249q-46 16 -76 16q-72 0 -108 -59q-50 -67 -50 -353q0 -178 17.5 -491t17.5 -531q0 -291 -69 -438q-49 -100 -138.5 -146t-195.5 -46q-119 0 -189 34l39 259q48 -21 92 -21q64 0 93 39q49 69 49 315q0 219 -17.5 543t-17.5 518q0 200 33 319t110 201
q49 56 128.5 84.5t166.5 28.5q84 0 146 -23z" />
    <glyph glyph-name="approxequal" unicode="&#x2248;" horiz-adv-x="1191" 
d="M991 1030l123 -115q-58 -110 -140.5 -175.5t-168.5 -65.5q-63 0 -113 18.5t-125 65.5q-44 29 -61.5 39t-50.5 22t-66 12q-41 0 -78 -23.5t-55 -44.5t-52 -70q-7 -10 -11 -15l-123 117q50 100 140 167.5t191 67.5q49 0 95 -13.5t69 -25.5t60 -35q8 -5 31.5 -19.5t29.5 -18
t23.5 -13.5t25.5 -12.5t21 -7.5t24 -6.5t23 -1.5q56 0 96 37.5t92 115.5zM991 594l123 -117q-57 -109 -139 -174t-172 -65q-61 0 -112.5 19.5t-123.5 64.5q-43 28 -62.5 39.5t-51.5 22.5t-64 11q-31 0 -57.5 -10.5t-49.5 -33t-39 -42.5t-39 -53q-4 -5 -6.5 -8.5t-4.5 -7.5
l-123 116q50 102 139.5 170t191.5 68q17 0 33.5 -1.5t32 -4.5t27.5 -6t27 -9t23 -9t22.5 -10.5t19.5 -10.5t20 -11.5t17 -9.5q14 -9 46 -29.5t47 -29t39 -17t46 -8.5q57 0 96.5 37t93.5 119z" />
    <glyph glyph-name="notequal" unicode="&#x2260;" horiz-adv-x="1191" 
d="M899 1145l-76 -178h267v-203h-340l-117 -279h457v-204h-533l-102 -242l-160 61l78 181h-273v204h349l114 279h-463v203h539l100 237z" />
    <glyph glyph-name="lessequal" unicode="&#x2264;" horiz-adv-x="1191" 
d="M1083 225l-972 488v221l972 487v-235l-778 -361v-4l778 -360v-236zM1094 -57h-990v207h990v-207z" />
    <glyph glyph-name="greaterequal" unicode="&#x2265;" horiz-adv-x="1191" 
d="M117 1421l973 -487v-221l-973 -488v236l776 360v6l-776 359v235zM1087 -57h-981v207h981v-207z" />
    <glyph glyph-name="lozenge" unicode="&#x25ca;" horiz-adv-x="1339" 
d="M1239 768l-432 -883h-291l-414 883l430 883h291zM922 760l-203 454q-29 82 -41 146h-8q-13 -57 -43 -146l-207 -438l207 -467q29 -104 35 -135h12q19 85 37 129z" />
    <glyph glyph-name="fi" unicode="&#xfb01;" horiz-adv-x="1402" 
d="M580 0h-402v760h-117v321h117v125q0 216 88.5 332.5t261.5 116.5q94 0 195 -29v-371q-51 37 -82 37q-15 0 -26 -3.5t-17.5 -14t-10 -18.5t-5.5 -29t-2 -32.5v-41.5v-20v-52h143v-321h-143v-760zM1294 0h-401v1081h401v-1081zM1096 1186q-97 0 -166.5 68.5t-69.5 166.5
q0 95 68.5 164.5t163.5 69.5q98 0 167.5 -67.5t69.5 -164.5t-67.5 -167t-165.5 -70z" />
    <glyph glyph-name="fl" unicode="&#xfb02;" horiz-adv-x="1402" 
d="M1294 0h-401v1632h401v-1632zM580 0h-402v760h-117v321h117v125q0 216 88.5 332.5t261.5 116.5q94 0 195 -29v-371q-51 37 -82 37q-39 0 -50 -36.5t-11 -122.5v-52h143v-321h-143v-760z" />
    <glyph glyph-name="a.superior" horiz-adv-x="698" 
d="M406 1241q0 53 -7 78q-11 53 -51 53q-49 0 -63 -63q-9 -39 -9 -97q0 -45 9 -73q14 -45 55 -45q46 0 57 59q9 37 9 88zM410 909l8 107l-2 -2l-4 4q-21 -55 -66.5 -89t-107.5 -34q-51 0 -91 24t-62.5 60t-37 84.5t-19.5 90.5t-5 85q0 54 10 106.5t32.5 106t68.5 86.5
t110 33q109 0 166 -115l4 2l-6 47l-2 51h264v-647h-260z" />
    <glyph glyph-name="o.superior" horiz-adv-x="698" 
d="M346 895q-157 0 -241.5 95t-84.5 241q0 147 87.5 243.5t244.5 96.5q158 0 241 -97t83 -247q0 -148 -86 -240t-244 -92zM346 1075q23 0 39.5 18t23.5 46t10 51t3 43t-3 43t-10 51t-23.5 46t-39.5 18q-29 0 -46.5 -33t-21.5 -64.5t-4 -60.5t4 -60.5t21.5 -64.5t46.5 -33z
" />
    <glyph glyph-name="one.superior" horiz-adv-x="741" 
d="M518 631h-268v710h-113v215h381v-925z" />
    <glyph glyph-name="two.superior" horiz-adv-x="741" 
d="M696 631h-692l264 325q43 52 62 76.5t52 73.5t47.5 92t14.5 84q0 31 -15.5 56.5t-47.5 25.5q-66 0 -66 -113v-34h-264v32q0 141 94.5 231.5t245.5 90.5q141 0 229.5 -87t88.5 -218q0 -213 -256 -418l4 -4h239v-213z" />
    <glyph glyph-name="three.superior" horiz-adv-x="741" 
d="M31 905h266v-16q4 -72 65 -72q37 0 55.5 27.5t18.5 62.5q0 108 -139 97h-16v190h32q57 0 84 21t27 73q0 29 -13 52.5t-42 23.5q-21 0 -33.5 -11.5t-16 -23.5t-6.5 -31v-8h-262q9 127 98.5 204t229.5 77q128 0 218.5 -77t90.5 -194q0 -60 -32 -110.5t-89 -77.5
q135 -66 135 -219q0 -86 -49.5 -150t-126.5 -95.5t-168 -31.5q-143 0 -237 79.5t-90 209.5z" />
    </font>
</defs>
</svg>
