<?xml version="1.0" standalone="no"?>
<!DOCTYPE svg PUBLIC "-//W3C//DTD SVG 1.1//EN" "http://www.w3.org/Graphics/SVG/1.1/DTD/svg11.dtd" >
<svg xmlns="http://www.w3.org/2000/svg" xmlns:xlink="http://www.w3.org/1999/xlink" version="1.1">
<metadata>
Created by FontForge 20170731 at Mon Oct 12 18:28:48 2020
 By Aleksey,,,
(c) 1987, 1991, 1992, 1993, 2002 Adobe Systems Incorporated. All rights reserved.
</metadata>
<defs>
<font id="FuturaStd-CondensedBoldObl" horiz-adv-x="1003" >
  <font-face 
    font-family="Futura Std Condensed"
    font-weight="700"
    font-style="italic"
    font-stretch="condensed"
    units-per-em="2048"
    panose-1="2 11 7 6 2 2 4 3 2 4"
    ascent="1690"
    descent="-358"
    x-height="1034"
    cap-height="1544"
    bbox="-287 -596 2527.65 2028"
    underline-thickness="102"
    underline-position="-307"
    slope="-9"
    unicode-range="U+0020-FB02"
  />
<missing-glyph horiz-adv-x="1251" 
d="M227 0v1434h1024v-1434h-1024zM739 809l348 522h-696zM801 717l348 -522v1044zM391 102h696l-348 523zM330 1239v-1044l348 522z" />
    <glyph glyph-name="f_i" unicode="fi" horiz-adv-x="1095" 
d="M203 1034h106l45 291q11 65 24.5 112t39.5 94t62.5 76.5t94 47.5t132.5 18q55 0 122 -24l-45 -279q-26 16 -49 16q-17 0 -31 -5t-23.5 -11.5t-17.5 -20.5t-12.5 -22t-9 -28t-6 -27t-5 -28.5t-3.5 -24.5l-29 -185h133l-37 -237h-133l-127 -797h-289l127 797h-106z
M862 1034h289l-164 -1034h-289zM1024 1157q-75 0 -119.5 54.5t-32.5 131.5t75.5 130t142.5 53q74 0 117 -56t32 -131q-12 -74 -76 -128t-139 -54z" />
    <glyph glyph-name="f_l" unicode="fl" horiz-adv-x="1095" 
d="M961 1653h288l-262 -1653h-289zM203 1034h106l45 291q11 65 24.5 112t39.5 94t62.5 76.5t94 47.5t132.5 18q55 0 122 -24l-45 -279q-26 16 -49 16q-17 0 -31 -5t-23.5 -11.5t-17.5 -20.5t-12.5 -22t-9 -28t-6 -27t-5 -28.5t-3.5 -24.5l-29 -185h133l-37 -237h-133
l-127 -797h-289l127 797h-106z" />
    <glyph glyph-name=".notdef" horiz-adv-x="1251" 
d="M227 0v1434h1024v-1434h-1024zM739 809l348 522h-696zM801 717l348 -522v1044zM391 102h696l-348 523zM330 1239v-1044l348 522z" />
    <glyph glyph-name=".null" horiz-adv-x="0" 
 />
    <glyph glyph-name="nonmarkingreturn" horiz-adv-x="682" 
 />
    <glyph glyph-name="space" unicode=" " horiz-adv-x="501" 
 />
    <glyph glyph-name="exclam" unicode="!" horiz-adv-x="503" 
d="M647 1544l-170 -1081h-301l170 1081h301zM309 365q79 0 127.5 -57.5t36.5 -137.5q-12 -79 -78.5 -137t-146.5 -58q-79 0 -127.5 57.5t-36.5 137.5q12 79 78.5 137t146.5 58z" />
    <glyph glyph-name="quotedbl" unicode="&#x22;" horiz-adv-x="737" 
d="M817 948h-223l63 596h285zM442 948h-223l64 596h284z" />
    <glyph glyph-name="numbersign" unicode="#" 
d="M1012 692l-33 -205h-176l-137 -487h-170l135 487h-152l-137 -487h-172l135 487h-174l33 205h201l51 193h-172l32 205h195l127 454h170l-125 -454h154l125 454h172l-127 -454h155l-32 -205h-181l-51 -193h154zM739 885h-151l-51 -193h149z" />
    <glyph glyph-name="dollar" unicode="$" 
d="M674 1556l24 146h150l-25 -146q212 -32 301 -180l-196 -184q-84 119 -217 119q-81 0 -134 -41.5t-65 -120.5q-11 -71 24.5 -109.5t108.5 -70.5q109 -47 167.5 -79.5t129 -92.5t93.5 -142t5 -192q-30 -183 -157 -319t-310 -169l-28 -176h-150l29 176q-237 33 -356 181
l180 227q35 -40 58 -62.5t58 -49t74.5 -38.5t85.5 -12q81 0 143 57t76 144q6 44 -3 78t-36 60t-50.5 41t-65.5 36q-158 77 -220 122q-143 103 -156 253q-4 50 5 108q29 182 149.5 294t307.5 142z" />
    <glyph glyph-name="percent" unicode="%" horiz-adv-x="1757" 
d="M647 1559q74 0 127.5 -26t81.5 -68.5t41.5 -102t12 -120t-12.5 -128.5q-13 -87 -39.5 -160.5t-71.5 -140t-116.5 -105t-163.5 -38.5q-62 0 -109.5 18t-77 50.5t-48 73.5t-24 92.5t-4 102.5t10.5 107q14 87 41 160.5t72 140.5t116.5 105.5t163.5 38.5zM608 1325
q-72 0 -108 -211q-29 -211 43 -211q25 0 46 25.5t33.5 64.5t19 68t9.5 53q4 24 6.5 53t2 68t-13.5 64.5t-38 25.5zM1495 874q74 0 127.5 -26t81.5 -68.5t41.5 -101.5t12 -119.5t-12.5 -128.5q-13 -87 -39.5 -160.5t-71.5 -140t-116.5 -105t-163.5 -38.5q-62 0 -109.5 18
t-77 50.5t-48 73.5t-24 92.5t-4 102.5t10.5 107q11 68 29.5 128t50.5 119.5t74 102t103.5 68.5t135.5 26zM1458 641q-74 0 -110 -211q-29 -211 43 -211q25 0 46 25.5t33.5 64.5t19 68t9.5 53q4 25 7 53.5t3 67.5t-13 64.5t-38 25.5zM1378 1544h219l-974 -1544h-220z" />
    <glyph glyph-name="ampersand" unicode="&#x26;" horiz-adv-x="1208" 
d="M659 1018q52 26 88.5 69t43.5 95q6 35 -11 59.5t-53 24.5q-40 0 -71.5 -25.5t-37.5 -66.5l-1.5 -34.5t6 -32t10.5 -30.5t13 -29.5t13 -29.5zM674 299l-154 309q-36 -25 -64 -68.5t-34 -82.5q-12 -84 27 -142.5t112 -58.5q59 0 113 43zM823 0l-45 90q-65 -50 -146 -80
t-155 -30q-122 0 -211 63.5t-125.5 167.5t-17.5 225q39 241 287 408q-78 192 -58 319q24 152 142 245t272 93q93 0 167 -34.5t114 -105.5t24 -167q-10 -63 -39.5 -123.5t-75.5 -113t-92.5 -94.5t-105.5 -87l153 -317q15 14 57.5 50.5t71 63.5t52.5 54l129 -219
q-75 -74 -183 -152l-14 -10l123 -246h-324z" />
    <glyph glyph-name="quotesingle" unicode="'" horiz-adv-x="512" 
d="M518 948h-223l63 596h285z" />
    <glyph glyph-name="parenleft" unicode="(" horiz-adv-x="614" 
d="M561 1569l256 -58q-274 -430 -344 -880q-67 -420 70 -850l-275 -60q-155 440 -82 916q37 238 134 481.5t241 450.5z" />
    <glyph glyph-name="parenright" unicode=")" horiz-adv-x="614" 
d="M256 -279l-254 58q274 430 344 880q67 420 -70 850l273 60q157 -438 84 -916q-39 -240 -136 -483t-241 -449z" />
    <glyph glyph-name="asterisk" unicode="*" horiz-adv-x="770" 
d="M567 1544h131l-36 -244l223 130l47 -115l-236 -119l197 -121l-84 -117l-182 134l-39 -252h-131l39 252l-232 -134l-47 117l232 121l-193 119l84 115l190 -130z" />
    <glyph glyph-name="plus" unicode="+" 
d="M489 637l62 385h225l-61 -385h348l-35 -225h-348l-64 -398h-225l64 398h-346l34 225h346z" />
    <glyph glyph-name="comma" unicode="," horiz-adv-x="501" 
d="M190 332h310l-410 -627h-205z" />
    <glyph glyph-name="hyphen" unicode="-" horiz-adv-x="651" 
d="M199 813h512l-43 -272h-512z" />
    <glyph glyph-name="period" unicode="." horiz-adv-x="501" 
d="M307 365q81 0 128.5 -57.5t35.5 -137.5t-78 -137.5t-147 -57.5t-128.5 57.5t-35.5 137.5t78 137.5t147 57.5z" />
    <glyph glyph-name="slash" unicode="/" horiz-adv-x="1120" 
d="M1130 1653h234l-1120 -1993h-234z" />
    <glyph glyph-name="zero" unicode="0" 
d="M750 1569q77 0 136 -30.5t95 -79.5t59.5 -118t32 -140.5t8.5 -152t-6 -146.5t-16 -130q-12 -77 -31 -154.5t-50.5 -172t-76.5 -175t-101.5 -148.5t-134.5 -107.5t-167 -39.5q-77 0 -136 30.5t-95 79.5t-59 118.5t-32 140.5t-8.5 151.5t6.5 146t16 130.5t25 130.5t40 146
t56.5 151.5t76 140.5t96.5 118.5t120.5 79.5t145.5 30.5zM707 1290q-147 0 -220 -518q-31 -194 -35 -282q-9 -236 91 -236q141 0 215 491q1 10 2 16t2 11t9.5 59t12.5 89t10 96.5t3 103t-10.5 84t-28 64.5t-51.5 22z" />
    <glyph glyph-name="one" unicode="1" 
d="M469 1544h444l-243 -1544h-297l202 1278h-147z" />
    <glyph glyph-name="two" unicode="2" 
d="M549 1008h-283l8 84q19 114 50.5 197t86 149t140 99.5t203.5 33.5q197 0 291.5 -100t62.5 -295q-17 -108 -64.5 -203.5t-130.5 -216.5l-333 -490h358l-43 -266h-811l448 639q62 88 88 126.5t78 122t79.5 150.5t37.5 127q6 30 4.5 63.5t-9 62t-30 47t-57.5 18.5
q-126 0 -162 -250z" />
    <glyph glyph-name="three" unicode="3" 
d="M422 406l-8 -44q-7 -45 16.5 -82.5t79.5 -37.5q44 0 76 20t50 56.5t26.5 68t15.5 74.5q20 128 -23.5 174t-175.5 41l43 266q130 0 187.5 40t78.5 163q23 158 -79 158q-101 0 -129 -160l-5 -31h-264q11 97 39.5 176.5t79 144t130.5 100.5t183 36q185 0 271.5 -109.5
t56.5 -294.5q-45 -289 -248 -364v-4q60 -16 101 -52.5t59.5 -85t24 -108t-6.5 -121.5q-34 -212 -175 -333.5t-353 -121.5q-194 0 -286 118.5t-52 312.5h287z" />
    <glyph glyph-name="four" unicode="4" 
d="M711 1544h336l-148 -938h125l-37 -233h-125l-59 -373h-297l59 373h-448l37 229zM602 606l92 586h-4l-321 -586h233z" />
    <glyph glyph-name="five" unicode="5" 
d="M276 784l240 760h590l-41 -266h-377l-80 -250q227 -12 322 -145t57 -365q-39 -254 -191 -398.5t-403 -144.5q-153 0 -287 70l95 268q78 -71 178 -71q115 0 189.5 81.5t93.5 198.5q22 139 -51.5 207t-215.5 68q-39 0 -119 -13z" />
    <glyph glyph-name="six" unicode="6" 
d="M666 1544h295l-390 -602l4 -4q55 43 101.5 63.5t103.5 20.5q67 0 117 -32t75 -83t40.5 -115t12.5 -128t-9 -121q-13 -86 -39 -165t-70 -153.5t-101 -129t-137.5 -87.5t-174.5 -33q-75 0 -134.5 21.5t-99 59.5t-65.5 89t-37 112.5t-11 126.5t11 134q16 101 48 199
t82.5 199t95 178t114.5 188zM629 752q-33 0 -61.5 -20.5t-47.5 -50.5t-34 -68.5t-23 -69.5t-12 -58q-5 -32 -5 -70.5t6 -81t28.5 -70t58.5 -27.5q41 0 74 30.5t53 79t30.5 87.5t16.5 77q5 35 6 71t-4.5 77.5t-27 67.5t-58.5 26z" />
    <glyph glyph-name="seven" unicode="7" 
d="M393 1544h834l-826 -1544h-317l684 1278h-416z" />
    <glyph glyph-name="eight" unicode="8" 
d="M459 831l2 5q-96 34 -137 123t-23 202q27 174 152 291t299 117q171 0 259.5 -117t61.5 -291q-18 -113 -86.5 -201.5t-177.5 -125.5v-3q257 -85 205 -409q-31 -192 -176.5 -319.5t-337.5 -127.5q-193 0 -298.5 128t-74.5 319q50 322 332 409zM598 1167q-24 -176 57 -176
q97 0 121 174q24 164 -67 164q-82 0 -111 -162zM608 684q-37 0 -67 -23t-49 -59.5t-30 -71.5t-16 -69q-6 -34 -5.5 -68.5t8 -70t31.5 -58t61 -22.5t68 23t50 59t31 70.5t17 66.5q6 29 3 67t-11 73t-32 59t-59 24z" />
    <glyph glyph-name="nine" unicode="9" 
d="M584 0h-295l391 604l-4 4q-56 -43 -103 -64.5t-104 -21.5q-67 0 -116.5 32.5t-75.5 84t-39 117t-12.5 127.5t10.5 121q13 86 39 165t69.5 153t100.5 128t137 86.5t174 32.5q75 0 135 -21t99.5 -59.5t65.5 -89t37 -112t10.5 -126.5t-11.5 -135q-29 -189 -112 -361
t-228 -401zM711 1305q-41 0 -74 -30t-53 -77.5t-30.5 -86.5t-16.5 -77q-5 -34 -6 -70t4.5 -77t27 -67.5t58.5 -26.5q41 0 75 30t55 76t32.5 86t17.5 76q5 33 5 70.5t-6.5 79t-29 68.5t-59.5 26z" />
    <glyph glyph-name="colon" unicode=":" horiz-adv-x="501" 
d="M307 365q81 0 128.5 -57.5t35.5 -137.5t-78 -137.5t-147 -57.5t-128.5 57.5t-35.5 137.5t78 137.5t147 57.5zM418 1055q81 0 128.5 -57.5t35.5 -137.5q-14 -80 -80.5 -137t-147.5 -57t-128 57t-33 137q12 80 78 137.5t147 57.5z" />
    <glyph glyph-name="semicolon" unicode=";" horiz-adv-x="501" 
d="M190 332h308l-408 -627h-205zM420 1055q81 0 128.5 -57.5t35.5 -137.5q-14 -80 -80.5 -137t-147.5 -57t-128 57t-33 137q12 80 78 137.5t147 57.5z" />
    <glyph glyph-name="less" unicode="&#x3c;" 
d="M371 524l622 -331l-37 -228l-847 461l32 203l996 465l-37 -228z" />
    <glyph glyph-name="equal" unicode="=" 
d="M1096 836l-37 -226h-920l37 226h920zM1032 436l-37 -225h-919l37 225h919z" />
    <glyph glyph-name="greater" unicode="&#x3e;" 
d="M74 193l727 331l-621 342l37 228l846 -465l-33 -203l-993 -461z" />
    <glyph glyph-name="question" unicode="?" horiz-adv-x="929" 
d="M524 1155l-6 -37h-289q26 203 146 327t319 124t295 -129.5t64 -331.5q-15 -90 -52 -174.5t-107 -156t-159 -93.5l-33 -201h-305l62 381q27 -6 49 -6q50 0 90 22t65 59t40.5 77.5t21.5 85.5q5 31 5.5 60.5t-4.5 64t-24.5 55.5t-52.5 21q-52 0 -84 -45.5t-41 -102.5z
M309 170q12 79 78.5 137t144.5 58q81 0 129.5 -57.5t36.5 -137.5t-79 -137.5t-148 -57.5q-78 0 -126 58t-36 137z" />
    <glyph glyph-name="at" unicode="@" horiz-adv-x="1705" 
d="M1153 764q13 64 9 117t-40.5 86t-99.5 28q-95 -7 -172.5 -82.5t-99.5 -175.5q-21 -96 11.5 -154t98.5 -67q53 -8 104 12.5t88 60t63.5 85t37.5 90.5zM1270 1061l39 108h200l-206 -626q-17 -47 18 -45q44 3 116 70q114 105 157 251l12 53q24 124 -1.5 227.5t-92 173
t-170 108t-232.5 38.5q-140 0 -268.5 -48t-227 -132.5t-165.5 -203t-89 -255.5q-23 -152 7.5 -275.5t107.5 -206.5t195.5 -128t269.5 -45q213 0 449 188h196q-141 -160 -317 -249t-369 -89q-249 0 -421 101.5t-243.5 284t-33.5 419.5q11 67 34 137.5t64 148.5t95 149.5
t130 136.5t165 112.5t205 76t245 28.5q208 0 363.5 -80.5t229 -227t44.5 -331.5q-16 -100 -54 -187t-86.5 -147.5t-107 -110t-114.5 -79.5t-110.5 -50.5t-93 -28.5t-63.5 -8q-42 0 -64.5 36t-1.5 91l-4 5q-150 -123 -272 -123q-106 0 -177.5 50t-99 134t-10.5 188
q15 93 60 180.5t111 154.5t155.5 108t185.5 41q174 0 240 -123z" />
    <glyph glyph-name="A" unicode="A" horiz-adv-x="1081" 
d="M618 1544h322l127 -1544h-326l-16 260h-309l-97 -260h-303zM719 502l-12 411l2 234h-4l-70 -234l-131 -411h215z" />
    <glyph glyph-name="B" unicode="B" horiz-adv-x="980" 
d="M682 469q15 92 -29 150t-133 55l-65 -418q89 -4 150.5 55t76.5 158zM406 0h-297l243 1544h299q110 0 179.5 -15t127.5 -69q66 -60 92 -154t11 -194q-35 -207 -217 -319q84 -43 117.5 -146.5t17.5 -212.5q-18 -111 -70.5 -196t-130.5 -136t-171.5 -76.5t-200.5 -25.5z
M772 1106q12 87 -28 136.5t-126 45.5l-61 -377q86 0 143.5 53t71.5 142z" />
    <glyph glyph-name="C" unicode="C" horiz-adv-x="925" 
d="M1122 1534l-45 -281q-63 17 -112 17q-97 0 -179.5 -41.5t-138.5 -111t-92.5 -153.5t-50.5 -176q-9 -70 -8.5 -141t22 -138t56 -118.5t94.5 -83t137 -31.5q42 0 121 23l-45 -289q-71 -26 -146 -26q-92 0 -172.5 23t-141.5 65t-110.5 100t-79.5 128t-48.5 149.5t-17.5 164
t13 172.5q18 115 65 227.5t120.5 211.5t165 174.5t206.5 119.5t236 44q72 0 151 -29z" />
    <glyph glyph-name="D" unicode="D" horiz-adv-x="1085" 
d="M381 0h-272l243 1544h232h13q327 16 473 -187q145 -202 83 -597q-27 -171 -83.5 -305.5t-147.5 -238.5t-228 -160t-313 -56zM457 274q70 -3 131 28.5t103.5 82.5t75.5 119t52 131.5t29 126.5q10 65 12 129t-9 134.5t-36.5 123t-77 87t-123.5 34.5z" />
    <glyph glyph-name="E" unicode="E" horiz-adv-x="802" 
d="M352 1544h615l-45 -287h-310l-53 -335h272l-45 -287h-272l-55 -348h313l-45 -287h-618z" />
    <glyph glyph-name="F" unicode="F" horiz-adv-x="806" 
d="M352 1544h617l-45 -287h-312l-51 -329h281l-45 -287h-281l-102 -641h-305z" />
    <glyph glyph-name="G" unicode="G" horiz-adv-x="1153" 
d="M737 860h500l-20 -121q-12 -76 -28.5 -146t-43.5 -148.5t-61 -144.5t-82.5 -127.5t-106 -104t-133.5 -68t-162 -25.5q-101 0 -179.5 34.5t-128 94.5t-81.5 136.5t-43 167t-9.5 179t15.5 177.5q18 115 50 221.5t88 215t129 188t179 130t232 50.5q172 0 272.5 -98.5
t124.5 -268.5l-315 -115q-1 31 -2.5 51.5t-9 51.5t-19.5 49.5t-36.5 32.5t-57.5 14q-49 3 -92 -23t-74 -73.5t-55.5 -100.5t-41.5 -117.5t-27 -109.5t-17 -90q-7 -42 -12 -79.5t-8.5 -92t-1.5 -98.5t12 -91.5t29 -79.5t53.5 -52.5t80.5 -20.5q55 0 98.5 33t69.5 86
t40.5 100.5t21.5 95.5h-195z" />
    <glyph glyph-name="H" unicode="H" horiz-adv-x="1136" 
d="M352 1544h305l-94 -604h309l95 604h305l-244 -1544h-305l104 653h-309l-104 -653h-305z" />
    <glyph glyph-name="I" unicode="I" horiz-adv-x="522" 
d="M352 1544h305l-243 -1544h-305z" />
    <glyph glyph-name="J" unicode="J" horiz-adv-x="720" 
d="M866 1544l-164 -1044q-24 -154 -57 -240q-111 -285 -395 -285q-140 0 -221 48l47 305q24 -39 63 -62.5t84 -23.5q39 0 68.5 17t45.5 36t29.5 60.5t17 60.5t10.5 66l3 18l164 1044h305z" />
    <glyph glyph-name="K" unicode="K" horiz-adv-x="1050" 
d="M352 1544h305l-108 -690h4l362 690h312l-398 -713l191 -831h-322l-155 786h-4l-125 -786h-305z" />
    <glyph glyph-name="L" unicode="L" horiz-adv-x="763" 
d="M352 1544h305l-198 -1257h319l-45 -287h-624z" />
    <glyph glyph-name="M" unicode="M" horiz-adv-x="1478" 
d="M426 1544h401l7 -911h4l266 911h409l-81 -1544h-314l103 1112h-4l-109 -381l-248 -731h-235l-33 739l4 344l4 29h-4l-221 -1112h-328z" />
    <glyph glyph-name="N" unicode="N" horiz-adv-x="1173" 
d="M352 1544h293l234 -932l6 4q-10 89 12 234l109 694h305l-244 -1544h-289l-229 932l-4 -4l-10 -156l-9 -63l-112 -709h-305z" />
    <glyph glyph-name="O" unicode="O" horiz-adv-x="1191" 
d="M844 1569q84 0 156.5 -27t134.5 -86.5t98 -152.5t47 -225.5t-18 -305.5q-27 -169 -79 -305t-118 -226.5t-146.5 -151.5t-161.5 -87.5t-165 -26.5t-156.5 27t-134 86.5t-97 152.5t-46.5 225.5t18 305.5q27 169 79 305t117.5 226.5t145.5 151.5t161 87.5t165 26.5zM502 772
q-7 -40 -11 -81.5t-8 -105.5t3 -117.5t21.5 -103t48 -78t81.5 -28.5t90.5 28.5t73 78.5t54 103t40.5 117t25.5 105t15.5 82q7 46 11 86.5t7.5 106t-3.5 117t-22 100.5t-48.5 76.5t-81.5 27.5q-58 0 -107 -41.5t-79.5 -98.5t-55.5 -135t-36 -132t-19 -107z" />
    <glyph glyph-name="P" unicode="P" horiz-adv-x="997" 
d="M414 0h-305l243 1544h318h14q53 2 94.5 0t123 -25t131 -66.5t80 -138t9.5 -227.5q-33 -214 -179 -334t-361 -120l-68 4zM618 1292l-65 -407q114 -5 180 43.5t84 163.5q32 200 -141 200h-58z" />
    <glyph glyph-name="Q" unicode="Q" horiz-adv-x="1191" 
d="M745 629l115 -154q46 105 76 297q7 46 11 86.5t7.5 106t-3.5 117t-22 100.5t-48.5 76.5t-81.5 27.5q-58 0 -107 -41.5t-79.5 -98.5t-55.5 -135t-36 -132t-19 -107q-7 -40 -11 -81.5t-8 -105.5t3 -117.5t21.5 -103t48 -78t81.5 -28.5q37 0 78 27l-152 190zM1061 227
l110 -135l-184 -151l-98 129q-139 -95 -297 -95q-84 0 -156.5 27t-134 86.5t-97 152.5t-46.5 225.5t18 305.5q27 169 79 305t117.5 226.5t145.5 151.5t161 87.5t165 26.5t156.5 -27t134.5 -86.5t98 -152.5t47 -225.5t-18 -305.5q-56 -351 -201 -545z" />
    <glyph glyph-name="R" unicode="R" horiz-adv-x="1085" 
d="M414 0h-305l243 1544h307q76 0 132.5 -5t136 -30t126.5 -69t72.5 -131t6.5 -207q-21 -132 -91.5 -235.5t-191.5 -164.5l158 -702h-322l-156 713h-4zM618 1292l-65 -411l53 -2q100 0 157 60t73 161q15 91 -26 144.5t-151 47.5h-41z" />
    <glyph glyph-name="S" unicode="S" horiz-adv-x="901" 
d="M979 1493l-47 -297q-94 98 -205 98q-71 0 -118.5 -40.5t-59.5 -110.5q-8 -51 11 -95.5t54.5 -79t79.5 -70t87 -77t76.5 -89.5t47.5 -119t0 -156q-33 -212 -172 -347t-348 -135q-68 0 -137 20.5t-113 57.5l47 291q105 -82 217 -82q75 0 133 46.5t70 121.5q5 16 2.5 33.5
t-3 29.5t-8 26.5t-12 23.5t-15.5 21t-18.5 19.5t-20.5 18.5t-22 17.5t-23 17.5t-23 18q-131 98 -184.5 199.5t-28.5 259.5q15 92 54.5 174t99 145t143 99.5t178.5 36.5q140 0 258 -76z" />
    <glyph glyph-name="T" unicode="T" horiz-adv-x="847" 
d="M274 1544h787l-45 -287h-242l-199 -1257h-305l199 1257h-240z" />
    <glyph glyph-name="U" unicode="U" horiz-adv-x="1114" 
d="M344 1544h305l-157 -999q-1 -9 -5.5 -36.5t-6.5 -39.5t-5 -38.5t-2.5 -40t2.5 -35.5t7.5 -34t14.5 -27.5t22.5 -23t33 -13t43.5 -5.5q31 0 56.5 7.5t43 17t31.5 29.5t22 34.5t15.5 44t10.5 45t9 49.5l168 1065h305l-178 -1126q-7 -44 -14 -77t-24.5 -82t-41 -85
t-64 -75.5t-91.5 -65t-126.5 -42t-166.5 -16.5q-219 0 -320.5 105t-66.5 317z" />
    <glyph glyph-name="V" unicode="V" horiz-adv-x="1157" 
d="M260 1544h328l67 -741q7 -51 10 -146.5t5 -117.5h4q8 24 36.5 120t51.5 148l303 737h319l-671 -1544h-250z" />
    <glyph glyph-name="W" unicode="W" horiz-adv-x="1624" 
d="M260 1544h311l15 -737q1 -48 -2.5 -103.5t-9 -121t-7.5 -103.5h4q6 21 27.5 99.5t36.5 129t33 99.5l270 737h242l28 -1065h4q8 33 23.5 101.5t29 121t29.5 101.5l238 741h319l-563 -1544h-264l-29 815q2 47 2 283h-4q-10 -30 -28 -88.5t-34 -105.5t-32 -89l-305 -815
h-266z" />
    <glyph glyph-name="X" unicode="X" horiz-adv-x="1116" 
d="M289 1544h344l55 -215q3 -17 10.5 -56t12 -61.5t9 -56t5.5 -61.5h4q37 101 107 235l125 215h329l-446 -747l227 -797h-354l-60 246q-13 61 -30 231h-4q-92 -205 -105 -231l-129 -246h-344l455 797z" />
    <glyph glyph-name="Y" unicode="Y" horiz-adv-x="1052" 
d="M252 1544h336l94 -420l10 -75h4l54 114l196 381h342l-487 -805l-117 -739h-305l117 739z" />
    <glyph glyph-name="Z" unicode="Z" horiz-adv-x="1040" 
d="M346 1544h907l-727 -1257h486l-45 -287h-930l713 1257h-449z" />
    <glyph glyph-name="bracketleft" unicode="[" horiz-adv-x="655" 
d="M352 1544h514l-30 -201h-248l-221 -1396h251l-32 -201h-518z" />
    <glyph glyph-name="backslash" unicode="\" horiz-adv-x="512" 
d="M0 1653h233l490 -1993h-234z" />
    <glyph glyph-name="bracketright" unicode="]" horiz-adv-x="655" 
d="M276 1544h515l-285 -1798h-518l32 201h252l222 1396h-248z" />
    <glyph glyph-name="asciicircum" unicode="^" 
d="M354 676l-188 96l457 772h245l217 -772l-221 -96l-162 596z" />
    <glyph glyph-name="underscore" unicode="_" horiz-adv-x="1024" 
d="M-25 -154h1024l-16 -102h-1024z" />
    <glyph glyph-name="grave" unicode="`" horiz-adv-x="614" 
d="M557 1544l152 -295l-156 -82l-219 283z" />
    <glyph glyph-name="a" unicode="a" horiz-adv-x="886" 
d="M487 244q32 0 59.5 34t44.5 85.5t26.5 90t13.5 68.5q4 23 7.5 51t4 70.5t-5 75t-22 56.5t-44.5 24q-33 0 -61 -32.5t-45.5 -86t-26 -88t-14.5 -70.5q-42 -278 63 -278zM528 0l19 117h-4q-41 -64 -90 -99q-56 -38 -123 -38q-66 0 -111.5 40.5t-66 100.5t-27.5 136.5
t-3 140t13 120.5q8 51 20.5 102t32.5 115.5t49 118.5t65.5 101t87 73.5t108.5 26.5q69 0 112.5 -40.5t57.5 -107.5h4l20 127h289l-164 -1034h-289z" />
    <glyph glyph-name="b" unicode="b" horiz-adv-x="886" 
d="M72 0l262 1653h289l-119 -746h4q40 70 90 105q59 43 127 43q70 0 116 -39.5t65 -97t24 -135.5t0 -140t-15 -125q-8 -47 -20.5 -98t-33 -114.5t-50.5 -119t-66.5 -103.5t-87 -75.5t-106.5 -27.5q-124 0 -168 137h-4l-19 -117h-288zM479 244q34 0 62.5 32.5t45.5 84
t26 88.5t14 73q5 32 8 70t2 89t-18 84.5t-50 33.5q-98 0 -147 -277q-3 -20 -5 -40t-4.5 -55.5t0 -64.5t8.5 -57.5t21 -44.5t37 -16z" />
    <glyph glyph-name="c" unicode="c" horiz-adv-x="645" 
d="M643 281l-43 -265q-82 -36 -172 -36q-68 0 -122 22.5t-88 62.5t-56.5 91t-31 111.5t-8 121t10.5 121.5q13 82 38 157t67 147t95.5 124.5t128 84.5t161.5 32q70 0 137 -31l-39 -254q-33 33 -80 33q-50 0 -90 -27.5t-65 -72t-39 -88.5t-21 -89q-8 -49 -8.5 -91t8.5 -87
t40.5 -71.5t82.5 -26.5q41 0 94 31z" />
    <glyph glyph-name="d" unicode="d" horiz-adv-x="886" 
d="M528 0l19 117h-4q-41 -64 -90 -99q-56 -38 -123 -38q-66 0 -111.5 40.5t-66 100.5t-27.5 136.5t-3 140t13 120.5q8 51 20.5 102t32.5 115.5t49 118.5t65.5 101t87 73.5t108.5 26.5q69 0 112.5 -40.5t57.5 -107.5h4l119 746h288l-262 -1653h-289zM487 244q32 0 59.5 34
t44.5 85.5t26.5 90t13.5 68.5q4 23 7.5 51t4 70.5t-5 75t-22 56.5t-44.5 24q-33 0 -61 -32.5t-45.5 -86t-26 -88t-14.5 -70.5q-42 -278 63 -278z" />
    <glyph glyph-name="e" unicode="e" horiz-adv-x="847" 
d="M643 618l4 25q5 31 5 59.5t-5.5 60.5t-24.5 51.5t-51 19.5q-31 0 -56.5 -19t-41 -49.5t-24.5 -59t-13 -57.5l-4 -31h211zM883 559l-25 -119h-457q-15 -113 -8 -157q14 -81 80 -82q92 0 111 118h245q-49 -160 -133 -241q-98 -98 -250 -98q-71 0 -127.5 20t-93 57t-61 85
t-34.5 106.5t-9.5 120t10.5 127.5q12 79 35.5 154t64 149.5t93 130.5t127 90.5t161.5 34.5q153 0 236 -132t35 -364z" />
    <glyph glyph-name="f" unicode="f" horiz-adv-x="612" 
d="M203 1034h106l45 291q11 65 24.5 112t39.5 94t62.5 76.5t94 47.5t132.5 18q55 0 122 -24l-45 -279q-26 16 -49 16q-17 0 -31 -5t-23.5 -11.5t-17.5 -20.5t-12.5 -22t-9 -28t-6 -27t-5 -28.5t-3.5 -24.5l-29 -185h133l-37 -237h-133l-127 -797h-289l127 797h-106z" />
    <glyph glyph-name="g" unicode="g" horiz-adv-x="894" 
d="M489 244q32 0 59 34t44 86t26 89.5t13 68.5q6 32 9 69t2.5 89t-18 85.5t-51.5 33.5q-28 0 -52.5 -24t-39.5 -55.5t-28.5 -75.5t-18.5 -69.5t-10 -52.5q-42 -278 65 -278zM41 -137h256q-13 -148 82 -148q23 0 43 9t34 22t25.5 36t18.5 41t13.5 47.5t9 45.5t7 45t5.5 37
l20 131h-4q-48 -71 -86 -102q-53 -47 -125 -47q-134 0 -195 172q-46 134 -12 350q7 44 16.5 87.5t26 100.5t36.5 106t49.5 98t63 83.5t79 56t96.5 21.5q69 0 114.5 -40.5t59.5 -105.5h4l20 125h289l-178 -1124q-34 -222 -147.5 -323t-307.5 -101q-350 0 -313 377z" />
    <glyph glyph-name="h" unicode="h" horiz-adv-x="868" 
d="M334 1653h289l-123 -779h4q42 78 114.5 129.5t153.5 51.5q41 0 70.5 -12.5t47 -30.5t27 -49t12 -57t-0.5 -67t-6.5 -67t-10.5 -67q-4 -25 -6 -37l-106 -668h-289l90 567q1 7 5 27t6.5 35.5t4.5 37t0 37t-7.5 30t-18 22.5t-31.5 8q-77 0 -96 -119l-103 -645h-288z" />
    <glyph glyph-name="i" unicode="i" horiz-adv-x="428" 
d="M233 1034h289l-164 -1034h-288zM395 1157q-75 0 -119 54.5t-32 131.5t75 130t142 53q74 0 117 -56t32 -131q-12 -74 -76 -128t-139 -54z" />
    <glyph glyph-name="j" unicode="j" horiz-adv-x="428" 
d="M233 1034h289l-243 -1544h-289zM395 1157q-75 0 -119 54.5t-32 131.5t75 130t142 53q74 0 117 -56t32 -131q-12 -74 -76 -128t-139 -54z" />
    <glyph glyph-name="k" unicode="k" horiz-adv-x="901" 
d="M334 1653h289l-156 -981h4l215 362h313l-301 -422l189 -612h-318l-129 479h-4l-76 -479h-288z" />
    <glyph glyph-name="l" unicode="l" horiz-adv-x="430" 
d="M334 1653h289l-263 -1653h-288z" />
    <glyph glyph-name="m" unicode="m" horiz-adv-x="1308" 
d="M524 1034l-24 -166h4q123 187 284 187q75 0 112.5 -50t37.5 -126h4q50 75 124 125.5t153 50.5q39 0 67 -12.5t44.5 -31t25 -49t11 -57t-0.5 -65.5t-6.5 -63.5t-9.5 -61.5l-113 -715h-289l88 561q19 100 16 138q-6 67 -55 67q-76 0 -96 -117l-102 -649h-289l92 580
q1 5 4.5 25.5t5.5 33.5t4 33.5t-0.5 34t-7.5 27.5t-16.5 21t-28.5 7q-82 0 -100 -119l-103 -643h-288l164 1034h288z" />
    <glyph glyph-name="n" unicode="n" horiz-adv-x="868" 
d="M524 1034l-24 -160h4q42 78 114.5 129.5t153.5 51.5q41 0 70.5 -12.5t47 -30.5t27 -49t12 -57t-0.5 -67t-6.5 -67t-10.5 -67q-4 -25 -6 -37l-106 -668h-289l90 567q1 7 5 27t6.5 35.5t4.5 37t0 37t-7.5 30t-18 22.5t-31.5 8q-77 0 -96 -119l-103 -645h-288l164 1034h288z
" />
    <glyph glyph-name="o" unicode="o" horiz-adv-x="892" 
d="M614 1055q90 0 154.5 -31t99.5 -82t51.5 -122.5t16 -145.5t-13.5 -158q-14 -84 -36.5 -157.5t-62 -144.5t-91 -121.5t-126 -81.5t-164.5 -31t-154.5 31t-100 81.5t-52 121.5t-15.5 144.5t15 157.5q13 84 35.5 158t62 145.5t91 122.5t126 82t164.5 31zM571 795
q-100 0 -147 -279q-4 -26 -7.5 -52.5t-4.5 -70t4 -75.5t22 -56t45 -24t53 24.5t40 55.5t28.5 75.5t18.5 70t10 52.5q6 33 8.5 70.5t1.5 89.5t-19 85.5t-53 33.5z" />
    <glyph glyph-name="p" unicode="p" horiz-adv-x="886" 
d="M479 244q36 0 64 32t45 84.5t25 87.5t14 74q5 32 8 70t2 89t-18 84.5t-50 33.5q-98 0 -147 -277q-3 -20 -5 -40t-4.5 -55.5t0 -64.5t8.5 -57.5t21 -44.5t37 -16zM524 1034l-20 -127h4q40 70 90 105q59 43 127 43q70 0 116 -39.5t65 -97t24 -135.5t0 -140t-15 -125
q-8 -47 -20.5 -98t-33 -114.5t-50.5 -119t-66.5 -103.5t-87 -75.5t-106.5 -27.5q-124 0 -168 137h-4l-98 -627h-289l244 1544h288z" />
    <glyph glyph-name="q" unicode="q" horiz-adv-x="886" 
d="M981 1034l-244 -1544h-288l98 627h-4q-41 -64 -90 -99q-56 -38 -123 -38q-66 0 -111.5 40.5t-66 100.5t-27.5 136.5t-3 140t13 120.5q8 51 20.5 102t32.5 115.5t49 118.5t65.5 101t87 73.5t108.5 26.5q69 0 112.5 -40.5t57.5 -107.5h4l20 127h289zM487 244q32 0 59.5 34
t44.5 85.5t26.5 90t13.5 68.5q4 23 7.5 51t4 70.5t-5 75t-22 56.5t-44.5 24q-33 0 -61 -32.5t-45.5 -86t-26 -88t-14.5 -70.5q-42 -278 63 -278z" />
    <glyph glyph-name="r" unicode="r" horiz-adv-x="645" 
d="M236 1034h288l-20 -125h4q114 151 262 164l-45 -280q-28 4 -43 4q-32 0 -58.5 -5t-46.5 -12t-37.5 -22t-29 -27t-22 -34.5t-16.5 -38.5t-12 -45t-9.5 -46.5t-8.5 -50.5l-82 -516h-288z" />
    <glyph glyph-name="s" unicode="s" horiz-adv-x="770" 
d="M862 967l-151 -211q-32 34 -59.5 50.5t-67.5 16.5q-38 0 -61.5 -20.5t-28.5 -54.5q-3 -24 12 -44t41.5 -36t59 -33t63.5 -42t54.5 -56.5t33.5 -81.5t0 -113q-24 -158 -128.5 -260t-260.5 -102q-82 0 -158.5 31.5t-132.5 86.5l158 205q35 -33 64.5 -50t68.5 -17
q35 0 63.5 24t34.5 62q5 27 -9.5 49.5t-40.5 38.5t-58.5 35.5t-64 42.5t-55.5 59.5t-34 85t0 119.5q15 95 75.5 165t143.5 104t176 34q155 0 262 -88z" />
    <glyph glyph-name="t" unicode="t" horiz-adv-x="630" 
d="M371 1321h288l-45 -287h119l-37 -237h-118l-127 -797h-289l127 797h-101l37 237h101z" />
    <glyph glyph-name="u" unicode="u" horiz-adv-x="866" 
d="M236 1034h288l-90 -567q-1 -7 -8 -43t-9.5 -59.5t-1 -53.5t16 -45.5t41.5 -15.5q73 0 94 143q1 7 2 10l103 631h286l-104 -659q-30 -187 -138 -291t-294 -104q-68 0 -120.5 14.5t-85 38t-53.5 59.5t-30 71.5t-10 82.5t2.5 84.5t11.5 83.5z" />
    <glyph glyph-name="v" unicode="v" horiz-adv-x="925" 
d="M195 1034h286l47 -567v-16h4l39 106l189 477h299l-463 -1034h-268z" />
    <glyph glyph-name="w" unicode="w" horiz-adv-x="1421" 
d="M195 1034h280l43 -606h4l232 606h247l35 -606h4l39 111l201 495h274l-450 -1034h-238l-39 350l-14 299h-4l-111 -330l-133 -319h-241z" />
    <glyph glyph-name="x" unicode="x" horiz-adv-x="1001" 
d="M250 1034h299l57 -157l21 -64l151 221h299l-340 -477l217 -557h-305l-106 285l-199 -285h-297l385 557z" />
    <glyph glyph-name="y" unicode="y" horiz-adv-x="925" 
d="M195 1034h290l43 -418l7 -172h4l229 590h291l-688 -1544h-285l250 530z" />
    <glyph glyph-name="z" unicode="z" horiz-adv-x="821" 
d="M244 1034h694l-444 -794h284l-39 -240h-692l453 795h-295z" />
    <glyph glyph-name="braceleft" unicode="{" horiz-adv-x="614" 
d="M580 -254h-134q-121 0 -181 35t-71 105.5t7 176.5l45 283q8 64 3.5 112t-35 76.5t-87.5 28.5l25 156q82 0 127 61.5t59 155.5l53 332q22 143 90.5 209.5t204.5 66.5h178l-24 -155q-95 0 -137.5 -52.5t-57.5 -152.5l-43 -271q-20 -121 -64.5 -183t-146.5 -85v-4
q51 -9 81.5 -36t40.5 -69.5t9.5 -86t-10.5 -99.5l-39 -244q-8 -41 -5.5 -78t13.5 -65t42.5 -44.5t80.5 -16.5z" />
    <glyph glyph-name="bar" unicode="|" horiz-adv-x="851" 
d="M432 1792h238v-2388h-238v2388z" />
    <glyph glyph-name="braceright" unicode="}" horiz-adv-x="614" 
d="M86 -254h-133l24 156q95 0 139 55t58 149l39 244q10 58 23 100.5t36.5 85t62.5 69.5t93 36v4q-96 23 -120.5 85t-4.5 183l43 271q8 60 4 106t-37.5 72.5t-99.5 26.5l25 155h178q136 0 183.5 -66.5t25.5 -209.5l-54 -332q-6 -56 -2 -104.5t35.5 -80.5t87.5 -32l-24 -156
q-158 0 -189 -217l-45 -283q-14 -85 -35 -140t-59.5 -97.5t-100.5 -61t-153 -18.5z" />
    <glyph glyph-name="asciitilde" unicode="~" 
d="M965 735l90 -149q-81 -113 -120 -152q-88 -87 -181 -88q-53 0 -129 34t-141 67.5t-91 33.5q-24 0 -45 -9t-43 -32t-32.5 -35.5t-35 -49t-28.5 -42.5l-92 152q34 52 63.5 90.5t70 79t86.5 62.5t93 22q45 0 100.5 -21t98 -46.5t88.5 -46.5t74 -21q27 0 54.5 17.5t41 32.5
t43 54.5t35.5 46.5z" />
    <glyph glyph-name="uni00A0" unicode="&#xa0;" horiz-adv-x="501" 
 />
    <glyph glyph-name="exclamdown" unicode="&#xa1;" horiz-adv-x="503" 
d="M322 -510h-302l170 1081h302zM420 1061q79 0 127.5 -57.5t36.5 -137.5q-12 -79 -79 -136.5t-147 -57.5q-79 0 -127 57t-36 137q12 79 78.5 137t146.5 58z" />
    <glyph glyph-name="cent" unicode="&#xa2;" 
d="M455 104l20 134q-74 24 -123.5 77t-68.5 120t-23.5 146t10.5 154q11 69 28 133.5t48 135t71 126.5t99 102t129 68l23 142h133l-21 -129q66 -7 115 -29l-41 -260q-39 31 -70 31q-47 0 -86.5 -31.5t-64 -80.5t-39.5 -95.5t-21 -89.5q-7 -41 -6.5 -81.5t9.5 -82t37 -67
t73 -25.5q40 0 90 26l-41 -260q-57 -24 -127 -37l-20 -127h-133z" />
    <glyph glyph-name="sterling" unicode="&#xa3;" 
d="M90 0l37 231q153 136 176 342h-190l26 158h176q3 45 0 185t9 186q33 204 169 329t338 125q109 0 183 -34t109 -95t44.5 -145.5t-10.5 -185.5h-262l6 32q6 29 4.5 60.5t-9 57.5t-29.5 42.5t-56 16.5q-80 0 -127 -58.5t-59 -136.5q-11 -68 -10 -189.5t-5 -189.5h260
l-26 -158h-266q-40 -180 -148 -323l43 2q53 0 153.5 -20.5t155.5 -20.5q127 0 232 51l-37 -242q-82 -43 -186 -43q-83 0 -237.5 30t-236.5 30q-109 0 -227 -37z" />
    <glyph glyph-name="currency" unicode="&#xa4;" 
d="M53 281l101 90q-27 69 -34.5 125t3.5 137q22 139 113 264l-72 86l182 164l72 -88q139 78 264 78q137 0 248 -78l102 88l121 -164l-98 -86q55 -122 32 -262q-24 -155 -114 -264l69 -90l-174 -162l-73 88q-143 -78 -265 -78q-140 0 -247 78l-101 -88zM647 895
q-99 0 -183 -79t-99 -181t43 -183t157 -81q100 0 183 80.5t98 183.5t-42 181.5t-157 78.5z" />
    <glyph glyph-name="yen" unicode="&#xa5;" 
d="M1264 1544l-353 -586h154l-21 -135h-215l-51 -84l-14 -88h252l-21 -135h-252l-81 -516h-310l82 516h-254l21 135h254l14 88l-25 84h-215l21 135h153l-176 586h336l82 -502l10 -75h4l263 577h342z" />
    <glyph glyph-name="brokenbar" unicode="&#xa6;" horiz-adv-x="851" 
d="M432 1614h238v-836h-238v836zM432 418h238v-834h-238v834z" />
    <glyph glyph-name="section" unicode="&#xa7;" horiz-adv-x="1005" 
d="M602 432l21 -14q59 19 97.5 59t47.5 94q5 29 -1.5 55.5t-16.5 44t-34.5 38.5t-38.5 30t-46 28.5t-41 25.5l-43 26q-101 -56 -115 -147q-5 -35 1.5 -65t19 -51t36.5 -43t43.5 -35.5t50.5 -33.5q13 -8 19 -12zM389 20l-4 -26q-11 -70 13.5 -109t99.5 -39q49 0 79.5 39
t40.5 99q7 44 -1 78t-32.5 61.5t-46.5 45t-62 43.5q-15 10 -23 15q-128 84 -133 88q-113 81 -145 170q-24 67 -13 152q30 186 209 297q-49 43 -70.5 114.5t-9.5 151.5q32 184 157 276.5t291 92.5q189 0 280 -99.5t62 -285.5l-8 -43h-272l8 47q12 71 -13.5 116.5t-95.5 45.5
q-60 0 -94.5 -34.5t-42.5 -92.5q0 -25 6.5 -48t13.5 -39.5t23.5 -35t27 -29t34 -26.5t33.5 -22t37.5 -21.5t35.5 -20.5q121 -70 158 -99q98 -78 109 -190q3 -41 -3 -90q-12 -103 -73.5 -185.5t-165.5 -137.5q67 -51 92.5 -134.5t9.5 -179.5q-17 -107 -83.5 -185.5
t-158.5 -115.5t-198 -37q-85 0 -156 22t-122 65t-73 112t-8 156l7 38h280z" />
    <glyph glyph-name="dieresis" unicode="&#xa8;" horiz-adv-x="614" 
d="M461 1350q-9 -61 -61 -105.5t-115 -44.5q-62 0 -100 44.5t-29 105.5q11 65 62.5 110t117.5 45q63 0 99.5 -46t25.5 -109zM887 1350q-9 -61 -61 -105.5t-115 -44.5q-62 0 -100 44.5t-29 105.5q11 65 62.5 110t117.5 45q63 0 99.5 -46t25.5 -109z" />
    <glyph glyph-name="copyright" unicode="&#xa9;" horiz-adv-x="1699" 
d="M848 -25q-219 0 -388 107t-247.5 291.5t-44.5 402.5q26 162 113 309t211.5 253t284 168.5t323.5 62.5t302.5 -62.5t229.5 -168.5t131.5 -253t14.5 -309q-34 -218 -171 -402.5t-338.5 -291.5t-420.5 -107zM872 125q175 1 337 88.5t271.5 237t137.5 325.5q27 174 -35.5 322
t-196.5 234.5t-309 86.5q-178 0 -341 -86.5t-272 -234.5t-136 -322q-28 -176 34 -325.5t197 -237t313 -88.5zM1180 633h182q-39 -141 -160 -226t-266 -85q-131 0 -223.5 61t-130 165.5t-17.5 233.5q31 201 171 330t341 129q148 0 239 -81t95 -222h-182q-3 74 -50.5 115
t-125.5 41q-122 0 -205 -90.5t-103 -217.5q-13 -78 5.5 -149.5t73 -119.5t134.5 -48q76 0 140.5 46t81.5 118z" />
    <glyph glyph-name="ordfeminine" unicode="&#xaa;" horiz-adv-x="614" 
d="M610 1556h191l-99 -620h-190l12 70h-4q-54 -82 -135 -82q-52 0 -85 35t-42 85t-11 105.5t7 97.5q7 39 16 75t28 83.5t42.5 81.5t61.5 58t83 24t73.5 -24.5t39.5 -63.5h2zM535 1413q-21 0 -39 -20t-28.5 -49.5t-16 -53.5t-7.5 -41q-26 -170 41 -170q21 0 38.5 21t29 53
t18 54.5t9.5 41.5q19 164 -45 164z" />
    <glyph glyph-name="guillemotleft" unicode="&#xab;" horiz-adv-x="886" 
d="M1001 1075l-274 -399l150 -387l-170 -88l-193 475l342 479zM647 1075l-272 -399l147 -387l-168 -88l-194 475l344 479z" />
    <glyph glyph-name="logicalnot" unicode="&#xac;" 
d="M774 229l60 381h-695l37 226h920l-97 -607h-225z" />
    <glyph glyph-name="uni00AD" unicode="&#xad;" horiz-adv-x="651" 
d="M199 813h512l-43 -272h-512z" />
    <glyph glyph-name="registered" unicode="&#xae;" horiz-adv-x="1699" 
d="M848 -25q-219 0 -388 107t-247.5 291.5t-44.5 402.5q26 162 113 309t211.5 253t284 168.5t323.5 62.5t302.5 -62.5t229.5 -168.5t131.5 -253t14.5 -309q-34 -218 -171 -402.5t-338.5 -291.5t-420.5 -107zM872 125q175 1 337 88.5t271.5 237t137.5 325.5q27 174 -35.5 322
t-196.5 234.5t-309 86.5q-178 0 -341 -86.5t-272 -234.5t-136 -322q-28 -176 34 -325.5t197 -237t313 -88.5zM1153 711l152 -369h-199l-133 369h-170l-60 -369h-170l140 870h420q167 0 227 -43q92 -67 67 -225q-18 -115 -85.5 -170t-188.5 -63zM823 840h254q81 -2 127.5 26
t57.5 105q4 23 -1 41.5t-13.5 30t-26.5 20t-32 12t-39.5 6t-38 2.5h-38.5h-211z" />
    <glyph glyph-name="macron" unicode="&#xaf;" horiz-adv-x="614" 
d="M877 1364h-709l25 152h708z" />
    <glyph glyph-name="degree" unicode="&#xb0;" horiz-adv-x="819" 
d="M657 1569q126 0 203.5 -90.5t57.5 -216.5q-22 -127 -126.5 -217.5t-230.5 -90.5q-128 0 -204 90.5t-54 217.5q19 126 123 216.5t231 90.5zM633 1407q-60 0 -110.5 -42.5t-57.5 -102.5q-10 -61 25.5 -103.5t97.5 -42.5q60 0 109 42.5t59 103.5q9 60 -26.5 102.5
t-96.5 42.5z" />
    <glyph glyph-name="plusminus" unicode="&#xb1;" 
d="M516 807l45 274h225l-45 -274h349l-35 -225h-348l-43 -275h-226l43 275h-346l35 225h346zM43 0l35 225h919l-34 -225h-920z" />
    <glyph glyph-name="twosuperior" unicode="&#xb2;" horiz-adv-x="602" 
d="M436 1221h-194l4 51q11 66 31 115t55.5 89.5t93.5 61.5t137 21q135 0 195.5 -59.5t40.5 -178.5q-10 -64 -39 -120t-82 -132l-219 -274h239l-26 -168h-539l285 372q50 67 76 103t61.5 101.5t42.5 111.5q13 106 -57 106q-75 0 -97 -141z" />
    <glyph glyph-name="threesuperior" unicode="&#xb3;" horiz-adv-x="602" 
d="M348 870l-4 -26q-5 -36 7.5 -62t45.5 -26q84 0 105 147q10 73 -17.5 100.5t-105.5 24.5l24 156q80 0 116 24.5t48 96.5q15 100 -45 100q-34 0 -53 -31.5t-25 -70.5l-4 -19h-184q19 128 84 199q73 76 203 76q124 0 181.5 -65.5t39.5 -176.5q-28 -170 -158 -215v-4
q75 -18 103.5 -77t15.5 -136q-20 -128 -112 -200.5t-234 -72.5q-131 0 -192.5 70t-36.5 188h198z" />
    <glyph glyph-name="acute" unicode="&#xb4;" horiz-adv-x="614" 
d="M545 1544l194 -94l-309 -283l-127 82z" />
    <glyph glyph-name="mu" unicode="&#xb5;" horiz-adv-x="866" 
d="M672 1034h289l-107 -667q-22 -143 -35 -190q-51 -176 -185 -195q-17 -2 -36 -2q-81 0 -136 51t-75 129h-4l-104 -670h-289l243 1544h289l-102 -645q-19 -119 59 -119q22 0 39 11.5t26.5 27t17.5 41t10.5 42t5.5 43.5t4 32z" />
    <glyph glyph-name="paragraph" unicode="&#xb6;" horiz-adv-x="1228" 
d="M723 -229l244 1532h-140l-243 -1532h-242l168 1058q-155 0 -223.5 96t-42.5 255q32 198 148 281t319 83h620l-37 -241h-86l-243 -1532h-242z" />
    <glyph glyph-name="periodcentered" unicode="&#xb7;" horiz-adv-x="501" 
d="M365 719q81 0 128 -57.5t35 -137.5q-14 -80 -79 -137t-146 -57q-82 0 -130 57t-34 137q12 80 78.5 137.5t147.5 57.5z" />
    <glyph glyph-name="cedilla" unicode="&#xb8;" horiz-adv-x="614" 
d="M279 -98l174 -74l-260 -274l-117 65z" />
    <glyph glyph-name="onesuperior" unicode="&#xb9;" horiz-adv-x="602" 
d="M360 1544h306l-146 -917h-209l121 757h-96z" />
    <glyph glyph-name="ordmasculine" unicode="&#xba;" horiz-adv-x="614" 
d="M555 1569q72 0 120.5 -28t67.5 -74t24.5 -104t-7.5 -118q-10 -63 -31 -116.5t-56 -101.5t-91.5 -75.5t-128.5 -27.5q-58 0 -101 18.5t-65.5 49.5t-35 72.5t-11 87.5t7.5 93q11 65 32 119t56 102t91 75.5t128 27.5zM530 1413q-67 0 -94 -168q-21 -166 41 -166
q22 0 40.5 21t29 51.5t16.5 53.5t8 40q27 168 -41 168z" />
    <glyph glyph-name="guillemotright" unicode="&#xbb;" horiz-adv-x="886" 
d="M393 1155l193 -479l-342 -475l-144 88l271 387l-146 399zM748 1155l192 -479l-342 -475l-143 88l270 387l-145 399z" />
    <glyph glyph-name="onequarter" unicode="&#xbc;" horiz-adv-x="1505" 
d="M1124 0l35 217h-297l23 143l354 558h240l-86 -537h77l-24 -164h-78l-35 -217h-209zM1245 1544h176l-979 -1544h-178zM352 1544h305l-145 -917h-209l121 757h-96zM1184 381l53 336h-4l-197 -336h148z" />
    <glyph glyph-name="onehalf" unicode="&#xbd;" horiz-adv-x="1505" 
d="M1190 1544h176l-979 -1544h-178zM358 1544h306l-146 -917h-209l121 757h-96zM1384 0h-538l284 373q50 67 76 103t61 101t42 111q7 43 -6 75t-52 32q-77 0 -94 -142l-8 -59h-195l4 51q11 66 31 115t55.5 89.5t93 61.5t136.5 21q274 0 237 -238q-11 -65 -40.5 -123
t-81.5 -129l-218 -274h240z" />
    <glyph glyph-name="threequarters" unicode="&#xbe;" horiz-adv-x="1505" 
d="M1370 0h-209l35 217h-297l23 143l354 558h240l-86 -537h77l-24 -164h-78zM1221 377l53 332h-4l-197 -332h148zM1333 1544h176l-979 -1544h-178zM395 870l-4 -26q-5 -36 7.5 -62t45.5 -26q84 0 105 147q10 73 -17.5 100.5t-105.5 24.5l25 156q80 0 115.5 24.5t47.5 96.5
q15 100 -45 100q-34 0 -52.5 -31t-24.5 -71l-5 -19h-184q19 128 84 199q73 76 203 76q124 0 181.5 -65.5t39.5 -176.5q-28 -170 -158 -215v-4q75 -18 103.5 -77t15.5 -136q-20 -128 -112 -200.5t-234 -72.5q-131 0 -192.5 70t-36.5 188h198z" />
    <glyph glyph-name="questiondown" unicode="&#xbf;" horiz-adv-x="929" 
d="M391 551h305l-61 -381q-27 6 -49 6q-50 0 -90 -22t-65 -59t-40.5 -77.5t-21.5 -85.5q-5 -31 -5.5 -60t4 -63.5t24 -55.5t52.5 -21q52 0 84 45t41 102l6 37h289q-26 -203 -146 -327t-319 -124t-294.5 129.5t-63.5 331.5q15 91 51.5 174.5t106.5 155.5t159 94zM623 1061
q81 0 129 -57.5t36 -137.5t-78.5 -137t-148.5 -57q-78 0 -126 57.5t-36 136.5t79 137t145 58z" />
    <glyph glyph-name="Agrave" unicode="&#xc0;" horiz-adv-x="1081" 
d="M618 1544h322l127 -1544h-326l-16 260h-309l-97 -260h-303zM719 502l-12 411l2 234h-4l-70 -234l-131 -411h215zM834 2003l149 -295l-154 -82l-219 283z" />
    <glyph glyph-name="Aacute" unicode="&#xc1;" horiz-adv-x="1081" 
d="M618 1544h322l127 -1544h-326l-16 260h-309l-97 -260h-303zM719 502l-12 411l2 234h-4l-70 -234l-131 -411h215zM883 2003l194 -94l-309 -283l-129 82z" />
    <glyph glyph-name="Acircumflex" unicode="&#xc2;" horiz-adv-x="1081" 
d="M618 1544h322l127 -1544h-326l-16 260h-309l-97 -260h-303zM719 502l-12 411l2 234h-4l-70 -234l-131 -411h215zM854 1991l260 -248l-145 -127l-152 143l-203 -143l-90 143z" />
    <glyph glyph-name="Atilde" unicode="&#xc3;" horiz-adv-x="1081" 
d="M618 1544h322l127 -1544h-326l-16 260h-309l-97 -260h-303zM719 502l-12 411l2 234h-4l-70 -234l-131 -411h215zM1034 1974l152 -10q-11 -33 -18.5 -54t-21.5 -53t-26.5 -52t-32 -44t-40.5 -37.5t-49 -22.5t-60 -9q-58 0 -154 45q-5 2 -15.5 7t-16 7.5t-14.5 5.5t-18 4.5
t-18 1.5q-54 0 -75 -65h-150q12 45 22.5 76.5t30.5 71.5t43 64.5t59.5 42t80.5 17.5q46 0 88.5 -19.5t78 -39t66.5 -19.5q66 0 88 82z" />
    <glyph glyph-name="Adieresis" unicode="&#xc4;" horiz-adv-x="1081" 
d="M618 1544h322l127 -1544h-326l-16 260h-309l-97 -260h-303zM719 502l-12 411l2 234h-4l-70 -234l-131 -411h215zM768 1808q-9 -61 -62 -105t-116 -44q-61 0 -98.5 43.5t-28.5 105.5q11 65 62.5 110.5t117.5 45.5q62 0 98 -46t27 -110zM1194 1808q-9 -61 -62 -105
t-116 -44q-61 0 -98.5 43.5t-28.5 105.5q11 65 62.5 110.5t117.5 45.5q62 0 98 -46t27 -110z" />
    <glyph glyph-name="Aring" unicode="&#xc5;" horiz-adv-x="1081" 
d="M618 1544h322l127 -1544h-326l-16 260h-309l-97 -260h-303zM719 502l-12 411l2 234h-4l-70 -234l-131 -411h215zM780 1583q-92 0 -146.5 64.5t-39.5 158.5q13 93 89.5 157.5t170.5 64.5q91 0 143 -67t37 -159q-14 -89 -88.5 -154t-165.5 -65zM803 1718q34 0 63 25t33 59
q6 37 -14.5 63.5t-55.5 26.5q-37 0 -66.5 -25t-33.5 -63q-6 -37 15.5 -61.5t58.5 -24.5z" />
    <glyph glyph-name="AE" unicode="&#xc6;" horiz-adv-x="1380" 
d="M717 500l-19 293l7 352h-5l-202 -645h219zM745 0l-16 258h-321l-89 -258h-303l594 1544h629l21 -287h-306l31 -319h305l23 -287h-301l28 -364h297l27 -287h-619z" />
    <glyph glyph-name="Ccedilla" unicode="&#xc7;" horiz-adv-x="925" 
d="M1122 1534l-45 -281q-63 17 -112 17q-97 0 -179.5 -41.5t-138.5 -111t-92.5 -153.5t-50.5 -176q-9 -70 -8.5 -141t22 -138t56 -118.5t94.5 -83t137 -31.5q42 0 121 23l-45 -289q-71 -26 -146 -26q-92 0 -172.5 23t-141.5 65t-110.5 100t-79.5 128t-48.5 149.5t-17.5 164
t13 172.5q18 115 65 227.5t120.5 211.5t165 174.5t206.5 119.5t236 44q72 0 151 -29zM496 -98l174 -74l-260 -274l-117 65z" />
    <glyph glyph-name="Egrave" unicode="&#xc8;" horiz-adv-x="802" 
d="M352 1544h615l-45 -287h-310l-53 -335h272l-45 -287h-272l-55 -348h313l-45 -287h-618zM694 2003l150 -295l-154 -82l-219 283z" />
    <glyph glyph-name="Eacute" unicode="&#xc9;" horiz-adv-x="802" 
d="M352 1544h615l-45 -287h-310l-53 -335h272l-45 -287h-272l-55 -348h313l-45 -287h-618zM784 2003l195 -94l-309 -283l-129 82z" />
    <glyph glyph-name="Ecircumflex" unicode="&#xca;" horiz-adv-x="802" 
d="M352 1544h615l-45 -287h-310l-53 -335h272l-45 -287h-272l-55 -348h313l-45 -287h-618zM715 1991l260 -248l-146 -127l-151 143l-203 -143l-90 143z" />
    <glyph glyph-name="Edieresis" unicode="&#xcb;" horiz-adv-x="802" 
d="M352 1544h615l-45 -287h-310l-53 -335h272l-45 -287h-272l-55 -348h313l-45 -287h-618zM629 1808q-9 -61 -62 -105t-116 -44q-61 0 -98.5 43.5t-28.5 105.5q11 65 62.5 110.5t117.5 45.5q62 0 98 -46t27 -110zM1055 1808q-9 -61 -62 -105t-116 -44q-61 0 -98.5 43.5
t-28.5 105.5q11 65 62.5 110.5t117.5 45.5q62 0 98 -46t27 -110z" />
    <glyph glyph-name="Igrave" unicode="&#xcc;" horiz-adv-x="522" 
d="M352 1544h305l-243 -1544h-305zM543 2003l149 -295l-153 -82l-220 283z" />
    <glyph glyph-name="Iacute" unicode="&#xcd;" horiz-adv-x="522" 
d="M352 1544h305l-243 -1544h-305zM612 2003l195 -94l-309 -283l-129 82z" />
    <glyph glyph-name="Icircumflex" unicode="&#xce;" horiz-adv-x="522" 
d="M352 1544h305l-243 -1544h-305zM575 1991l261 -248l-146 -127l-151 143l-203 -143l-90 143z" />
    <glyph glyph-name="Idieresis" unicode="&#xcf;" horiz-adv-x="522" 
d="M352 1544h305l-243 -1544h-305zM489 1808q-9 -61 -62 -105t-116 -44q-61 0 -98.5 43.5t-28.5 105.5q11 65 63 110.5t118 45.5q62 0 97.5 -46t26.5 -110zM915 1808q-9 -61 -62 -105t-116 -44q-61 0 -98.5 43.5t-28.5 105.5q11 65 63 110.5t118 45.5q62 0 97.5 -46
t26.5 -110z" />
    <glyph glyph-name="Eth" unicode="&#xd0;" horiz-adv-x="1085" 
d="M381 0h-272l100 635h-109l45 285h109l98 624h232h13q327 16 473 -187q145 -202 83 -597q-27 -171 -83.5 -305.5t-147.5 -238.5t-228 -160t-313 -56zM848 762q10 65 12 129t-9 134.5t-36.5 123t-77 87t-123.5 34.5l-55 -348h109l-45 -287h-109l-57 -361q70 -3 131 28.5
t103.5 82.5t75.5 119t52 131.5t29 126.5z" />
    <glyph glyph-name="Ntilde" unicode="&#xd1;" horiz-adv-x="1173" 
d="M352 1544h293l234 -932l6 4q-10 89 12 234l109 694h305l-244 -1544h-289l-229 932l-4 -4l-10 -156l-9 -63l-112 -709h-305zM1081 1974l152 -10q-11 -33 -18.5 -54t-21.5 -53t-26.5 -52t-32 -44t-40.5 -37.5t-49 -22.5t-60 -9q-58 0 -154 45q-4 2 -18.5 8.5t-20.5 9
t-18 5.5t-24 3q-55 0 -76 -65h-150q12 45 22.5 76.5t30.5 71.5t43 64.5t59.5 42t80.5 17.5q46 0 88.5 -19.5t78 -39t66.5 -19.5q66 0 88 82z" />
    <glyph glyph-name="Ograve" unicode="&#xd2;" horiz-adv-x="1191" 
d="M844 1569q84 0 156.5 -27t134.5 -86.5t98 -152.5t47 -225.5t-18 -305.5q-27 -169 -79 -305t-118 -226.5t-146.5 -151.5t-161.5 -87.5t-165 -26.5t-156.5 27t-134 86.5t-97 152.5t-46.5 225.5t18 305.5q27 169 79 305t117.5 226.5t145.5 151.5t161 87.5t165 26.5zM502 772
q-7 -40 -11 -81.5t-8 -105.5t3 -117.5t21.5 -103t48 -78t81.5 -28.5t90.5 28.5t73 78.5t54 103t40.5 117t25.5 105t15.5 82q7 46 11 86.5t7.5 106t-3.5 117t-22 100.5t-48.5 76.5t-81.5 27.5q-58 0 -107 -41.5t-79.5 -98.5t-55.5 -135t-36 -132t-19 -107zM868 2003l150 -295
l-154 -82l-219 283z" />
    <glyph glyph-name="Oacute" unicode="&#xd3;" horiz-adv-x="1191" 
d="M844 1569q84 0 156.5 -27t134.5 -86.5t98 -152.5t47 -225.5t-18 -305.5q-27 -169 -79 -305t-118 -226.5t-146.5 -151.5t-161.5 -87.5t-165 -26.5t-156.5 27t-134 86.5t-97 152.5t-46.5 225.5t18 305.5q27 169 79 305t117.5 226.5t145.5 151.5t161 87.5t165 26.5zM502 772
q-7 -40 -11 -81.5t-8 -105.5t3 -117.5t21.5 -103t48 -78t81.5 -28.5t90.5 28.5t73 78.5t54 103t40.5 117t25.5 105t15.5 82q7 46 11 86.5t7.5 106t-3.5 117t-22 100.5t-48.5 76.5t-81.5 27.5q-58 0 -107 -41.5t-79.5 -98.5t-55.5 -135t-36 -132t-19 -107zM979 2003l195 -94
l-310 -283l-129 82z" />
    <glyph glyph-name="Ocircumflex" unicode="&#xd4;" horiz-adv-x="1191" 
d="M844 1569q84 0 156.5 -27t134.5 -86.5t98 -152.5t47 -225.5t-18 -305.5q-27 -169 -79 -305t-118 -226.5t-146.5 -151.5t-161.5 -87.5t-165 -26.5t-156.5 27t-134 86.5t-97 152.5t-46.5 225.5t18 305.5q27 169 79 305t117.5 226.5t145.5 151.5t161 87.5t165 26.5zM502 772
q-7 -40 -11 -81.5t-8 -105.5t3 -117.5t21.5 -103t48 -78t81.5 -28.5t90.5 28.5t73 78.5t54 103t40.5 117t25.5 105t15.5 82q7 46 11 86.5t7.5 106t-3.5 117t-22 100.5t-48.5 76.5t-81.5 27.5q-58 0 -107 -41.5t-79.5 -98.5t-55.5 -135t-36 -132t-19 -107zM909 1991l260 -248
l-145 -127l-152 143l-202 -143l-90 143z" />
    <glyph glyph-name="Otilde" unicode="&#xd5;" horiz-adv-x="1191" 
d="M844 1569q84 0 156.5 -27t134.5 -86.5t98 -152.5t47 -225.5t-18 -305.5q-27 -169 -79 -305t-118 -226.5t-146.5 -151.5t-161.5 -87.5t-165 -26.5t-156.5 27t-134 86.5t-97 152.5t-46.5 225.5t18 305.5q27 169 79 305t117.5 226.5t145.5 151.5t161 87.5t165 26.5zM502 772
q-7 -40 -11 -81.5t-8 -105.5t3 -117.5t21.5 -103t48 -78t81.5 -28.5t90.5 28.5t73 78.5t54 103t40.5 117t25.5 105t15.5 82q7 46 11 86.5t7.5 106t-3.5 117t-22 100.5t-48.5 76.5t-81.5 27.5q-58 0 -107 -41.5t-79.5 -98.5t-55.5 -135t-36 -132t-19 -107zM1090 1974l151 -10
q-11 -33 -18.5 -54t-21.5 -53t-26.5 -52t-32 -44t-40.5 -37.5t-49 -22.5t-60 -9q-57 0 -153 45q-5 2 -15.5 7t-16 7.5t-14.5 5.5t-18 4.5t-18 1.5q-55 0 -76 -65h-150q12 45 22.5 76.5t30.5 71.5t43 64.5t59.5 42t80.5 17.5q46 0 88.5 -19.5t78 -39t66.5 -19.5q67 0 89 82z
" />
    <glyph glyph-name="Odieresis" unicode="&#xd6;" horiz-adv-x="1191" 
d="M844 1569q84 0 156.5 -27t134.5 -86.5t98 -152.5t47 -225.5t-18 -305.5q-27 -169 -79 -305t-118 -226.5t-146.5 -151.5t-161.5 -87.5t-165 -26.5t-156.5 27t-134 86.5t-97 152.5t-46.5 225.5t18 305.5q27 169 79 305t117.5 226.5t145.5 151.5t161 87.5t165 26.5zM502 772
q-7 -40 -11 -81.5t-8 -105.5t3 -117.5t21.5 -103t48 -78t81.5 -28.5t90.5 28.5t73 78.5t54 103t40.5 117t25.5 105t15.5 82q7 46 11 86.5t7.5 106t-3.5 117t-22 100.5t-48.5 76.5t-81.5 27.5q-58 0 -107 -41.5t-79.5 -98.5t-55.5 -135t-36 -132t-19 -107zM823 1808
q-9 -61 -62 -105t-116 -44q-61 0 -98.5 43.5t-28.5 105.5q11 65 62.5 110.5t117.5 45.5q62 0 98 -46t27 -110zM1249 1808q-9 -61 -62 -105t-116 -44q-61 0 -98.5 43.5t-28.5 105.5q11 65 62.5 110.5t117.5 45.5q62 0 98 -46t27 -110z" />
    <glyph glyph-name="multiply" unicode="&#xd7;" 
d="M813 59l-258 306l-342 -295l-133 159l342 295l-250 295l186 160l248 -295l355 305l133 -160l-353 -305l256 -305z" />
    <glyph glyph-name="Oslash" unicode="&#xd8;" horiz-adv-x="1191" 
d="M504 782l-23 -219h4l455 594q-34 129 -139 129q-43 0 -81 -21.5t-65.5 -54.5t-51.5 -81t-39.5 -92t-28.5 -97.5t-19.5 -87.5t-11.5 -70zM930 739l28 219h-4l-450 -583q16 -51 52 -84t87 -33q53 0 100 38.5t77 92.5t54.5 125t36.5 124t19 101zM1264 1556l106 -69
l-135 -174q82 -195 25 -547q-29 -184 -88 -328t-129 -229t-153.5 -140t-155 -74.5t-140.5 -19.5q-175 0 -311 129l-95 -118l-106 75l127 160q-91 202 -33 555q18 114 50 219.5t88.5 212.5t129.5 185t179 127t231 49q91 0 172 -37t137 -102z" />
    <glyph glyph-name="Ugrave" unicode="&#xd9;" horiz-adv-x="1114" 
d="M344 1544h305l-157 -999q-1 -9 -5.5 -36.5t-6.5 -39.5t-5 -38.5t-2.5 -40t2.5 -35.5t7.5 -34t14.5 -27.5t22.5 -23t33 -13t43.5 -5.5q31 0 56.5 7.5t43 17t31.5 29.5t22 34.5t15.5 44t10.5 45t9 49.5l168 1065h305l-178 -1126q-7 -44 -14 -77t-24.5 -82t-41 -85
t-64 -75.5t-91.5 -65t-126.5 -42t-166.5 -16.5q-219 0 -320.5 105t-66.5 317zM809 2003l149 -295l-153 -82l-219 283z" />
    <glyph glyph-name="Uacute" unicode="&#xda;" horiz-adv-x="1114" 
d="M344 1544h305l-157 -999q-1 -9 -5.5 -36.5t-6.5 -39.5t-5 -38.5t-2.5 -40t2.5 -35.5t7.5 -34t14.5 -27.5t22.5 -23t33 -13t43.5 -5.5q31 0 56.5 7.5t43 17t31.5 29.5t22 34.5t15.5 44t10.5 45t9 49.5l168 1065h305l-178 -1126q-7 -44 -14 -77t-24.5 -82t-41 -85
t-64 -75.5t-91.5 -65t-126.5 -42t-166.5 -16.5q-219 0 -320.5 105t-66.5 317zM940 2003l195 -94l-310 -283l-129 82z" />
    <glyph glyph-name="Ucircumflex" unicode="&#xdb;" horiz-adv-x="1114" 
d="M344 1544h305l-157 -999q-1 -9 -5.5 -36.5t-6.5 -39.5t-5 -38.5t-2.5 -40t2.5 -35.5t7.5 -34t14.5 -27.5t22.5 -23t33 -13t43.5 -5.5q31 0 56.5 7.5t43 17t31.5 29.5t22 34.5t15.5 44t10.5 45t9 49.5l168 1065h305l-178 -1126q-7 -44 -14 -77t-24.5 -82t-41 -85
t-64 -75.5t-91.5 -65t-126.5 -42t-166.5 -16.5q-219 0 -320.5 105t-66.5 317zM870 1991l260 -248l-145 -127l-151 143l-203 -143l-90 143z" />
    <glyph glyph-name="Udieresis" unicode="&#xdc;" horiz-adv-x="1114" 
d="M344 1544h305l-157 -999q-1 -9 -5.5 -36.5t-6.5 -39.5t-5 -38.5t-2.5 -40t2.5 -35.5t7.5 -34t14.5 -27.5t22.5 -23t33 -13t43.5 -5.5q31 0 56.5 7.5t43 17t31.5 29.5t22 34.5t15.5 44t10.5 45t9 49.5l168 1065h305l-178 -1126q-7 -44 -14 -77t-24.5 -82t-41 -85
t-64 -75.5t-91.5 -65t-126.5 -42t-166.5 -16.5q-219 0 -320.5 105t-66.5 317zM784 1808q-9 -61 -62 -105t-116 -44q-61 0 -98.5 43.5t-28.5 105.5q11 65 62.5 110.5t117.5 45.5q62 0 98 -46t27 -110zM1210 1808q-9 -61 -62 -105t-116 -44q-61 0 -98.5 43.5t-28.5 105.5
q11 65 62.5 110.5t117.5 45.5q62 0 98 -46t27 -110z" />
    <glyph glyph-name="Yacute" unicode="&#xdd;" horiz-adv-x="1052" 
d="M252 1544h336l94 -420l10 -75h4l54 114l196 381h342l-487 -805l-117 -739h-305l117 739zM940 2003l195 -94l-310 -283l-129 82z" />
    <glyph glyph-name="Thorn" unicode="&#xde;" horiz-adv-x="997" 
d="M414 0h-305l243 1544h305l-45 -287h17q57 2 100 0t125.5 -25t132 -66.5t80.5 -137.5t10 -227q-33 -214 -179 -334.5t-361 -120.5l-68 4zM573 1006l-65 -408q114 -5 180 43.5t84 163.5q15 91 -17 146t-124 55h-58z" />
    <glyph glyph-name="germandbls" unicode="&#xdf;" horiz-adv-x="978" 
d="M309 1034l17 107q2 12 6 40q6 40 9.5 62.5t13.5 67.5t20.5 74t29.5 70.5t41.5 69t56.5 58t74 48.5t93.5 30t115.5 12q82 0 143.5 -23t96.5 -63t55 -93.5t19.5 -115t-8.5 -127.5q-8 -55 -21.5 -100t-36.5 -91t-61.5 -80.5t-89.5 -53.5q176 -105 123 -420
q-10 -65 -23.5 -120t-35.5 -117.5t-53.5 -110.5t-73.5 -88.5t-101.5 -62t-130.5 -21.5q-30 0 -88 12l41 260q20 -1 37 4.5t30 18.5t23.5 25.5t19.5 35t14.5 37t11 40.5t8 38t6.5 37.5t5 29.5q4 29 6.5 47.5t5 54.5t-1 60.5t-11 50t-25.5 39.5t-45 15l41 260q79 8 102 91
q6 21 14 77q3 22 4.5 33.5t4 39.5t0 45t-8 36.5t-18.5 29.5t-33 10q-22 0 -39 -12t-27 -28.5t-18 -42.5t-11 -44.5t-6.5 -45t-4.5 -34.5l-191 -1206h-289l127 797h-106l37 237h106z" />
    <glyph glyph-name="agrave" unicode="&#xe0;" horiz-adv-x="886" 
d="M487 244q32 0 59.5 34t44.5 85.5t26.5 90t13.5 68.5q4 23 7.5 51t4 70.5t-5 75t-22 56.5t-44.5 24q-33 0 -61 -32.5t-45.5 -86t-26 -88t-14.5 -70.5q-42 -278 63 -278zM528 0l19 117h-4q-41 -64 -90 -99q-56 -38 -123 -38q-66 0 -111.5 40.5t-66 100.5t-27.5 136.5
t-3 140t13 120.5q8 51 20.5 102t32.5 115.5t49 118.5t65.5 101t87 73.5t108.5 26.5q69 0 112.5 -40.5t57.5 -107.5h4l20 127h289l-164 -1034h-289zM643 1544l152 -295l-156 -82l-219 283z" />
    <glyph glyph-name="aacute" unicode="&#xe1;" horiz-adv-x="886" 
d="M487 244q32 0 59.5 34t44.5 85.5t26.5 90t13.5 68.5q4 23 7.5 51t4 70.5t-5 75t-22 56.5t-44.5 24q-33 0 -61 -32.5t-45.5 -86t-26 -88t-14.5 -70.5q-42 -278 63 -278zM528 0l19 117h-4q-41 -64 -90 -99q-56 -38 -123 -38q-66 0 -111.5 40.5t-66 100.5t-27.5 136.5
t-3 140t13 120.5q8 51 20.5 102t32.5 115.5t49 118.5t65.5 101t87 73.5t108.5 26.5q69 0 112.5 -40.5t57.5 -107.5h4l20 127h289l-164 -1034h-289zM764 1544l194 -94l-309 -283l-127 82z" />
    <glyph glyph-name="acircumflex" unicode="&#xe2;" horiz-adv-x="886" 
d="M487 244q32 0 59.5 34t44.5 85.5t26.5 90t13.5 68.5q4 23 7.5 51t4 70.5t-5 75t-22 56.5t-44.5 24q-33 0 -61 -32.5t-45.5 -86t-26 -88t-14.5 -70.5q-42 -278 63 -278zM528 0l19 117h-4q-41 -64 -90 -99q-56 -38 -123 -38q-66 0 -111.5 40.5t-66 100.5t-27.5 136.5
t-3 140t13 120.5q8 51 20.5 102t32.5 115.5t49 118.5t65.5 101t87 73.5t108.5 26.5q69 0 112.5 -40.5t57.5 -107.5h4l20 127h289l-164 -1034h-289zM705 1532l260 -248l-146 -127l-149 143l-205 -143l-88 143z" />
    <glyph glyph-name="atilde" unicode="&#xe3;" horiz-adv-x="886" 
d="M487 244q32 0 59.5 34t44.5 85.5t26.5 90t13.5 68.5q4 23 7.5 51t4 70.5t-5 75t-22 56.5t-44.5 24q-33 0 -61 -32.5t-45.5 -86t-26 -88t-14.5 -70.5q-42 -278 63 -278zM528 0l19 117h-4q-41 -64 -90 -99q-56 -38 -123 -38q-66 0 -111.5 40.5t-66 100.5t-27.5 136.5
t-3 140t13 120.5q8 51 20.5 102t32.5 115.5t49 118.5t65.5 101t87 73.5t108.5 26.5q69 0 112.5 -40.5t57.5 -107.5h4l20 127h289l-164 -1034h-289zM881 1516l151 -11q-14 -46 -26 -76.5t-33.5 -71t-46 -65t-61.5 -42t-81 -17.5q-59 0 -151 45q-5 2 -19 9t-20.5 9.5
t-18.5 5.5t-24 3q-55 0 -76 -66h-149q11 44 21.5 76.5t30 72t43 64t60 42t80.5 17.5q46 0 88.5 -19.5t78.5 -38.5t67 -19q68 0 86 82z" />
    <glyph glyph-name="adieresis" unicode="&#xe4;" horiz-adv-x="886" 
d="M487 244q32 0 59.5 34t44.5 85.5t26.5 90t13.5 68.5q4 23 7.5 51t4 70.5t-5 75t-22 56.5t-44.5 24q-33 0 -61 -32.5t-45.5 -86t-26 -88t-14.5 -70.5q-42 -278 63 -278zM528 0l19 117h-4q-41 -64 -90 -99q-56 -38 -123 -38q-66 0 -111.5 40.5t-66 100.5t-27.5 136.5
t-3 140t13 120.5q8 51 20.5 102t32.5 115.5t49 118.5t65.5 101t87 73.5t108.5 26.5q69 0 112.5 -40.5t57.5 -107.5h4l20 127h289l-164 -1034h-289zM614 1350q-9 -61 -61 -105.5t-115 -44.5q-62 0 -100 44.5t-29 105.5q11 65 62.5 110t117.5 45q63 0 99.5 -46t25.5 -109z
M1040 1350q-9 -61 -61 -105.5t-115 -44.5q-62 0 -100 44.5t-29 105.5q11 65 62.5 110t117.5 45q63 0 99.5 -46t25.5 -109z" />
    <glyph glyph-name="aring" unicode="&#xe5;" horiz-adv-x="886" 
d="M487 244q32 0 59.5 34t44.5 85.5t26.5 90t13.5 68.5q4 23 7.5 51t4 70.5t-5 75t-22 56.5t-44.5 24q-33 0 -61 -32.5t-45.5 -86t-26 -88t-14.5 -70.5q-42 -278 63 -278zM528 0l19 117h-4q-41 -64 -90 -99q-56 -38 -123 -38q-66 0 -111.5 40.5t-66 100.5t-27.5 136.5
t-3 140t13 120.5q8 51 20.5 102t32.5 115.5t49 118.5t65.5 101t87 73.5t108.5 26.5q69 0 112.5 -40.5t57.5 -107.5h4l20 127h289l-164 -1034h-289zM641 1124q-92 0 -147 65t-41 159q15 93 90.5 157t169.5 64q91 0 143.5 -67t38.5 -159q-14 -89 -88.5 -154t-165.5 -65z
M662 1260q34 0 63 24.5t35 58.5q6 37 -14.5 64t-55.5 27q-37 0 -66.5 -25t-35.5 -63q-6 -37 15.5 -61.5t58.5 -24.5z" />
    <glyph glyph-name="ae" unicode="&#xe6;" horiz-adv-x="1310" 
d="M895 618h211l4 25q5 31 5 59.5t-5.5 60.5t-24.5 51.5t-51 19.5q-31 0 -56.5 -19t-41 -49.5t-24.5 -59t-13 -57.5zM1321 440h-457q-15 -113 -8 -157q12 -82 80 -82q92 0 111 118h245q-49 -160 -133 -241q-98 -98 -250 -98q-167 0 -237 126q-135 -126 -285 -126
q-154 0 -232 88.5t-53 240.5q22 136 122.5 224t236.5 88q105 0 147 -37q8 45 10.5 75.5t-2 62.5t-19.5 51t-45.5 31.5t-76.5 12.5q-91 0 -211 -53l39 248q127 43 244 43q100 0 166 -34.5t94 -117.5q103 152 268 152q153 0 236 -132t35 -364zM455 193q46 0 83.5 32t43.5 78
q7 44 -20 76.5t-70 32.5t-81 -31.5t-44 -73.5q-8 -46 17 -80t71 -34z" />
    <glyph glyph-name="ccedilla" unicode="&#xe7;" horiz-adv-x="645" 
d="M643 281l-43 -265q-82 -36 -172 -36q-68 0 -122 22.5t-88 62.5t-56.5 91t-31 111.5t-8 121t10.5 121.5q13 82 38 157t67 147t95.5 124.5t128 84.5t161.5 32q70 0 137 -31l-39 -254q-33 33 -80 33q-50 0 -90 -27.5t-65 -72t-39 -88.5t-21 -89q-8 -49 -8.5 -91t8.5 -87
t40.5 -71.5t82.5 -26.5q41 0 94 31zM315 -98l174 -74l-260 -274l-116 65z" />
    <glyph glyph-name="egrave" unicode="&#xe8;" horiz-adv-x="847" 
d="M643 618l4 25q5 31 5 59.5t-5.5 60.5t-24.5 51.5t-51 19.5q-31 0 -56.5 -19t-41 -49.5t-24.5 -59t-13 -57.5l-4 -31h211zM883 559l-25 -119h-457q-15 -113 -8 -157q14 -81 80 -82q92 0 111 118h245q-49 -160 -133 -241q-98 -98 -250 -98q-71 0 -127.5 20t-93 57t-61 85
t-34.5 106.5t-9.5 120t10.5 127.5q12 79 35.5 154t64 149.5t93 130.5t127 90.5t161.5 34.5q153 0 236 -132t35 -364zM623 1544l151 -295l-156 -82l-219 283z" />
    <glyph glyph-name="eacute" unicode="&#xe9;" horiz-adv-x="847" 
d="M643 618l4 25q5 31 5 59.5t-5.5 60.5t-24.5 51.5t-51 19.5q-31 0 -56.5 -19t-41 -49.5t-24.5 -59t-13 -57.5l-4 -31h211zM883 559l-25 -119h-457q-15 -113 -8 -157q14 -81 80 -82q92 0 111 118h245q-49 -160 -133 -241q-98 -98 -250 -98q-71 0 -127.5 20t-93 57t-61 85
t-34.5 106.5t-9.5 120t10.5 127.5q12 79 35.5 154t64 149.5t93 130.5t127 90.5t161.5 34.5q153 0 236 -132t35 -364zM743 1544l195 -94l-309 -283l-127 82z" />
    <glyph glyph-name="ecircumflex" unicode="&#xea;" horiz-adv-x="847" 
d="M643 618l4 25q5 31 5 59.5t-5.5 60.5t-24.5 51.5t-51 19.5q-31 0 -56.5 -19t-41 -49.5t-24.5 -59t-13 -57.5l-4 -31h211zM883 559l-25 -119h-457q-15 -113 -8 -157q14 -81 80 -82q92 0 111 118h245q-49 -160 -133 -241q-98 -98 -250 -98q-71 0 -127.5 20t-93 57t-61 85
t-34.5 106.5t-9.5 120t10.5 127.5q12 79 35.5 154t64 149.5t93 130.5t127 90.5t161.5 34.5q153 0 236 -132t35 -364zM680 1532l260 -248l-145 -127l-150 143l-205 -143l-88 143z" />
    <glyph glyph-name="edieresis" unicode="&#xeb;" horiz-adv-x="847" 
d="M643 618l4 25q5 31 5 59.5t-5.5 60.5t-24.5 51.5t-51 19.5q-31 0 -56.5 -19t-41 -49.5t-24.5 -59t-13 -57.5l-4 -31h211zM883 559l-25 -119h-457q-15 -113 -8 -157q14 -81 80 -82q92 0 111 118h245q-49 -160 -133 -241q-98 -98 -250 -98q-71 0 -127.5 20t-93 57t-61 85
t-34.5 106.5t-9.5 120t10.5 127.5q12 79 35.5 154t64 149.5t93 130.5t127 90.5t161.5 34.5q153 0 236 -132t35 -364zM578 1350q-9 -61 -61.5 -105.5t-115.5 -44.5q-62 0 -100 44.5t-29 105.5q11 65 63 110t118 45q63 0 99.5 -46t25.5 -109zM1004 1350q-9 -61 -61.5 -105.5
t-115.5 -44.5q-62 0 -100 44.5t-29 105.5q11 65 63 110t118 45q63 0 99.5 -46t25.5 -109z" />
    <glyph glyph-name="igrave" unicode="&#xec;" horiz-adv-x="428" 
d="M233 1034h289l-164 -1034h-288zM432 1544l152 -295l-156 -82l-219 283z" />
    <glyph glyph-name="iacute" unicode="&#xed;" horiz-adv-x="428" 
d="M233 1034h289l-164 -1034h-288zM481 1544l195 -94l-309 -283l-127 82z" />
    <glyph glyph-name="icircumflex" unicode="&#xee;" horiz-adv-x="428" 
d="M233 1034h289l-164 -1034h-288zM455 1532l260 -248l-146 -127l-149 143l-205 -143l-88 143z" />
    <glyph glyph-name="idieresis" unicode="&#xef;" horiz-adv-x="428" 
d="M233 1034h289l-164 -1034h-288zM369 1350q-9 -61 -61 -105.5t-115 -44.5q-62 0 -100.5 44.5t-29.5 105.5q11 65 63 110t118 45q63 0 99.5 -46t25.5 -109zM795 1350q-9 -61 -61.5 -105.5t-115.5 -44.5q-62 0 -100 44.5t-29 105.5q11 65 63 110t118 45q63 0 99.5 -46
t25.5 -109z" />
    <glyph glyph-name="eth" unicode="&#xf0;" horiz-adv-x="892" 
d="M424 516q-4 -26 -7.5 -52.5t-4.5 -70t4 -75.5t22 -56t45 -24t53 24.5t40 55.5t28.5 75.5t18.5 70t10 52.5q6 33 8.5 70.5t1.5 89.5t-19 85.5t-53 33.5q-100 0 -147 -279zM356 1180l-49 127l182 88q-43 91 -102 176l231 108q36 -49 105 -170l190 93l60 -123l-191 -93
q95 -205 134.5 -429.5t5.5 -440.5q-12 -79 -34.5 -151t-62.5 -144.5t-91.5 -125t-127 -85.5t-164.5 -33q-75 0 -133 21.5t-94 60t-58.5 88.5t-30 112t-5 125t13.5 132q13 81 34.5 152.5t59 141.5t86.5 119.5t120.5 80t158.5 30.5q26 0 53 -8q-12 28 -32 78.5t-36 89.5
t-32 72z" />
    <glyph glyph-name="ntilde" unicode="&#xf1;" horiz-adv-x="868" 
d="M524 1034l-24 -160h4q42 78 114.5 129.5t153.5 51.5q41 0 70.5 -12.5t47 -30.5t27 -49t12 -57t-0.5 -67t-6.5 -67t-10.5 -67q-4 -25 -6 -37l-106 -668h-289l90 567q1 7 5 27t6.5 35.5t4.5 37t0 37t-7.5 30t-18 22.5t-31.5 8q-77 0 -96 -119l-103 -645h-288l164 1034h288z
M854 1516l152 -11q-14 -46 -26 -76.5t-33.5 -71t-46 -65t-61.5 -42t-81 -17.5q-60 0 -152 45q-5 2 -19 9t-20.5 9.5t-18.5 5.5t-24 3q-54 0 -75 -66h-150q11 44 21.5 76.5t30.5 71.5t43.5 64.5t60 42.5t80.5 17q46 0 88.5 -19.5t78 -38.5t66.5 -19q68 0 86 82z" />
    <glyph glyph-name="ograve" unicode="&#xf2;" horiz-adv-x="892" 
d="M614 1055q90 0 154.5 -31t99.5 -82t51.5 -122.5t16 -145.5t-13.5 -158q-14 -84 -36.5 -157.5t-62 -144.5t-91 -121.5t-126 -81.5t-164.5 -31t-154.5 31t-100 81.5t-52 121.5t-15.5 144.5t15 157.5q13 84 35.5 158t62 145.5t91 122.5t126 82t164.5 31zM571 795
q-100 0 -147 -279q-4 -26 -7.5 -52.5t-4.5 -70t4 -75.5t22 -56t45 -24t53 24.5t40 55.5t28.5 75.5t18.5 70t10 52.5q6 33 8.5 70.5t1.5 89.5t-19 85.5t-53 33.5zM645 1544l152 -295l-156 -82l-219 283z" />
    <glyph glyph-name="oacute" unicode="&#xf3;" horiz-adv-x="892" 
d="M614 1055q90 0 154.5 -31t99.5 -82t51.5 -122.5t16 -145.5t-13.5 -158q-14 -84 -36.5 -157.5t-62 -144.5t-91 -121.5t-126 -81.5t-164.5 -31t-154.5 31t-100 81.5t-52 121.5t-15.5 144.5t15 157.5q13 84 35.5 158t62 145.5t91 122.5t126 82t164.5 31zM571 795
q-100 0 -147 -279q-4 -26 -7.5 -52.5t-4.5 -70t4 -75.5t22 -56t45 -24t53 24.5t40 55.5t28.5 75.5t18.5 70t10 52.5q6 33 8.5 70.5t1.5 89.5t-19 85.5t-53 33.5zM766 1544l195 -94l-310 -283l-127 82z" />
    <glyph glyph-name="ocircumflex" unicode="&#xf4;" horiz-adv-x="892" 
d="M614 1055q90 0 154.5 -31t99.5 -82t51.5 -122.5t16 -145.5t-13.5 -158q-14 -84 -36.5 -157.5t-62 -144.5t-91 -121.5t-126 -81.5t-164.5 -31t-154.5 31t-100 81.5t-52 121.5t-15.5 144.5t15 157.5q13 84 35.5 158t62 145.5t91 122.5t126 82t164.5 31zM571 795
q-100 0 -147 -279q-4 -26 -7.5 -52.5t-4.5 -70t4 -75.5t22 -56t45 -24t53 24.5t40 55.5t28.5 75.5t18.5 70t10 52.5q6 33 8.5 70.5t1.5 89.5t-19 85.5t-53 33.5zM686 1532l260 -248l-145 -127l-150 143l-205 -143l-88 143z" />
    <glyph glyph-name="otilde" unicode="&#xf5;" horiz-adv-x="892" 
d="M614 1055q90 0 154.5 -31t99.5 -82t51.5 -122.5t16 -145.5t-13.5 -158q-14 -84 -36.5 -157.5t-62 -144.5t-91 -121.5t-126 -81.5t-164.5 -31t-154.5 31t-100 81.5t-52 121.5t-15.5 144.5t15 157.5q13 84 35.5 158t62 145.5t91 122.5t126 82t164.5 31zM571 795
q-100 0 -147 -279q-4 -26 -7.5 -52.5t-4.5 -70t4 -75.5t22 -56t45 -24t53 24.5t40 55.5t28.5 75.5t18.5 70t10 52.5q6 33 8.5 70.5t1.5 89.5t-19 85.5t-53 33.5zM866 1516l152 -11q-14 -46 -26 -76.5t-33.5 -71t-46 -65t-61.5 -42t-81 -17.5q-60 0 -152 45q-6 3 -19 9t-20 9
t-18.5 6t-23.5 3q-55 0 -76 -66h-150q11 44 21.5 76.5t30.5 71.5t43.5 64.5t60 42.5t80.5 17q46 0 88.5 -19.5t78 -38.5t66.5 -19q68 0 86 82z" />
    <glyph glyph-name="odieresis" unicode="&#xf6;" horiz-adv-x="892" 
d="M614 1055q90 0 154.5 -31t99.5 -82t51.5 -122.5t16 -145.5t-13.5 -158q-14 -84 -36.5 -157.5t-62 -144.5t-91 -121.5t-126 -81.5t-164.5 -31t-154.5 31t-100 81.5t-52 121.5t-15.5 144.5t15 157.5q13 84 35.5 158t62 145.5t91 122.5t126 82t164.5 31zM571 795
q-100 0 -147 -279q-4 -26 -7.5 -52.5t-4.5 -70t4 -75.5t22 -56t45 -24t53 24.5t40 55.5t28.5 75.5t18.5 70t10 52.5q6 33 8.5 70.5t1.5 89.5t-19 85.5t-53 33.5zM600 1350q-9 -61 -61 -105.5t-115 -44.5q-62 0 -100 44.5t-29 105.5q11 65 62.5 110t117.5 45q63 0 99.5 -46
t25.5 -109zM1026 1350q-9 -61 -61 -105.5t-115 -44.5q-62 0 -100 44.5t-29 105.5q11 65 62.5 110t117.5 45q63 0 99.5 -46t25.5 -109z" />
    <glyph glyph-name="divide" unicode="&#xf7;" 
d="M109 412l34 225h920l-35 -225h-919zM756 786h-260l36 236h261zM635 27h-260l37 235h260z" />
    <glyph glyph-name="oslash" unicode="&#xf8;" horiz-adv-x="892" 
d="M424 522q-4 -26 -7 -54t-3.5 -71.5t5.5 -76t23.5 -56.5t46.5 -24q32 0 59.5 34t44.5 85t26.5 88.5t13.5 66.5q4 26 7 54t3 71.5t-5.5 75.5t-23.5 56t-47 24q-93 0 -143 -273zM819 987l70 90l94 -65l-92 -119q65 -161 31 -377q-13 -80 -36 -153t-63 -144t-91 -123
t-124 -84t-159 -32q-129 0 -216 73l-69 -90l-94 70l92 123q-61 150 -25 370q12 75 34.5 146.5t62.5 142t92 123t126 85t160 32.5q136 0 207 -68z" />
    <glyph glyph-name="ugrave" unicode="&#xf9;" horiz-adv-x="866" 
d="M236 1034h288l-90 -567q-1 -7 -8 -43t-9.5 -59.5t-1 -53.5t16 -45.5t41.5 -15.5q73 0 94 143q1 7 2 10l103 631h286l-104 -659q-30 -187 -138 -291t-294 -104q-68 0 -120.5 14.5t-85 38t-53.5 59.5t-30 71.5t-10 82.5t2.5 84.5t11.5 83.5zM602 1544l152 -295l-156 -82
l-219 283z" />
    <glyph glyph-name="uacute" unicode="&#xfa;" horiz-adv-x="866" 
d="M236 1034h288l-90 -567q-1 -7 -8 -43t-9.5 -59.5t-1 -53.5t16 -45.5t41.5 -15.5q73 0 94 143q1 7 2 10l103 631h286l-104 -659q-30 -187 -138 -291t-294 -104q-68 0 -120.5 14.5t-85 38t-53.5 59.5t-30 71.5t-10 82.5t2.5 84.5t11.5 83.5zM754 1544l194 -94l-309 -283
l-127 82z" />
    <glyph glyph-name="ucircumflex" unicode="&#xfb;" horiz-adv-x="866" 
d="M236 1034h288l-90 -567q-1 -7 -8 -43t-9.5 -59.5t-1 -53.5t16 -45.5t41.5 -15.5q73 0 94 143q1 7 2 10l103 631h286l-104 -659q-30 -187 -138 -291t-294 -104q-68 0 -120.5 14.5t-85 38t-53.5 59.5t-30 71.5t-10 82.5t2.5 84.5t11.5 83.5zM674 1532l260 -248l-146 -127
l-149 143l-205 -143l-88 143z" />
    <glyph glyph-name="udieresis" unicode="&#xfc;" horiz-adv-x="866" 
d="M236 1034h288l-90 -567q-1 -7 -8 -43t-9.5 -59.5t-1 -53.5t16 -45.5t41.5 -15.5q73 0 94 143q1 7 2 10l103 631h286l-104 -659q-30 -187 -138 -291t-294 -104q-68 0 -120.5 14.5t-85 38t-53.5 59.5t-30 71.5t-10 82.5t2.5 84.5t11.5 83.5zM588 1350q-9 -61 -61 -105.5
t-115 -44.5q-62 0 -100 44.5t-29 105.5q11 65 62.5 110t117.5 45q63 0 99.5 -46t25.5 -109zM1014 1350q-9 -61 -61 -105.5t-115 -44.5q-62 0 -100 44.5t-29 105.5q11 65 62.5 110t117.5 45q63 0 99.5 -46t25.5 -109z" />
    <glyph glyph-name="yacute" unicode="&#xfd;" horiz-adv-x="925" 
d="M195 1034h290l43 -418l7 -172h4l229 590h291l-688 -1544h-285l250 530zM803 1544l194 -94l-309 -283l-127 82z" />
    <glyph glyph-name="thorn" unicode="&#xfe;" horiz-adv-x="886" 
d="M590 1448l-86 -541h4q40 70 90 105q59 43 127 43q70 0 116 -39.5t65 -97t24 -135.5t0 -140t-15 -125q-8 -47 -20.5 -98t-33 -114.5t-50.5 -119t-66.5 -103.5t-87 -75.5t-106.5 -27.5q-124 0 -168 137h-4l-98 -627h-289l309 1958h289zM479 244q36 0 64 32t45 84.5t25 87.5
t14 74q5 32 8 70t2 89t-18 84.5t-50 33.5q-98 0 -147 -277q-3 -20 -5 -40t-4.5 -55.5t0 -64.5t8.5 -57.5t21 -44.5t37 -16z" />
    <glyph glyph-name="ydieresis" unicode="&#xff;" horiz-adv-x="925" 
d="M195 1034h290l43 -418l7 -172h4l229 590h291l-688 -1544h-285l250 530zM616 1350q-9 -61 -61 -105.5t-115 -44.5q-62 0 -100 44.5t-29 105.5q11 65 63 110t118 45q63 0 99 -45.5t25 -109.5zM1042 1350q-9 -61 -61 -105.5t-115 -44.5q-62 0 -100 44.5t-29 105.5
q11 65 63 110t118 45q63 0 99 -45.5t25 -109.5z" />
    <glyph glyph-name="dotlessi" unicode="&#x131;" horiz-adv-x="428" 
d="M233 1034h289l-164 -1034h-288z" />
    <glyph glyph-name="Lslash" unicode="&#x141;" horiz-adv-x="763" 
d="M352 1544h305l-79 -512l182 115l-37 -225l-182 -119l-82 -516h319l-45 -287h-624l94 590l-123 -82l39 246l123 82z" />
    <glyph glyph-name="lslash" unicode="&#x142;" horiz-adv-x="430" 
d="M72 0l108 688l-149 -104l32 202l150 105l121 762h289l-88 -559l147 106l-33 -199l-147 -108l-142 -893h-288z" />
    <glyph glyph-name="OE" unicode="&#x152;" horiz-adv-x="1525" 
d="M813 0l18 117h-4q-56 -67 -132 -104.5t-158 -37.5q-83 0 -148 27.5t-107 73t-70.5 110t-41 133.5t-15.5 148.5t2.5 150t16.5 142.5q12 75 29 148t45.5 155t64 153t86 137t109 113t135.5 75t164 28q74 0 136.5 -28.5t96.5 -82.5h4l13 86h633l-45 -287h-330l-51 -323h295
l-46 -287h-294l-58 -360h332l-45 -287h-635zM934 774q85 520 -129 520q-49 0 -92 -27.5t-74 -77t-54.5 -101.5t-40.5 -117.5t-25.5 -108t-16.5 -88.5q-7 -43 -12 -87.5t-8.5 -109t3.5 -118.5t22 -103t49 -77.5t83 -28.5q210 0 295 524z" />
    <glyph glyph-name="oe" unicode="&#x153;" horiz-adv-x="1337" 
d="M922 618h211l4 25q5 31 5 59.5t-5.5 60.5t-24.5 51.5t-51 19.5q-31 0 -56.5 -19t-41 -49.5t-24.5 -59t-13 -57.5zM936 -20q-174 0 -266 112q-100 -112 -250 -112q-79 0 -138 31t-91.5 84t-51 122t-16.5 145t12 154q16 101 51 193t90 171.5t136.5 127t179.5 47.5
q162 0 235 -103q64 55 125 79t150 24q153 0 235.5 -132t34.5 -364l-24 -119h-457q-15 -113 -8 -157q12 -82 80 -82q91 0 110 118h246q-49 -160 -133 -241q-98 -98 -250 -98zM629 522q6 32 9 69.5t3 89.5t-17.5 86t-50.5 34q-101 0 -149 -285q-4 -25 -7.5 -52.5t-4.5 -71.5
t4 -77t22 -57.5t45 -24.5q33 0 61 35.5t45 90t26 93.5t14 70z" />
    <glyph glyph-name="Scaron" unicode="&#x160;" horiz-adv-x="901" 
d="M979 1493l-47 -297q-94 98 -205 98q-71 0 -118.5 -40.5t-59.5 -110.5q-8 -51 11 -95.5t54.5 -79t79.5 -70t87 -77t76.5 -89.5t47.5 -119t0 -156q-33 -212 -172 -347t-348 -135q-68 0 -137 20.5t-113 57.5l47 291q105 -82 217 -82q75 0 133 46.5t70 121.5q5 16 2.5 33.5
t-3 29.5t-8 26.5t-12 23.5t-15.5 21t-18.5 19.5t-20.5 18.5t-22 17.5t-23 17.5t-23 18q-131 98 -184.5 199.5t-28.5 259.5q15 92 54.5 174t99 145t143 99.5t178.5 36.5q140 0 258 -76zM711 1616l-260 248l145 127l152 -144l202 144l90 -144z" />
    <glyph glyph-name="scaron" unicode="&#x161;" horiz-adv-x="770" 
d="M862 967l-151 -211q-32 34 -59.5 50.5t-67.5 16.5q-38 0 -61.5 -20.5t-28.5 -54.5q-3 -24 12 -44t41.5 -36t59 -33t63.5 -42t54.5 -56.5t33.5 -81.5t0 -113q-24 -158 -128.5 -260t-260.5 -102q-82 0 -158.5 31.5t-132.5 86.5l158 205q35 -33 64.5 -50t68.5 -17
q35 0 63.5 24t34.5 62q5 27 -9.5 49.5t-40.5 38.5t-58.5 35.5t-64 42.5t-55.5 59.5t-34 85t0 119.5q15 95 75.5 165t143.5 104t176 34q155 0 262 -88zM588 1157l-258 248l143 127l152 -143l202 143l91 -143z" />
    <glyph glyph-name="Ydieresis" unicode="&#x178;" horiz-adv-x="1052" 
d="M252 1544h336l94 -420l10 -75h4l54 114l196 381h342l-487 -805l-117 -739h-305l117 739zM766 1808q-9 -61 -62 -105t-116 -44q-61 0 -98.5 43.5t-28.5 105.5q11 65 62.5 110.5t117.5 45.5q62 0 98 -46t27 -110zM1192 1808q-9 -61 -62 -105t-116 -44q-61 0 -98.5 43.5
t-28.5 105.5q11 65 62.5 110.5t117.5 45.5q62 0 98 -46t27 -110z" />
    <glyph glyph-name="Zcaron" unicode="&#x17d;" horiz-adv-x="1040" 
d="M346 1544h907l-727 -1257h486l-45 -287h-930l713 1257h-449zM780 1616l-260 248l146 127l151 -144l203 144l90 -144z" />
    <glyph glyph-name="zcaron" unicode="&#x17e;" horiz-adv-x="821" 
d="M244 1034h694l-444 -794h284l-39 -240h-692l453 795h-295zM598 1157l-258 248l143 127l152 -143l203 143l90 -143z" />
    <glyph glyph-name="florin" unicode="&#x192;" 
d="M1249 1530l-78 -211q-43 24 -81 24q-27 0 -49.5 -7t-39 -17t-31 -28.5t-23.5 -34t-19 -41.5t-15 -42.5t-13.5 -45t-12.5 -42.5l-21 -63h228l-31 -195h-254l-195 -604q-32 -98 -53.5 -159.5t-61.5 -150.5t-81 -149q-48 -68 -125.5 -105.5t-155.5 -37.5q-76 0 -174 25
l70 225q23 -20 55 -27.5t65.5 3.5t53.5 42q40 56 74 164l256 774h-228l31 195h258l57 160q29 82 64.5 146t86 119.5t120.5 85.5t155 30q55 0 156 -29q1 -1 5.5 -2t6.5 -2z" />
    <glyph glyph-name="circumflex" unicode="&#x2c6;" horiz-adv-x="614" 
d="M547 1532l260 -248l-145 -127l-150 143l-205 -143l-88 143z" />
    <glyph glyph-name="caron" unicode="&#x2c7;" horiz-adv-x="614" 
d="M494 1157l-258 248l143 127l151 -143l203 143l90 -143z" />
    <glyph glyph-name="uni02C9" unicode="&#x2c9;" horiz-adv-x="614" 
d="M877 1364h-709l25 152h708z" />
    <glyph glyph-name="breve" unicode="&#x2d8;" horiz-adv-x="614" 
d="M772 1597h133q-41 -144 -143 -220.5t-248 -76.5q-163 0 -242.5 83t-54.5 214h133q-4 -71 43.5 -107t132.5 -36q107 0 164.5 34t81.5 109z" />
    <glyph glyph-name="dotaccent" unicode="&#x2d9;" horiz-adv-x="614" 
d="M674 1350q-9 -61 -61 -105.5t-115 -44.5q-62 0 -100 44.5t-29 105.5q11 65 62.5 110t117.5 45q63 0 99.5 -46t25.5 -109z" />
    <glyph glyph-name="ring" unicode="&#x2da;" horiz-adv-x="614" 
d="M487 1124q-92 0 -147 65t-41 159q15 93 90.5 157t169.5 64q91 0 143.5 -67t38.5 -159q-14 -89 -88.5 -154t-165.5 -65zM508 1260q34 0 63 24.5t35 58.5q6 37 -14 64t-55 27q-37 0 -67 -25t-36 -63q-6 -37 15.5 -61.5t58.5 -24.5z" />
    <glyph glyph-name="ogonek" unicode="&#x2db;" horiz-adv-x="614" 
d="M465 -213l-29 -176q-70 -31 -155 -31q-101 0 -162 52t-45 151q5 28 20.5 55.5t34 48t48.5 44t49.5 36.5t52.5 33h139v-4q-55 -26 -101.5 -71.5t-52.5 -84.5q-6 -38 17.5 -64t62.5 -26q17 0 37.5 6t46.5 16.5t37 14.5z" />
    <glyph glyph-name="tilde" unicode="&#x2dc;" horiz-adv-x="614" 
d="M727 1516l152 -11q-14 -46 -26 -76.5t-33.5 -71t-46 -65t-61.5 -42t-81 -17.5q-60 0 -152 45q-5 2 -19 9t-20.5 9.5t-18.5 5.5t-24 3q-54 0 -75 -66h-150q11 44 21.5 76.5t30.5 71.5t43.5 64.5t60 42.5t80.5 17q46 0 88.5 -19.5t78 -38.5t66.5 -19q68 0 86 82z" />
    <glyph glyph-name="hungarumlaut" unicode="&#x2dd;" horiz-adv-x="614" 
d="M354 1544l195 -94l-309 -283l-127 82zM735 1544l195 -94l-309 -283l-127 82z" />
    <glyph glyph-name="uni03A9" unicode="&#x3a9;" horiz-adv-x="1236" 
d="M324 238l2 6q-71 113 -103 271.5t-2 344.5q30 188 120 346.5t230.5 255.5t300.5 97q75 0 139 -22t110 -60.5t80.5 -91t55 -112.5t31 -127t9.5 -133t-11 -130q-30 -188 -116.5 -358.5t-188.5 -280.5l-2 -6h233l-36 -238h-480l27 170q83 64 159.5 229t116.5 414
q18 101 15.5 191t-21 158.5t-61 108.5t-105.5 40q-122 0 -214 -141t-128 -369q-26 -163 -20 -292.5t30.5 -214t63.5 -124.5l-27 -170h-477l37 238h232z" />
    <glyph glyph-name="uni03BC" unicode="&#x3bc;" horiz-adv-x="866" 
d="M672 1034h289l-107 -667q-22 -143 -35 -190q-51 -176 -185 -195q-17 -2 -36 -2q-81 0 -136 51t-75 129h-4l-104 -670h-289l243 1544h289l-102 -645q-19 -119 59 -119q22 0 39 11.5t26.5 27t17.5 41t10.5 42t5.5 43.5t4 32z" />
    <glyph glyph-name="pi" unicode="&#x3c0;" horiz-adv-x="1126" 
d="M1227 905h-121l-96 -606q-30 -184 -23 -299h-262q-22 82 14 297l97 608h-222q-42 -206 -113 -466.5t-147 -438.5h-262q79 199 151.5 462t104.5 443q-106 0 -168 -16l2 196q44 33 129 53.5t199 20.5h776z" />
    <glyph glyph-name="uni2010" unicode="&#x2010;" horiz-adv-x="651" 
d="M199 813h512l-43 -272h-512z" />
    <glyph glyph-name="endash" unicode="&#x2013;" horiz-adv-x="1024" 
d="M129 813h1024l-43 -272h-1024z" />
    <glyph glyph-name="emdash" unicode="&#x2014;" horiz-adv-x="2048" 
d="M395 813h1516l-43 -272h-1516z" />
    <glyph glyph-name="quoteleft" unicode="&#x2018;" horiz-adv-x="618" 
d="M506 918h-307l405 626h205z" />
    <glyph glyph-name="quoteright" unicode="&#x2019;" horiz-adv-x="618" 
d="M502 1544h307l-406 -626h-204z" />
    <glyph glyph-name="quotesinglbase" unicode="&#x201a;" horiz-adv-x="620" 
d="M311 332h310l-410 -627h-205z" />
    <glyph glyph-name="quotedblleft" unicode="&#x201c;" horiz-adv-x="1005" 
d="M893 918h-307l405 626h205zM506 918h-307l405 626h205z" />
    <glyph glyph-name="quotedblright" unicode="&#x201d;" horiz-adv-x="1005" 
d="M502 1544h307l-406 -626h-204zM889 1544h307l-405 -626h-205z" />
    <glyph glyph-name="quotedblbase" unicode="&#x201e;" horiz-adv-x="1005" 
d="M311 332h307l-407 -627h-205zM698 332h308l-408 -627h-205z" />
    <glyph glyph-name="dagger" unicode="&#x2020;" horiz-adv-x="1005" 
d="M606 1544h281l-78 -493h262l-41 -263h-262l-178 -1124h-281l178 1124h-260l41 263h260z" />
    <glyph glyph-name="daggerdbl" unicode="&#x2021;" 
d="M604 1544h281l-70 -442h260l-41 -262h-260l-55 -353h260l-43 -262h-260l-88 -561h-281l88 561h-258l43 262h258l56 353h-258l40 262h259z" />
    <glyph glyph-name="bullet" unicode="&#x2022;" horiz-adv-x="860" 
d="M610 1145q160 0 255.5 -112.5t70.5 -270.5q-26 -161 -157.5 -275t-291.5 -114q-161 0 -255 113.5t-68 275.5q25 159 155 271t291 112z" />
    <glyph glyph-name="ellipsis" unicode="&#x2026;" horiz-adv-x="2048" 
d="M338 -25q-81 0 -128.5 57.5t-35.5 137.5t78 137.5t147 57.5t128.5 -57.5t35.5 -137.5t-78 -137.5t-147 -57.5zM1020 -25q-81 0 -128.5 57.5t-35.5 137.5t78 137.5t147 57.5t128.5 -57.5t35.5 -137.5t-78 -137.5t-147 -57.5zM1702 -25q-81 0 -128.5 57.5t-35.5 137.5
t78 137.5t147 57.5t128.5 -57.5t35.5 -137.5t-78 -137.5t-147 -57.5z" />
    <glyph glyph-name="perthousand" unicode="&#x2030;" horiz-adv-x="2527" 
d="M647 1559q74 0 127.5 -26t81.5 -68.5t41.5 -102t12 -120t-12.5 -128.5q-13 -87 -39.5 -160.5t-71.5 -140t-116.5 -105t-163.5 -38.5q-62 0 -109.5 18t-77 50.5t-48 73.5t-24 92.5t-4 102.5t10.5 107q14 87 41 160.5t72 140.5t116.5 105.5t163.5 38.5zM608 1325
q-72 0 -108 -211q-29 -211 43 -211q25 0 46 25.5t33.5 64.5t19 68t9.5 53q4 24 6.5 53t2 68t-13.5 64.5t-38 25.5zM1354 -14q-62 0 -109.5 18t-77 50.5t-48 73.5t-24 92.5t-4 102.5t10.5 107q11 68 29.5 128t50.5 119.5t74 102t103.5 68.5t135.5 26t127.5 -26t81.5 -68.5
t41.5 -101.5t12 -119.5t-12.5 -128.5q-13 -87 -39.5 -160.5t-71.5 -140t-116.5 -105t-163.5 -38.5zM1391 219q25 0 46 25.5t33.5 64.5t19 68t9.5 53q4 25 7 53.5t3 67.5t-13 64.5t-38 25.5q-74 0 -110 -211q-29 -211 43 -211zM2124 -14q-62 0 -109.5 18t-77 50.5t-48 73.5
t-24 92.5t-4 102.5t10.5 107q11 68 29.5 128t50.5 119.5t74 102t103.5 68.5t135.5 26t127.5 -26t81.5 -68.5t41.5 -101.5t12 -119.5t-12.5 -128.5q-13 -87 -39.5 -160.5t-71.5 -140t-116.5 -105t-163.5 -38.5zM2161 219q25 0 46 25.5t33.5 64.5t19 68t9.5 53q4 25 7 53.5
t3 67.5t-13 64.5t-38 25.5q-74 0 -110 -211q-29 -211 43 -211zM623 0h-220l975 1544h219z" />
    <glyph glyph-name="guilsinglleft" unicode="&#x2039;" horiz-adv-x="532" 
d="M162 680l340 475l145 -88l-272 -387l147 -399l-170 -80z" />
    <glyph glyph-name="guilsinglright" unicode="&#x203a;" horiz-adv-x="532" 
d="M395 1155l193 -475l-342 -479l-146 80l275 399l-150 387z" />
    <glyph glyph-name="fraction" unicode="&#x2044;" horiz-adv-x="339" 
d="M694 1544h176l-979 -1544h-178z" />
    <glyph glyph-name="Euro" unicode="&#x20ac;" 
d="M1161 1505l-41 -262q-59 70 -200 70q-106 0 -174.5 -65t-104.5 -206h393l-94 -204h-352l-10 -60l-11 -69h314l-95 -205h-231q-7 -143 41 -209t152 -66q143 0 223 66l-43 -264q-78 -54 -275 -54q-198 0 -296 127.5t-89 399.5h-153l92 205h74q0 17 8 67q1 2 4.5 26t7.5 36
h-133l92 204h90q149 525 555 525q90 0 158.5 -19t97.5 -43z" />
    <glyph glyph-name="afii61289" unicode="&#x2113;" horiz-adv-x="950" 
d="M885 389l84 -115q-175 -292 -426 -292q-92 0 -156 30t-95 82t-41 114.5t-1 135.5q0 4 1 13t1 14q-39 -32 -111 -84l-37 149q140 114 183 154l88 565q41 259 163.5 398t272.5 139q128 0 176.5 -106t20.5 -283q-54 -339 -461 -736l-21 -129q-17 -113 14 -172t99 -59
q108 0 246 182zM633 1116l-43 -280q107 125 179 255t87 232q14 78 1 119t-62 41q-102 0 -162 -367z" />
    <glyph glyph-name="trademark" unicode="&#x2122;" horiz-adv-x="1638" 
d="M1829 1544l-131 -827h-164l106 667h-4l-321 -667h-96l-109 667h-4l-107 -667h-163l131 827h264l90 -489h4l240 489h264zM879 1544l-25 -160h-236l-106 -667h-164l107 667h-234l25 160h633z" />
    <glyph glyph-name="Omega" unicode="&#x2126;" horiz-adv-x="1236" 
d="M324 238l2 6q-71 113 -103 271.5t-2 344.5q30 188 120 346.5t230.5 255.5t300.5 97q75 0 139 -22t110 -60.5t80.5 -91t55 -112.5t31 -127t9.5 -133t-11 -130q-30 -188 -116.5 -358.5t-188.5 -280.5l-2 -6h233l-36 -238h-480l27 170q83 64 159.5 229t116.5 414
q18 101 15.5 191t-21 158.5t-61 108.5t-105.5 40q-122 0 -214 -141t-128 -369q-26 -163 -20 -292.5t30.5 -214t63.5 -124.5l-27 -170h-477l37 238h232z" />
    <glyph glyph-name="estimated" unicode="&#x212e;" horiz-adv-x="2168" 
d="M2093 750h-1431q-13 0 -13 -9v-434q0 -27 19 -49q107 -111 246 -173t296 -62q167 0 315.5 69.5t254.5 192.5h127q-121 -142 -305 -225t-394 -83q-180 0 -344 63t-282 169t-188 253.5t-70 309.5t70 309.5t188 254.5t282 170t344 63t344 -63t282.5 -170t188.5 -254.5
t70 -309.5v-22zM1767 807v436q0 31 -20 51q-107 106 -245.5 166t-291.5 60q-154 0 -293.5 -61.5t-246.5 -170.5q-21 -21 -21 -55v-426q0 -14 13 -14h1097q8 0 8 14z" />
    <glyph glyph-name="partialdiff" unicode="&#x2202;" horiz-adv-x="1087" 
d="M424 1397l-35 227q166 121 361 121q102 0 184.5 -49t141 -150.5t74.5 -258t-15 -372.5q-71 -443 -246.5 -685t-427.5 -242q-74 0 -133.5 29.5t-95.5 80t-59 117t-24.5 140t7.5 149.5q43 269 185.5 427.5t311.5 158.5q86 0 142.5 -43t74.5 -91h2q7 25 13 66
q16 87 7.5 172.5t-32 153.5t-73 110.5t-115.5 42.5q-128 0 -248 -104zM526 236h2q45 0 90 43.5t82 114.5t66 151t49 164q-7 54 -44.5 99.5t-102.5 45.5q-84 0 -153.5 -111.5t-92.5 -257.5q-18 -108 9.5 -178.5t94.5 -70.5z" />
    <glyph glyph-name="uni2206" unicode="&#x2206;" horiz-adv-x="1204" 
d="M51 0l27 170l620 1395h322l158 -1389l-29 -176h-1098zM362 233h545l-76 568q-3 68 -18.5 214t-17.5 191h-4q-15 -47 -73.5 -182.5t-80.5 -192.5z" />
    <glyph glyph-name="product" unicode="&#x220f;" horiz-adv-x="1595" 
d="M1544 1274h-174v-1487h-270v1487h-357v-1487h-270v1487h-176v264h1247v-264z" />
    <glyph glyph-name="summation" unicode="&#x2211;" horiz-adv-x="1269" 
d="M1235 -213h-940v193l430 690l-420 663v205h901v-240h-553v-6l371 -567l-422 -659v-9h633v-270z" />
    <glyph glyph-name="minus" unicode="&#x2212;" 
d="M109 412l34 225h920l-35 -225h-919z" />
    <glyph glyph-name="uni2215" unicode="&#x2215;" horiz-adv-x="339" 
d="M694 1544h176l-979 -1544h-178z" />
    <glyph glyph-name="uni2219" unicode="&#x2219;" horiz-adv-x="501" 
d="M365 719q81 0 128 -57.5t35 -137.5q-14 -80 -79 -137t-146 -57q-82 0 -130 57t-34 137q12 80 78.5 137.5t147.5 57.5z" />
    <glyph glyph-name="radical" unicode="&#x221a;" horiz-adv-x="1376" 
d="M1380 1855l-409 -2148h-213l-262 948l-140 -55l-41 164l344 139l166 -633q7 -46 21 -123t16 -90l2 -2q19 154 31 232l305 1568h180z" />
    <glyph glyph-name="infinity" unicode="&#x221e;" horiz-adv-x="1712" 
d="M1618 635v-2q0 -162 -97.5 -260.5t-228.5 -98.5q-96 0 -178.5 48.5t-175.5 177.5q-86 -111 -171 -168.5t-198 -57.5q-130 0 -224.5 98.5t-94.5 250.5q0 156 95 254t241 98q105 0 189 -54t167 -163q77 89 115 122q112 96 246 95q134 0 224.5 -94t90.5 -246zM588 426h4
q39 0 74.5 14t70 45t57.5 57t60 72q-76 107 -109 140q-73 73 -161 73q-86 0 -133.5 -57t-47.5 -149q0 -81 54 -138t131 -57zM1288 827h-2q-29 0 -59 -11t-49.5 -22t-49 -39.5t-39.5 -39t-39.5 -46.5t-31.5 -38q93 -121 148 -163t130 -42q74 0 121 62.5t47 132.5
q0 89 -49 147.5t-127 58.5z" />
    <glyph glyph-name="integral" unicode="&#x222b;" horiz-adv-x="1064" 
d="M999 1884l-24 -203q-38 17 -64 17q-56 0 -92 -56q-29 -40 -39 -128.5t-10 -239.5q0 -175 13.5 -509.5t13.5 -541.5q0 -309 -66 -444q-39 -83 -112 -122.5t-158 -39.5q-94 0 -150 33l33 209q47 -21 78 -21q54 0 78 41q43 68 43 336q0 210 -13.5 553t-13.5 530
q0 197 27.5 312t91.5 190q41 51 107.5 78t136.5 27q72 0 120 -21z" />
    <glyph glyph-name="approxequal" unicode="&#x2248;" horiz-adv-x="1179" 
d="M1014 973l94 -82q-40 -97 -108.5 -159t-149.5 -62q-52 0 -95.5 17.5t-111.5 62.5q-37 26 -55.5 37.5t-46.5 21.5t-56 10q-37 0 -68.5 -22.5t-45.5 -42.5t-41 -67q-3 -4 -4.5 -7t-3.5 -6l-97 80q42 98 114 158.5t161 60.5q27 0 51 -4.5t48 -14.5t36 -16t36.5 -21t26.5 -16
q7 -5 23.5 -15.5t22.5 -14.5t19 -12t19.5 -11.5t17.5 -8.5t18.5 -7t17 -3.5t18.5 -1.5q27 0 49 10t42 33.5t33.5 44t35.5 58.5zM1014 590l94 -82q-40 -97 -108.5 -159t-149.5 -62q-51 0 -95.5 18t-111.5 62q-39 27 -56.5 38t-46 22t-55.5 11q-15 0 -29.5 -4t-25 -8.5
t-23 -16t-19 -18t-18.5 -24t-16 -24t-16.5 -28t-15.5 -26.5l-97 82q41 98 114 158.5t161 60.5q17 0 34 -2.5t30 -5t29 -8.5t24.5 -9.5t24 -12t20.5 -11.5t19.5 -12.5t16.5 -10.5q11 -7 41 -26t42.5 -26t33.5 -14.5t39 -7.5q27 0 49 10t42 33.5t33.5 44t35.5 58.5z" />
    <glyph glyph-name="notequal" unicode="&#x2260;" horiz-adv-x="1206" 
d="M944 1090l-70 -170h240v-162h-293l-110 -271h403v-159h-457l-90 -217l-123 43l72 174h-246v159h301l109 271h-410v162h463l88 215z" />
    <glyph glyph-name="lessequal" unicode="&#x2264;" horiz-adv-x="1234" 
d="M1137 217l-826 459v176l826 459v-193l-678 -350v-6l678 -352v-193zM1147 -25h-844v164h844v-164z" />
    <glyph glyph-name="greaterequal" unicode="&#x2265;" horiz-adv-x="1234" 
d="M315 1311l828 -459v-176l-826 -459v193l678 352v4l-680 352v193zM1147 -25h-842v164h842v-164z" />
    <glyph glyph-name="lozenge" unicode="&#x25ca;" horiz-adv-x="1374" 
d="M1280 768l-365 -868h-223l-346 868l365 870h223zM1038 762l-180 479q-24 82 -37 156h-8q-11 -66 -39 -156l-186 -467l182 -491q18 -62 33 -146h10q22 101 35 139z" />
    <glyph glyph-name="fi" unicode="&#xfb01;" horiz-adv-x="1095" 
d="M203 1034h106l45 291q11 65 24.5 112t39.5 94t62.5 76.5t94 47.5t132.5 18q55 0 122 -24l-45 -279q-26 16 -49 16q-17 0 -31 -5t-23.5 -11.5t-17.5 -20.5t-12.5 -22t-9 -28t-6 -27t-5 -28.5t-3.5 -24.5l-29 -185h133l-37 -237h-133l-127 -797h-289l127 797h-106z
M862 1034h289l-164 -1034h-289zM1024 1157q-75 0 -119.5 54.5t-32.5 131.5t75.5 130t142.5 53q74 0 117 -56t32 -131q-12 -74 -76 -128t-139 -54z" />
    <glyph glyph-name="fl" unicode="&#xfb02;" horiz-adv-x="1095" 
d="M961 1653h288l-262 -1653h-289zM203 1034h106l45 291q11 65 24.5 112t39.5 94t62.5 76.5t94 47.5t132.5 18q55 0 122 -24l-45 -279q-26 16 -49 16q-17 0 -31 -5t-23.5 -11.5t-17.5 -20.5t-12.5 -22t-9 -28t-6 -27t-5 -28.5t-3.5 -24.5l-29 -185h133l-37 -237h-133
l-127 -797h-289l127 797h-106z" />
    <glyph glyph-name="a.superior" horiz-adv-x="614" 
d="M610 1556h191l-99 -620h-190l12 70h-4q-54 -82 -135 -82q-52 0 -85 35t-42 85t-11 105.5t7 97.5q7 39 16 75t28 83.5t42.5 81.5t61.5 58t83 24t73.5 -24.5t39.5 -63.5h2zM535 1413q-21 0 -39 -20t-28.5 -49.5t-16 -53.5t-7.5 -41q-26 -170 41 -170q21 0 38.5 21t29 53
t18 54.5t9.5 41.5q19 164 -45 164z" />
    <glyph glyph-name="o.superior" horiz-adv-x="614" 
d="M555 1569q72 0 120.5 -28t67.5 -74t24.5 -104t-7.5 -118q-10 -63 -31 -116.5t-56 -101.5t-91.5 -75.5t-128.5 -27.5q-58 0 -101 18.5t-65.5 49.5t-35 72.5t-11 87.5t7.5 93q11 65 32 119t56 102t91 75.5t128 27.5zM530 1413q-67 0 -94 -168q-21 -166 41 -166
q22 0 40.5 21t29 51.5t16.5 53.5t8 40q27 168 -41 168z" />
    <glyph glyph-name="one.superior" horiz-adv-x="602" 
d="M360 1544h306l-146 -917h-209l121 757h-96z" />
    <glyph glyph-name="two.superior" horiz-adv-x="602" 
d="M436 1221h-194l4 51q11 66 31 115t55.5 89.5t93.5 61.5t137 21q135 0 195.5 -59.5t40.5 -178.5q-10 -64 -39 -120t-82 -132l-219 -274h239l-26 -168h-539l285 372q50 67 76 103t61.5 101.5t42.5 111.5q13 106 -57 106q-75 0 -97 -141z" />
    <glyph glyph-name="three.superior" horiz-adv-x="602" 
d="M348 870l-4 -26q-5 -36 7.5 -62t45.5 -26q84 0 105 147q10 73 -17.5 100.5t-105.5 24.5l24 156q80 0 116 24.5t48 96.5q15 100 -45 100q-34 0 -53 -31.5t-25 -70.5l-4 -19h-184q19 128 84 199q73 76 203 76q124 0 181.5 -65.5t39.5 -176.5q-28 -170 -158 -215v-4
q75 -18 103.5 -77t15.5 -136q-20 -128 -112 -200.5t-234 -72.5q-131 0 -192.5 70t-36.5 188h198z" />
    </font>
</defs>
</svg>
